SplineFontDB: 3.2
FontName: linja_laso_Medium
FullName: linja laso Medium
FamilyName: linja laso
Weight: Medium
Copyright: Copyright (c) 2026, mute ante
Version: 1.2
ItalicAngle: 0
UnderlinePosition: -61
UnderlineWidth: 30
Ascent: 576
Descent: 64
InvalidEm: 0
sfntRevision: 0x0000e666
LayerCount: 2
Layer: 0 0 "Back" 1
Layer: 1 0 "Fore" 0
XUID: [1021 412 1039766594 11549582]
StyleMap: 0x0040
FSType: 0
OS2Version: 4
OS2_WeightWidthSlopeOnly: 0
OS2_UseTypoMetrics: 1
CreationTime: 1759787008
ModificationTime: 1773444649
PfmFamily: 17
TTFWeight: 500
TTFWidth: 5
LineGap: 59
VLineGap: 0
Panose: 2 0 5 3 0 0 0 0 0 0
OS2TypoAscent: 704
OS2TypoAOffset: 0
OS2TypoDescent: -320
OS2TypoDOffset: 0
OS2TypoLinegap: 59
OS2WinAscent: 672
OS2WinAOffset: 0
OS2WinDescent: 288
OS2WinDOffset: 0
HheadAscent: 704
HheadAOffset: 0
HheadDescent: -320
HheadDOffset: 0
OS2SubXSize: 416
OS2SubYSize: 448
OS2SubXOff: 0
OS2SubYOff: 89
OS2SupXSize: 416
OS2SupYSize: 448
OS2SupXOff: 0
OS2SupYOff: 307
OS2StrikeYSize: 31
OS2StrikeYPos: 165
OS2Vendor: 'PfEd'
OS2CodePages: 00000001.00000000
OS2UnicodeRanges: 00000001.02000000.04000000.00000000
Lookup: 4 0 1 "LIGA basics" { "LIGA basics"  } ['liga' ('DFLT' <'dflt' > 'latn' <'dflt' > ) ]
Lookup: 4 0 1 "LIGA ni directions" { "LIGA ni directions-1"  } ['liga' ('DFLT' <'dflt' > 'latn' <'dflt' > ) ]
Lookup: 4 0 1 "LIGA alternates" { "LIGA alternates"  } ['liga' ('DFLT' <'dflt' > 'latn' <'dflt' > ) ]
Lookup: 1 0 0 "SS01 allow half spaces" { "SS01 allow half spaces"  } ['ss01' ('DFLT' <'dflt' > 'latn' <'dflt' > ) ]
Lookup: 5 0 0 "CALT colon te spacing" { "CALT colon te spacing"  } ['calt' ('DFLT' <'dflt' > 'latn' <'dflt' > ) ]
Lookup: 1 0 0 "SS20 colon te spacing" { "SS20 colon te spacing"  } ['ss20' ('DFLT' <'dflt' > 'latn' <'dflt' > ) ]
Lookup: 6 0 0 "CALT cartouches" { "CALT cartouches"  } ['calt' ('DFLT' <'dflt' > 'latn' <'dflt' > ) ]
Lookup: 2 0 0 "CCMP cartouches" { "CCMP cartouches"  } ['stch' ('DFLT' <'dflt' > 'latn' <'dflt' > ) ]

StartChar: .notdef
Encoding: 279 -1 0
GlifName: _notdef
Width: 640
GlyphClass: 1
Flags: W
HStem: 0 21G<64 576> 492 20G<64 576>
VStem: 64 512<0 512>
LayerCount: 2
Fore
SplineSet
64 0 m 1
 64 512 l 1
 576 512 l 1
 576 0 l 1
 64 0 l 1
EndSplineSet
EndChar

StartChar: t.a
Encoding: 101 989440 2
GlifName: t.a
Width: 640
GlyphClass: 1
Flags: W
HStem: -16 64<265 344> 176 64<265 344>
VStem: 176 64<73 151> 272 64<288 528> 436 63<-1 42>
LayerCount: 2
Fore
SplineSet
418 53 m 1
 397 12 353 -16 304 -16 c 0
 234 -16 176 42 176 112 c 0
 176 182 234 240 304 240 c 0
 339 240 372 225 395 202 c 0
 450 147 486 77 499 0 c 1
 436 -11 l 1
 432 11 426 33 418 53 c 1
304 176 m 0
 269 176 240 147 240 112 c 0
 240 77 269 48 304 48 c 0
 339 48 368 77 368 112 c 0
 368 130 361 145 349 157 c 0
 337 169 322 176 304 176 c 0
272 288 m 1
 272 528 l 1
 336 528 l 1
 336 288 l 1
 272 288 l 1
EndSplineSet
MultipleSubs2: "CCMP cartouches" t.a cart.body
Ligature2: "LIGA basics" a
EndChar

StartChar: t.akesi
Encoding: 102 989441 3
GlifName: t.akesi
Width: 640
GlyphClass: 1
Flags: W
HStem: -16 64<281 359> 112 64<128 192 256 384 448 512> 240 64<128 192 256 384 448 512> 368 64<281 359> 448 96<191 257 383 449>
VStem: 176 96<463 529> 192 64<74 112 176 240 304 342> 368 96<463 529> 384 64<74 112 176 240 304 342>
LayerCount: 2
Fore
SplineSet
368 496 m 0xf9
 368 522 390 544 416 544 c 0
 442 544 464 522 464 496 c 0
 464 470 442 448 416 448 c 0
 390 448 368 470 368 496 c 0xf9
176 496 m 0xfc
 176 522 198 544 224 544 c 0
 250 544 272 522 272 496 c 0
 272 470 250 448 224 448 c 0
 198 448 176 470 176 496 c 0xfc
256 112 m 1xfa80
 256 77 285 48 320 48 c 0
 355 48 384 77 384 112 c 1
 256 112 l 1xfa80
256 240 m 1
 256 176 l 1
 384 176 l 1
 384 240 l 1
 256 240 l 1
320 368 m 0
 285 368 256 339 256 304 c 1
 384 304 l 1
 384 339 355 368 320 368 c 0
320 432 m 0
 390 432 448 374 448 304 c 1
 512 304 l 1
 512 240 l 1
 448 240 l 1
 448 176 l 1
 512 176 l 1
 512 112 l 1
 448 112 l 1
 448 42 390 -16 320 -16 c 0
 250 -16 192 42 192 112 c 1
 128 112 l 1
 128 176 l 1
 192 176 l 1
 192 240 l 1
 128 240 l 1
 128 304 l 1
 192 304 l 1
 192 374 250 432 320 432 c 0
EndSplineSet
LCarets2: 4 -48 -48 -48 -48
MultipleSubs2: "CCMP cartouches" t.akesi cart.body
Ligature2: "LIGA basics" a k e s i
EndChar

StartChar: t.ala
Encoding: 103 989442 4
GlifName: t.ala
Width: 640
GlyphClass: 1
Flags: W
HStem: 0 13G<97 122 518 543> 499 13G<97 122 518 543>
LayerCount: 2
Fore
SplineSet
109 512 m 1
 320 301 l 1
 531 512 l 1
 576 467 l 1
 365 256 l 1
 576 45 l 1
 531 0 l 1
 320 211 l 1
 109 0 l 1
 64 45 l 1
 275 256 l 1
 64 467 l 1
 109 512 l 1
EndSplineSet
LCarets2: 2 -108 -108
MultipleSubs2: "CCMP cartouches" t.ala cart.body
Ligature2: "LIGA basics" a l a
EndChar

StartChar: t.alasa
Encoding: 104 989443 5
GlifName: t.alasa
Width: 640
GlyphClass: 1
Flags: W
HStem: 0 13G<128 194> 226 61<32 128> 229 54<192 318 381 434>
VStem: 128 64<75 226 287 437> 318 65<183 229 284 329>
LayerCount: 2
Fore
SplineSet
318 229 m 1xb8
 192 227 l 1
 192 75 l 1
 260 99 308 159 318 229 c 1xb8
192 437 m 1
 192 285 l 1
 318 284 l 1
 308 354 260 413 192 437 c 1
128 512 m 1
 260 512 370 411 383 282 c 1
 512 280 l 1
 408 368 l 1
 456 416 l 1
 616 256 l 1
 456 96 l 1
 408 144 l 1
 512 232 l 1
 383 230 l 1
 370 101 260 0 128 0 c 1
 128 226 l 1
 32 224 l 1
 32 288 l 1
 128 287 l 1xd8
 128 512 l 1
EndSplineSet
LCarets2: 4 -48 -48 -48 -48
MultipleSubs2: "CCMP cartouches" t.alasa cart.body
Ligature2: "LIGA basics" a l a s a
EndChar

StartChar: t.ale
Encoding: 105 989444 6
GlifName: t.ale
Width: 640
GlyphClass: 1
Flags: W
HStem: 120 64<127 210 429 513> 328 64<127 210 429 513>
VStem: 32 64<215 297> 544 64<215 297>
CounterMasks: 1 e0
LayerCount: 2
Fore
SplineSet
472 328 m 0
 453 328 436 321 423 308 c 2
 367 256 l 1
 423 204 l 2
 436 191 453 184 472 184 c 0
 512 184 544 216 544 256 c 0
 544 296 512 328 472 328 c 0
168 328 m 0
 128 328 96 296 96 256 c 0
 96 216 128 184 168 184 c 0
 187 184 204 191 217 204 c 2
 273 256 l 1
 217 308 l 2
 204 321 187 328 168 328 c 0
168 392 m 0
 203 392 236 379 261 355 c 2
 320 300 l 1
 379 355 l 2
 404 379 437 392 472 392 c 0
 547 392 608 331 608 256 c 0
 608 181 547 120 472 120 c 0
 437 120 404 133 379 157 c 2
 320 212 l 1
 261 157 l 2
 236 133 203 120 168 120 c 0
 93 120 32 181 32 256 c 0
 32 331 93 392 168 392 c 0
EndSplineSet
LCarets2: 2 -48 -48
MultipleSubs2: "CCMP cartouches" t.ale cart.body
Ligature2: "LIGA basics" a l e
EndChar

StartChar: t.anpa
Encoding: 106 989445 7
GlifName: t.anpa
Width: 640
GlyphClass: 1
Flags: W
HStem: 48 96<287 353> 192 64<128 512>
VStem: 64 64<256 416> 272 96<63 129> 512 64<256 416>
CounterMasks: 1 38
LayerCount: 2
Fore
SplineSet
272 96 m 0
 272 122 294 144 320 144 c 0
 346 144 368 122 368 96 c 0
 368 70 346 48 320 48 c 0
 294 48 272 70 272 96 c 0
64 416 m 1
 128 416 l 1
 128 256 l 1
 512 256 l 1
 512 416 l 1
 576 416 l 1
 576 192 l 1
 64 192 l 1
 64 416 l 1
EndSplineSet
LCarets2: 3 -48 -48 -48
MultipleSubs2: "CCMP cartouches" t.anpa cart.body
Ligature2: "LIGA basics" a n p a
EndChar

StartChar: t.ante
Encoding: 107 989446 8
GlifName: t.ante
Width: 640
GlyphClass: 1
Flags: W
HStem: 0 13G<95 123 517 545> 499 13G<95 123 517 545>
LayerCount: 2
Fore
SplineSet
320 224 m 1
 572 53 l 1
 536 0 l 1
 320 147 l 1
 104 0 l 1
 68 53 l 1
 320 224 l 1
104 512 m 1
 320 365 l 1
 536 512 l 1
 572 459 l 1
 320 288 l 1
 68 459 l 1
 104 512 l 1
EndSplineSet
LCarets2: 3 0 0 0
MultipleSubs2: "CCMP cartouches" t.ante cart.body
Ligature2: "LIGA basics" a n t e
EndChar

StartChar: t.anu
Encoding: 108 989447 9
GlifName: t.anu
Width: 640
GlyphClass: 1
Flags: W
VStem: 288 64<16 264>
LayerCount: 2
Fore
SplineSet
139 504 m 1
 320 323 l 1
 501 504 l 1
 547 459 l 1
 352 264 l 1
 352 16 l 1
 288 16 l 1
 288 264 l 1
 93 459 l 1
 139 504 l 1
EndSplineSet
LCarets2: 2 0 0
MultipleSubs2: "CCMP cartouches" t.anu cart.body
Ligature2: "LIGA basics" a n u
EndChar

StartChar: t.awen
Encoding: 109 989448 10
GlifName: t.awen
Width: 640
GlyphClass: 1
Flags: W
HStem: 0 64<48 160 480 592> 499 13G<284 356>
LayerCount: 2
Fore
SplineSet
288 512 m 1
 352 512 l 1
 480 64 l 1
 592 64 l 1
 592 0 l 1
 432 0 l 1
 320 391 l 1
 208 0 l 1
 48 0 l 1
 48 64 l 1
 160 64 l 1
 288 512 l 1
EndSplineSet
LCarets2: 3 -48 -48 -48
MultipleSubs2: "CCMP cartouches" t.awen cart.body
Ligature2: "LIGA basics" a w e n
EndChar

StartChar: t.e
Encoding: 110 989449 11
GlifName: t.e
Width: 640
GlyphClass: 1
Flags: W
LayerCount: 2
Fore
SplineSet
88 528 m 1
 360 256 l 1
 88 -16 l 1
 43 29 l 1
 269 256 l 1
 43 483 l 1
 88 528 l 1
320 528 m 1
 592 256 l 1
 320 -16 l 1
 275 29 l 1
 502 256 l 1
 275 483 l 1
 320 528 l 1
EndSplineSet
MultipleSubs2: "CCMP cartouches" t.e cart.body
Ligature2: "LIGA basics" e
EndChar

StartChar: t.en
Encoding: 111 989450 12
GlifName: t.en
Width: 640
GlyphClass: 1
Flags: W
HStem: 224 64<96 288 352 544>
VStem: 288 64<32 224 288 480>
LayerCount: 2
Fore
SplineSet
288 480 m 1
 352 480 l 1
 352 288 l 1
 544 288 l 1
 544 224 l 1
 352 224 l 1
 352 32 l 1
 288 32 l 1
 288 224 l 1
 96 224 l 1
 96 288 l 1
 288 288 l 1
 288 480 l 1
EndSplineSet
LCarets2: 1 -48
MultipleSubs2: "CCMP cartouches" t.en cart.body
Ligature2: "LIGA basics" e n
EndChar

StartChar: t.esun
Encoding: 112 989451 13
GlifName: t.esun
Width: 640
GlyphClass: 1
Flags: W
HStem: -16 64<153 231> 176 64<153 268> 272 64<372 487> 464 64<409 487>
VStem: 64 64<73 151> 512 64<361 439>
LayerCount: 2
Fore
SplineSet
344 215 m 1
 436 184 516 127 576 48 c 1
 525 10 l 1
 475 77 407 125 331 152 c 1
 318 90 l 2
 307 29 254 -16 192 -16 c 0
 122 -16 64 42 64 112 c 0
 64 182 122 240 192 240 c 0
 223 240 253 238 282 232 c 1
 296 297 l 1
 204 328 124 385 64 464 c 1
 115 502 l 1
 165 435 233 387 309 360 c 1
 322 422 l 2
 333 483 386 528 448 528 c 0
 518 528 576 470 576 400 c 0
 576 330 518 272 448 272 c 0
 417 272 387 274 358 280 c 1
 344 215 l 1
371 343 m 1
 396 339 422 336 448 336 c 0
 483 336 512 365 512 400 c 0
 512 435 483 464 448 464 c 0
 417 464 390 442 385 411 c 2
 371 343 l 1
269 169 m 1
 244 173 218 176 192 176 c 0
 157 176 128 147 128 112 c 0
 128 77 157 48 192 48 c 0
 223 48 250 70 255 101 c 2
 269 169 l 1
EndSplineSet
LCarets2: 3 -48 -48 -48
MultipleSubs2: "CCMP cartouches" t.esun cart.body
Ligature2: "LIGA basics" e s u n
EndChar

StartChar: t.ijo
Encoding: 113 989452 14
GlifName: t.ijo
Width: 640
GlyphClass: 1
Flags: W
HStem: -16 64<247 393> 464 64<247 393>
VStem: 48 64<183 329> 528 64<183 329>
LayerCount: 2
Fore
SplineSet
320 464 m 0
 205 464 112 371 112 256 c 0
 112 141 205 48 320 48 c 0
 435 48 528 141 528 256 c 0
 528 371 435 464 320 464 c 0
320 528 m 0
 470 528 592 406 592 256 c 0
 592 106 470 -16 320 -16 c 0
 170 -16 48 106 48 256 c 0
 48 406 170 528 320 528 c 0
EndSplineSet
LCarets2: 2 -48 -48
MultipleSubs2: "CCMP cartouches" t.ijo cart.body
Ligature2: "LIGA basics" i j o
EndChar

StartChar: t.ike
Encoding: 114 989453 15
GlifName: t.ike
Width: 640
GlyphClass: 1
Flags: W
HStem: 336 64<250 390>
VStem: 64 64<144 214> 512 64<144 214>
LayerCount: 2
Fore
SplineSet
320 400 m 0
 461 400 576 285 576 144 c 1
 512 144 l 1
 512 250 426 336 320 336 c 0
 214 336 128 250 128 144 c 1
 64 144 l 1
 64 285 179 400 320 400 c 0
EndSplineSet
LCarets2: 2 -48 -48
MultipleSubs2: "CCMP cartouches" t.ike cart.body
Ligature2: "LIGA basics" i k e
EndChar

StartChar: t.ilo
Encoding: 115 989454 16
GlifName: t.ilo
Width: 640
GlyphClass: 1
Flags: W
HStem: 0 13G<288 352> 224 64<128 288 352 512> 448 64<128 288 352 512>
VStem: 64 64<288 448> 288 64<0 224 288 448> 512 64<288 448>
CounterMasks: 1 38
LayerCount: 2
Fore
SplineSet
352 448 m 1
 352 288 l 1
 512 288 l 1
 512 448 l 1
 352 448 l 1
128 448 m 1
 128 288 l 1
 288 288 l 1
 288 448 l 1
 128 448 l 1
64 512 m 1
 576 512 l 1
 576 224 l 1
 352 224 l 1
 352 0 l 1
 288 0 l 1
 288 224 l 1
 64 224 l 1
 64 512 l 1
EndSplineSet
LCarets2: 2 -48 -48
MultipleSubs2: "CCMP cartouches" t.ilo cart.body
Ligature2: "LIGA basics" i l o
EndChar

StartChar: t.insa
Encoding: 116 989455 17
GlifName: t.insa
Width: 640
GlyphClass: 1
Flags: W
HStem: 128 64<128 512> 256 96<287 353>
VStem: 64 64<192 384> 272 96<271 337> 512 64<192 384>
LayerCount: 2
Fore
SplineSet
272 304 m 0
 272 330 294 352 320 352 c 0
 346 352 368 330 368 304 c 0
 368 278 346 256 320 256 c 0
 294 256 272 278 272 304 c 0
64 384 m 1
 128 384 l 1
 128 192 l 1
 512 192 l 1
 512 384 l 1
 576 384 l 1
 576 128 l 1
 64 128 l 1
 64 384 l 1
EndSplineSet
LCarets2: 3 -48 -48 -48
MultipleSubs2: "CCMP cartouches" t.insa cart.body
Ligature2: "LIGA basics" i n s a
EndChar

StartChar: t.jaki
Encoding: 117 989456 18
GlifName: t.jaki
Width: 640
VWidth: 832
GlyphClass: 1
Flags: W
HStem: -32 64<358 418> 64 64<169 191 273 408> 200 64<247 345> 240 64<48 84> 288 64<404 491> 464 64<218 380>
VStem: 96 64<136 193> 128 64<335 439> 424 64<38 64> 528 64<163 252>
LayerCount: 2
Fore
SplineSet
448 288 m 0xecc0
 445 288 442 287 440 287 c 2
 247 264 l 1
 288 264 l 1
 372 264 447 212 476 133 c 1
 507 145 528 173 528 208 c 0
 528 252 492 288 448 288 c 0xecc0
344 340 m 1
 433 351 l 2
 436 352 442 352 448 352 c 0
 527 352 592 287 592 208 c 0
 592 142 548 87 488 70 c 0
 488 68 488 66 488 64 c 0
 488 11 445 -32 392 -32 c 0
 366 -32 342 -22 324 -4 c 1
 369 42 l 1
 375 36 384 32 392 32 c 0
 410 32 424 46 424 64 c 1
 273 64 l 1
 288 0 l 1
 226 -15 l 1
 207 64 l 1
 196 64 l 2
 141 64 96 109 96 164 c 0xcec0
 96 199 115 232 145 250 c 1
 114 244 81 240 48 240 c 1
 48 304 l 1
 145 316 l 1
 132 369 l 2
 129 379 128 390 128 400 c 0xd5c0
 128 470 186 528 256 528 c 2
 400 528 l 1
 417 518 l 1
 472 487 l 1
 439 429 395 379 344 340 c 1
256 464 m 2
 221 464 192 435 192 400 c 0xc5c0
 192 395 193 390 194 385 c 2
 206 335 l 1
 274 362 334 406 380 464 c 1
 256 464 l 2
288 200 m 1xe4c0
 239 200 l 1
 257 128 l 1
 408 128 l 1
 384 172 338 200 288 200 c 1xe4c0
175 193 m 1
 165 186 160 176 160 164 c 0xc6c0
 160 146 173 132 191 129 c 1
 175 193 l 1
EndSplineSet
LCarets2: 3 0 0 0
MultipleSubs2: "CCMP cartouches" t.jaki cart.body
Ligature2: "LIGA basics" j a k i
EndChar

StartChar: t.jan
Encoding: 118 989457 19
GlifName: t.jan
Width: 640
GlyphClass: 1
Flags: W
HStem: 48 64<252 388> 464 64<253 387>
VStem: 80 64<220 355> 496 64<220 355>
LayerCount: 2
Fore
SplineSet
320 464 m 0
 223 464 144 385 144 288 c 0
 144 191 223 112 320 112 c 0
 417 112 496 191 496 288 c 0
 496 385 417 464 320 464 c 0
320 528 m 0
 452 528 560 420 560 288 c 0
 560 225 536 168 496 125 c 1
 598 22 l 1
 554 -22 l 1
 447 84 l 1
 411 61 367 48 320 48 c 0
 273 48 229 61 193 84 c 1
 86 -22 l 1
 42 22 l 1
 144 125 l 1
 104 168 80 225 80 288 c 0
 80 420 188 528 320 528 c 0
EndSplineSet
LCarets2: 2 -48 -48
MultipleSubs2: "CCMP cartouches" t.jan cart.body
Ligature2: "LIGA basics" j a n
EndChar

StartChar: t.jelo
Encoding: 119 989458 20
GlifName: t.jelo
Width: 640
GlyphClass: 1
Flags: W
HStem: 0 64<218 422> 288 64<96 200 440 544> 384 160<288 352>
VStem: 96 160<288 352> 288 64<440 544> 384 160<288 352>
CounterMasks: 1 1c
LayerCount: 2
Fore
SplineSet
320 166 m 1
 218 64 l 1
 422 64 l 1
 320 166 l 1
320 384 m 0
 285 384 256 355 256 320 c 0
 256 285 285 256 320 256 c 0
 355 256 384 285 384 320 c 0
 384 355 355 384 320 384 c 0
288 544 m 1
 352 544 l 1
 352 444 l 1
 397 432 432 397 444 352 c 1
 544 352 l 1
 544 288 l 1
 444 288 l 1
 434 250 407 220 372 204 c 1
 576 0 l 1
 64 0 l 1
 268 204 l 1
 233 220 206 250 196 288 c 1
 96 288 l 1
 96 352 l 1
 196 352 l 1
 208 397 243 432 288 444 c 1
 288 544 l 1
EndSplineSet
LCarets2: 3 0 0 0
MultipleSubs2: "CCMP cartouches" t.jelo cart.body
Ligature2: "LIGA basics" j e l o
EndChar

StartChar: t.jo
Encoding: 120 989459 21
GlifName: t.jo
Width: 640
GlyphClass: 1
Flags: W
HStem: -16 64<260 382> 128 64<320 449> 240 64<276 364> 464 64<276 364>
VStem: 112 64<132 253> 176 64<343 428> 400 64<340 428>
LayerCount: 2
Fore
SplineSet
320 128 m 1xfa
 320 192 l 1
 464 192 l 1
 528 192 l 1
 528 77 435 -16 320 -16 c 0
 205 -16 112 77 112 192 c 0xfa
 112 253 139 309 181 347 c 1
 178 359 176 371 176 384 c 0xf6
 176 463 241 528 320 528 c 0
 399 528 464 463 464 384 c 0
 464 305 399 240 320 240 c 0
 277 240 238 259 212 288 c 1
 189 262 176 229 176 192 c 0
 176 113 241 48 320 48 c 0
 376 48 425 81 449 128 c 1
 320 128 l 1xfa
320 464 m 0
 276 464 240 428 240 384 c 0xf6
 240 340 276 304 320 304 c 0
 364 304 400 340 400 384 c 0
 400 428 364 464 320 464 c 0
EndSplineSet
LCarets2: 1 0
MultipleSubs2: "CCMP cartouches" t.jo cart.body
Ligature2: "LIGA basics" j o
EndChar

StartChar: t.kala
Encoding: 121 989460 22
GlifName: t.kala
Width: 640
GlyphClass: 1
Flags: W
HStem: 80 64<339 481> 368 64<339 481>
VStem: 48 64<80 144 368 432> 544 64<203 309>
LayerCount: 2
Fore
SplineSet
423 368 m 0
 353 368 274 338 215 284 c 0
 205 276 196 266 188 256 c 1
 196 246 205 236 215 228 c 0
 274 174 353 144 423 144 c 0
 493 144 544 194 544 256 c 0
 544 318 493 368 423 368 c 0
112 438 m 1
 116 393 129 349 151 310 c 1
 157 317 165 325 172 331 c 0
 242 396 337 432 433 432 c 0
 529 432 608 353 608 256 c 0
 608 159 529 80 433 80 c 0
 337 80 242 116 172 181 c 0
 165 187 157 195 151 202 c 1
 129 163 116 119 112 74 c 1
 48 80 l 1
 54 143 75 204 109 256 c 1
 75 308 54 369 48 432 c 1
 112 438 l 1
EndSplineSet
LCarets2: 3 0 0 0
MultipleSubs2: "CCMP cartouches" t.kala cart.body
Ligature2: "LIGA basics" k a l a
EndChar

StartChar: t.kalama
Encoding: 122 989461 23
GlifName: t.kalama
Width: 640
GlyphClass: 1
Flags: W
HStem: 16 64<257 383> 208 64<163 477>
VStem: 288 64<368 528>
LayerCount: 2
Fore
SplineSet
288 368 m 1
 288 528 l 1
 352 528 l 1
 352 368 l 1
 288 368 l 1
388 358 m 1
 474 492 l 1
 528 458 l 1
 442 323 l 1
 388 358 l 1
252 358 m 1
 198 323 l 1
 112 458 l 1
 166 492 l 1
 252 358 l 1
96 272 m 1
 544 272 l 1
 544 240 l 2
 544 116 444 16 320 16 c 0
 196 16 96 116 96 240 c 2
 96 272 l 1
163 208 m 1
 178 135 243 80 320 80 c 0
 397 80 462 135 477 208 c 1
 163 208 l 1
EndSplineSet
LCarets2: 5 0 0 0 0 0
MultipleSubs2: "CCMP cartouches" t.kalama cart.body
Ligature2: "LIGA basics" k a l a m a
EndChar

StartChar: t.kama
Encoding: 123 989462 24
GlifName: t.kama
Width: 640
GlyphClass: 1
Flags: W
HStem: -8 13G<207 244 395 433> 499 13G<316 390>
LayerCount: 2
Fore
SplineSet
384 512 m 1
 584 64 l 1
 400 -8 l 1
 377 52 l 1
 498 99 l 1
 358 412 l 1
 240 -8 l 1
 56 64 l 1
 79 124 l 1
 198 77 l 1
 320 512 l 1
 384 512 l 1
EndSplineSet
LCarets2: 3 0 0 0
MultipleSubs2: "CCMP cartouches" t.kama cart.body
Ligature2: "LIGA basics" k a m a
EndChar

StartChar: t.kasi
Encoding: 124 989463 25
GlifName: t.kasi
Width: 640
GlyphClass: 1
Flags: W
HStem: 0 13G<288 352> 192 64<218 288 352 422> 448 64<96 166 474 544>
VStem: 32 64<378 448> 288 64<0 192 256 326> 544 64<378 448>
LayerCount: 2
Fore
SplineSet
544 448 m 1
 438 448 352 362 352 256 c 1
 458 256 544 342 544 448 c 1
96 448 m 1
 96 342 182 256 288 256 c 1
 288 362 202 448 96 448 c 1
32 512 m 1
 32 512 60 512 79 512 c 0
 89 512 96 512 96 512 c 0
 193 512 276 459 320 380 c 1
 364 459 447 512 544 512 c 2
 608 512 l 1
 608 448 l 2
 608 307 493 192 352 192 c 1
 352 0 l 1
 288 0 l 1
 288 192 l 1
 147 192 32 307 32 448 c 2
 32 512 l 1
EndSplineSet
LCarets2: 3 -48 -48 -48
MultipleSubs2: "CCMP cartouches" t.kasi cart.body
Ligature2: "LIGA basics" k a s i
EndChar

StartChar: t.ken
Encoding: 125 989464 26
GlifName: t.ken
Width: 640
GlyphClass: 1
Flags: W
HStem: 0 13G<128 192 448 512> 224 64<192 326> 499 13G<128 192 448 512>
VStem: 128 64<0 224 288 512> 448 64<0 100 410 512>
LayerCount: 2
Fore
SplineSet
448 512 m 1
 512 512 l 1
 512 512 512 503 512 493 c 2
 512 480 l 2
 512 387 461 301 380 256 c 1
 461 211 512 125 512 32 c 0
 512 23 512 15 512 6 c 0
 512 4 512 2 512 0 c 1
 448 0 l 2
 448 4 448 7 448 11 c 0
 448 18 448 25 448 32 c 0
 448 138 363 223 257 224 c 2
 192 224 l 1
 192 0 l 1
 128 0 l 1
 128 512 l 1
 192 512 l 1
 192 288 l 1
 256 288 l 2
 362 288 448 374 448 480 c 0
 448 491 448 512 448 512 c 1
EndSplineSet
LCarets2: 2 -48 -48
MultipleSubs2: "CCMP cartouches" t.ken cart.body
Ligature2: "LIGA basics" k e n
EndChar

StartChar: t.kepeken
Encoding: 126 989465 27
GlifName: t.kepeken
Width: 640
GlyphClass: 1
Flags: W
HStem: 0 13G<163 240 464 528> 288 64<200 312 376 488> 464 64<200 312 376 488>
VStem: 136 65<352 464> 312 64<252 288 352 464> 464 64<0 132> 488 63<352 464>
LayerCount: 2
Fore
SplineSet
80 96 m 1xfc
 125 141 l 1
 176 90 l 1
 180 169 237 235 312 252 c 1
 312 288 l 1
 136 288 l 1
 136 528 l 1
 552 528 l 1
 552 288 l 1xfa
 376 288 l 1
 376 254 l 1
 462 242 528 169 528 80 c 2
 528 0 l 1
 464 0 l 1
 464 80 l 2
 464 142 414 192 352 192 c 0
 290 192 240 142 240 80 c 2
 240 0 l 1
 176 0 l 1
 80 96 l 1xfc
376 464 m 1
 376 352 l 1
 488 352 l 1
 488 464 l 1
 376 464 l 1
200 464 m 1
 200 352 l 1
 312 352 l 1
 312 464 l 1
 200 464 l 1
EndSplineSet
LCarets2: 6 0 0 0 0 0 0
MultipleSubs2: "CCMP cartouches" t.kepeken cart.body
Ligature2: "LIGA basics" k e p e k e n
EndChar

StartChar: t.kili
Encoding: 127 989466 28
GlifName: t.kili
Width: 640
GlyphClass: 1
Flags: W
HStem: 16 64<247 394> 376 64<155 247 393 487>
VStem: 48 64<215 334> 288 64<288 335 412 496> 528 64<213 334>
LayerCount: 2
Fore
SplineSet
288 496 m 1
 352 496 l 1
 352 412 l 1
 378 430 410 440 441 440 c 0
 457 440 474 437 489 432 c 0
 543 414 585 362 591 305 c 0
 592 298 592 292 592 285 c 0
 592 241 580 196 559 158 c 0
 519 84 445 31 362 19 c 0
 349 17 334 16 321 16 c 0
 257 16 194 38 145 80 c 0
 84 131 47 209 48 288 c 0
 48 296 49 305 50 313 c 0
 59 371 104 420 160 435 c 0
 173 439 186 440 199 440 c 0
 230 440 262 430 288 412 c 1
 288 496 l 1
196 376 m 0
 191 376 186 375 182 374 c 0
 142 366 111 328 112 288 c 0
 111 231 137 175 179 136 c 0
 217 100 269 80 321 80 c 0
 338 80 355 82 372 86 c 0
 444 104 504 164 522 236 c 0
 526 251 528 268 528 285 c 0
 528 299 525 313 519 326 c 0
 505 356 473 376 440 376 c 0
 434 376 428 375 422 374 c 0
 383 367 353 331 352 291 c 2
 352 288 l 1
 288 288 l 1
 288 294 l 2
 287 305 284 316 279 326 c 0
 265 356 233 376 200 376 c 0
 199 376 197 376 196 376 c 0
EndSplineSet
LCarets2: 3 0 0 0
MultipleSubs2: "CCMP cartouches" t.kili cart.body
Ligature2: "LIGA basics" k i l i
EndChar

StartChar: t.kiwen
Encoding: 128 989467 29
GlifName: t.kiwen
Width: 640
GlyphClass: 1
Flags: W
HStem: 0 13G<308 332> 432 64<225 415>
LayerCount: 2
Fore
SplineSet
225 432 m 1
 130 294 l 1
 320 93 l 1
 510 294 l 1
 415 432 l 1
 225 432 l 1
192 496 m 1
 448 496 l 1
 592 288 l 1
 320 0 l 1
 48 288 l 1
 192 496 l 1
EndSplineSet
LCarets2: 4 0 0 0 0
MultipleSubs2: "CCMP cartouches" t.kiwen cart.body
Ligature2: "LIGA basics" k i w e n
EndChar

StartChar: t.ko
Encoding: 129 989468 30
GlifName: t.ko
Width: 640
VWidth: 832
GlyphClass: 1
Flags: W
HStem: -16 64<323 396> 32 63<131 204> 136 64<476 516> 312 63<476 516> 417 63<131 204> 465 63<324 396>
VStem: 48 63<115 188 324 396> 417 63<68 136 376 444> 536 64<220 292>
LayerCount: 2
Fore
SplineSet
600 256 m 0x3780
 600 190 546 136 480 136 c 0
 479 136 477 136 476 136 c 1
 479 126 480 115 480 104 c 0
 480 38 426 -16 360 -16 c 0xb780
 308 -16 265 17 248 62 c 1
 227 43 199 32 168 32 c 0
 102 32 48 86 48 152 c 0
 48 197 72 236 108 256 c 1
 72 276 48 315 48 360 c 0
 48 426 102 480 168 480 c 0x7b80
 199 480 227 469 248 450 c 1
 265 495 308 528 360 528 c 0
 426 528 480 474 480 408 c 0
 480 397 479 386 476 376 c 1
 477 376 479 376 480 376 c 0
 546 376 600 322 600 256 c 0x3780
536 256 m 0
 536 288 512 312 480 312 c 0
 480 312 478 312 477 312 c 0
 476 312 477 312 476 312 c 0
 441 312 412 341 412 376 c 0
 412 382 413 388 414 393 c 0
 415 398 417 403 417 408 c 0
 417 440 392 465 360 465 c 2
 360 465 l 2xb780
 336 465 315 450 307 428 c 0
 298 404 276 386 248 386 c 0
 232 386 217 392 205 402 c 0
 195 411 182 417 168 417 c 0
 136 417 111 392 111 360 c 0
 111 340 123 321 140 311 c 0
 159 300 172 280 172 256 c 0
 172 232 159 212 140 201 c 0
 123 191 111 172 111 152 c 0
 111 120 136 95 168 95 c 0x7b80
 182 95 195 101 205 110 c 0
 217 120 232 126 248 126 c 0
 276 126 298 108 307 84 c 0
 315 62 336 48 360 48 c 0
 392 48 417 72 417 104 c 0
 417 109 415 114 414 119 c 0
 413 124 412 130 412 136 c 0
 412 171 441 200 476 200 c 0
 477 200 477 200 478 200 c 0
 479 200 479 200 480 200 c 0
 512 200 536 224 536 256 c 0
EndSplineSet
LCarets2: 1 -48
MultipleSubs2: "CCMP cartouches" t.ko cart.body
Ligature2: "LIGA basics" k o
EndChar

StartChar: t.kon
Encoding: 130 989469 31
GlifName: t.kon
Width: 640
GlyphClass: 1
Flags: W
HStem: -16 64<146 193 370 417> 464 64<223 270 447 494>
VStem: 110 64<318 417> 242 64<95 194> 334 64<318 417> 466 64<95 194>
LayerCount: 2
Fore
SplineSet
494 464 m 1
 441 464 398 421 398 368 c 0
 398 333 416 301 447 284 c 0
 498 256 530 202 530 144 c 0
 530 56 458 -16 370 -16 c 1
 370 48 l 1
 423 48 466 91 466 144 c 0
 466 179 448 211 417 228 c 0
 366 256 334 310 334 368 c 0
 334 456 406 528 494 528 c 1
 494 464 l 1
146 48 m 1
 199 48 242 91 242 144 c 0
 242 179 224 211 193 228 c 0
 142 256 110 310 110 368 c 0
 110 456 182 528 270 528 c 1
 270 464 l 1
 217 464 174 421 174 368 c 0
 174 333 192 301 223 284 c 0
 274 256 306 202 306 144 c 0
 306 56 234 -16 146 -16 c 1
 146 48 l 1
EndSplineSet
LCarets2: 2 -48 -48
MultipleSubs2: "CCMP cartouches" t.kon cart.body
Ligature2: "LIGA basics" k o n
EndChar

StartChar: t.kule
Encoding: 131 989470 32
GlifName: t.kule
Width: 640
GlyphClass: 1
Flags: W
HStem: 0 64<152 488> 184 72<64 140 248 392 500 576>
LayerCount: 2
Fore
SplineSet
64 184 m 1
 64 256 l 1
 176 256 l 1
 320 544 l 1
 464 256 l 1
 576 256 l 1
 576 184 l 1
 500 184 l 1
 592 0 l 1
 48 0 l 1
 140 184 l 1
 64 184 l 1
392 256 m 1
 320 401 l 1
 248 256 l 1
 392 256 l 1
428 184 m 1
 212 184 l 1
 152 64 l 1
 488 64 l 1
 428 184 l 1
EndSplineSet
LCarets2: 3 0 0 0
MultipleSubs2: "CCMP cartouches" t.kule cart.body
Ligature2: "LIGA basics" k u l e
EndChar

StartChar: t.kulupu
Encoding: 132 989471 33
GlifName: t.kulupu
Width: 640
GlyphClass: 1
Flags: W
HStem: -8 64<129 206 433 510> 184 64<129 206 433 510> 264 65<281 359> 456 64<281 359>
VStem: 40 64<81 159> 192 64<354 431> 232 64<81 159> 344 64<81 159> 384 64<354 431> 536 64<81 159>
LayerCount: 2
Fore
SplineSet
472 184 m 0xf940
 437 184 408 155 408 120 c 0
 408 85 437 56 472 56 c 0
 507 56 536 85 536 120 c 0
 536 155 507 184 472 184 c 0xf940
472 248 m 0
 542 248 600 190 600 120 c 0
 600 50 542 -8 472 -8 c 0
 402 -8 344 50 344 120 c 0
 344 190 402 248 472 248 c 0
168 184 m 0
 133 184 104 155 104 120 c 0
 104 85 133 56 168 56 c 0
 203 56 232 85 232 120 c 0xfa40
 232 155 203 184 168 184 c 0
168 248 m 0
 238 248 296 190 296 120 c 0
 296 50 238 -8 168 -8 c 0
 98 -8 40 50 40 120 c 0
 40 190 98 248 168 248 c 0
320 456 m 0
 285 456 256 427 256 392 c 0
 256 357 285 328 320 328 c 0
 355 328 384 357 384 392 c 0xfcc0
 384 427 355 456 320 456 c 0
320 520 m 0
 390 520 448 462 448 392 c 0
 448 322 390 264 320 264 c 0
 250 264 192 322 192 392 c 0
 192 462 250 520 320 520 c 0
EndSplineSet
LCarets2: 5 -48 -48 -48 -48 -48
MultipleSubs2: "CCMP cartouches" t.kulupu cart.body
Ligature2: "LIGA basics" k u l u p u
EndChar

StartChar: t.kute
Encoding: 133 989472 34
GlifName: t.kute
Width: 640
GlyphClass: 1
Flags: W
HStem: 0 64<176 257> 339 13G<288 352> 464 64<262 378>
VStem: 128 64<336 393> 288 64<267 352> 448 64<254 394>
LayerCount: 2
Fore
SplineSet
288 352 m 1
 288 352 316 352 335 352 c 0
 345 352 352 352 352 352 c 1
 352 291 336 235 308 186 c 1
 252 217 l 1
 274 257 288 303 288 352 c 1
320 528 m 0
 426 528 512 442 512 336 c 0
 512 150 362 0 176 0 c 1
 176 64 l 1
 326 64 448 186 448 336 c 0
 448 406 390 464 320 464 c 0
 250 464 192 406 192 336 c 1
 128 336 l 1
 128 442 214 528 320 528 c 0
EndSplineSet
LCarets2: 3 0 0 0
MultipleSubs2: "CCMP cartouches" t.kute cart.body
Ligature2: "LIGA basics" k u t e
EndChar

StartChar: t.la
Encoding: 134 989473 35
GlifName: t.la
Width: 640
GlyphClass: 1
Flags: W
VStem: 352 64<173 339>
LayerCount: 2
Fore
SplineSet
264 529 m 1
 356 473 416 371 416 256 c 0
 416 141 356 39 264 -17 c 1
 230 38 l 1
 303 83 352 164 352 256 c 0
 352 348 303 429 230 474 c 1
 264 529 l 1
EndSplineSet
LCarets2: 1 0
MultipleSubs2: "CCMP cartouches" t.la cart.body
Ligature2: "LIGA basics" l a
EndChar

StartChar: t.lape
Encoding: 135 989474 36
GlifName: t.lape
Width: 640
GlyphClass: 1
Flags: W
HStem: 128 64<426 503> 224 64<48 344> 320 64<426 503>
VStem: 528 64<217 295>
LayerCount: 2
Fore
SplineSet
464 384 m 0
 534 384 592 326 592 256 c 0
 592 186 534 128 464 128 c 0
 404 128 354 169 340 224 c 1
 48 224 l 1
 48 288 l 1
 340 288 l 1
 354 343 404 384 464 384 c 0
464 320 m 0
 429 320 400 291 400 256 c 0
 400 221 429 192 464 192 c 0
 499 192 528 221 528 256 c 0
 528 291 499 320 464 320 c 0
EndSplineSet
LCarets2: 3 0 0 0
MultipleSubs2: "CCMP cartouches" t.lape cart.body
Ligature2: "LIGA basics" l a p e
EndChar

StartChar: t.laso
Encoding: 136 989475 37
GlifName: t.laso
Width: 640
GlyphClass: 1
Flags: W
HStem: 0 64<218 422> 256 64<227 285 355 413> 448 64<131 194 446 509>
VStem: 288 64<224 256>
LayerCount: 2
Fore
SplineSet
320 166 m 1
 218 64 l 1
 422 64 l 1
 320 166 l 1
509 448 m 1
 434 447 370 394 355 320 c 1
 430 321 494 374 509 448 c 1
131 448 m 1
 146 374 210 321 285 320 c 1
 270 394 206 447 131 448 c 1
128 512 m 2
 209 512 281 468 320 403 c 1
 359 468 431 512 512 512 c 2
 576 512 l 1
 576 480 l 2
 576 356 476 256 352 256 c 1
 352 224 l 1
 576 0 l 1
 64 0 l 1
 288 224 l 1
 288 256 l 1
 164 256 64 356 64 480 c 2
 64 512 l 1
 64 512 71 511 81 511 c 0
 100 511 128 512 128 512 c 2
EndSplineSet
LCarets2: 3 0 0 0
MultipleSubs2: "CCMP cartouches" t.laso cart.body
Ligature2: "LIGA basics" l a s o
EndChar

StartChar: t.lawa
Encoding: 137 989476 38
GlifName: t.lawa
Width: 640
GlyphClass: 1
Flags: W
HStem: 24 65<203 324> 304 64<146 382 477 592> 424 64<203 327>
VStem: 48 64<181 299> 416 64<181 304>
LayerCount: 2
Fore
SplineSet
480 240 m 2
 480 121 383 24 264 24 c 0
 145 24 48 121 48 240 c 2
 48 272 l 2
 48 391 145 488 264 488 c 0
 346 488 422 442 458 368 c 1
 592 368 l 1
 592 304 l 1
 477 304 l 1
 478 293 480 283 480 272 c 2
 480 240 l 2
416 240 m 2
 416 272 l 2
 416 283 416 294 413 304 c 1
 115 304 l 1
 112 294 112 283 112 272 c 2
 112 240 l 2
 112 156 180 88 264 88 c 0
 348 88 416 156 416 240 c 2
264 424 m 0
 219 424 175 403 146 368 c 1
 382 368 l 1
 353 403 309 424 264 424 c 0
EndSplineSet
LCarets2: 3 0 0 0
MultipleSubs2: "CCMP cartouches" t.lawa cart.body
Ligature2: "LIGA basics" l a w a
EndChar

StartChar: t.len
Encoding: 138 989477 39
GlifName: t.len
Width: 640
GlyphClass: 1
Flags: W
HStem: 0 13G<112 176 288 352 464 528> 128 64<176 288 352 464> 448 64<176 464>
VStem: 112 64<0 128 192 448> 288 64<0 128> 464 64<0 128 192 448>
CounterMasks: 1 38
LayerCount: 2
Fore
SplineSet
176 448 m 1
 176 192 l 1
 464 192 l 1
 464 448 l 1
 176 448 l 1
112 512 m 1
 528 512 l 1
 528 0 l 1
 464 0 l 1
 464 128 l 1
 352 128 l 1
 352 0 l 1
 288 0 l 1
 288 128 l 1
 176 128 l 1
 176 0 l 1
 112 0 l 1
 112 512 l 1
EndSplineSet
LCarets2: 2 0 0
MultipleSubs2: "CCMP cartouches" t.len cart.body
Ligature2: "LIGA basics" l e n
EndChar

StartChar: t.lete
Encoding: 139 989478 40
GlifName: t.lete
Width: 640
GlyphClass: 1
Flags: W
HStem: 224 64<64 264 376 576>
LayerCount: 2
Fore
SplineSet
420 493 m 1
 476 461 l 1
 376 288 l 1
 576 288 l 1
 576 224 l 1
 376 224 l 1
 476 51 l 1
 420 19 l 1
 320 192 l 1
 220 19 l 1
 164 51 l 1
 264 224 l 1
 64 224 l 1
 64 288 l 1
 264 288 l 1
 164 461 l 1
 220 493 l 1
 320 320 l 1
 420 493 l 1
EndSplineSet
LCarets2: 3 -48 -48 -48
MultipleSubs2: "CCMP cartouches" t.lete cart.body
Ligature2: "LIGA basics" l e t e
EndChar

StartChar: t.li
Encoding: 140 989479 41
GlifName: t.li
Width: 640
GlyphClass: 1
Flags: W
LayerCount: 2
Fore
SplineSet
172 528 m 1
 512 256 l 1
 172 -16 l 1
 132 34 l 1
 410 256 l 1
 132 478 l 1
 172 528 l 1
EndSplineSet
LCarets2: 1 -48
MultipleSubs2: "CCMP cartouches" t.li cart.body
Ligature2: "LIGA basics" l i
EndChar

StartChar: t.lili
Encoding: 141 989480 42
GlifName: t.lili
Width: 640
GlyphClass: 1
Flags: W
HStem: 346 13G<210 236 404 430>
LayerCount: 2
Fore
SplineSet
227 358 m 1
 320 224 l 1
 413 358 l 1
 464 320 l 1
 320 128 l 1
 176 320 l 1
 227 358 l 1
EndSplineSet
LCarets2: 3 0 0 0
MultipleSubs2: "CCMP cartouches" t.lili cart.body
Ligature2: "LIGA basics" l i l i
EndChar

StartChar: t.linja
Encoding: 142 989481 43
GlifName: t.linja
Width: 640
GlyphClass: 1
Flags: W
HStem: 128 64<399 497> 320 64<143 241>
VStem: 32 64<176 272> 544 64<240 336>
LayerCount: 2
Fore
SplineSet
192 384 m 0
 251 384 305 352 333 300 c 2
 364 243 l 2
 381 212 413 192 448 192 c 0
 501 192 544 235 544 288 c 2
 544 336 l 1
 608 336 l 1
 608 288 l 2
 608 200 536 128 448 128 c 0
 389 128 335 160 307 212 c 2
 276 269 l 2
 259 300 227 320 192 320 c 0
 139 320 96 277 96 224 c 2
 96 176 l 1
 32 176 l 1
 32 224 l 2
 32 312 104 384 192 384 c 0
EndSplineSet
LCarets2: 4 -48 -48 -48 -48
MultipleSubs2: "CCMP cartouches" t.linja cart.body
Ligature2: "LIGA basics" l i n j a
EndChar

StartChar: t.lipu
Encoding: 143 989482 44
GlifName: t.lipu
Width: 640
GlyphClass: 1
Flags: W
HStem: 0 64<176 464> 448 64<176 464>
VStem: 112 64<64 448> 464 64<64 448>
LayerCount: 2
Fore
SplineSet
176 448 m 1
 176 64 l 1
 464 64 l 1
 464 448 l 1
 176 448 l 1
112 512 m 1
 528 512 l 1
 528 0 l 1
 112 0 l 1
 112 512 l 1
EndSplineSet
LCarets2: 3 -48 -48 -48
MultipleSubs2: "CCMP cartouches" t.lipu cart.body
Ligature2: "LIGA basics" l i p u
EndChar

StartChar: t.loje
Encoding: 144 989483 45
GlifName: t.loje
Width: 640
GlyphClass: 1
Flags: W
HStem: 0 64<241 399> 448 64<192 448>
VStem: 128 64<393 448> 448 64<393 448>
LayerCount: 2
Fore
SplineSet
320 196 m 1
 241 64 l 1
 399 64 l 1
 320 196 l 1
192 448 m 1
 192 378 250 320 320 320 c 0
 390 320 448 378 448 448 c 1
 192 448 l 1
128 512 m 1
 512 512 l 1
 512 448 l 2
 512 355 444 276 356 259 c 1
 512 0 l 1
 128 0 l 1
 284 259 l 1
 196 276 128 355 128 448 c 2
 128 512 l 1
EndSplineSet
LCarets2: 3 -48 -48 -48
MultipleSubs2: "CCMP cartouches" t.loje cart.body
Ligature2: "LIGA basics" l o j e
EndChar

StartChar: t.lon
Encoding: 145 989484 46
GlifName: t.lon
Width: 640
GlyphClass: 1
Flags: W
HStem: 128 64<64 576> 272 96<287 353>
VStem: 272 96<287 353>
LayerCount: 2
Fore
SplineSet
272 320 m 0
 272 346 294 368 320 368 c 0
 346 368 368 346 368 320 c 0
 368 294 346 272 320 272 c 0
 294 272 272 294 272 320 c 0
64 128 m 1
 64 192 l 1
 576 192 l 1
 576 128 l 1
 64 128 l 1
EndSplineSet
LCarets2: 2 -48 -48
MultipleSubs2: "CCMP cartouches" t.lon cart.body
Ligature2: "LIGA basics" l o n
EndChar

StartChar: t.luka
Encoding: 146 989485 47
GlifName: t.luka
Width: 640
GlyphClass: 1
Flags: W
HStem: 0 13G<183 256 512 576> 464 64<326 442>
VStem: 192 64<112 393> 512 64<0 393>
LayerCount: 2
Fore
SplineSet
384 528 m 0
 490 528 576 442 576 336 c 2
 576 0 l 1
 512 0 l 1
 512 336 l 2
 512 406 454 464 384 464 c 0
 314 464 256 406 256 336 c 2
 256 0 l 1
 192 0 l 1
 48 208 l 1
 100 244 l 1
 192 112 l 1
 192 336 l 2
 192 442 278 528 384 528 c 0
EndSplineSet
LCarets2: 3 -48 -48 -48
MultipleSubs2: "CCMP cartouches" t.luka cart.body
Ligature2: "LIGA basics" l u k a
EndChar

StartChar: t.lukin
Encoding: 147 989486 48
GlifName: t.lukin
Width: 640
GlyphClass: 1
Flags: W
HStem: 96 64<238 402> 208 96<287 353> 352 64<238 402>
VStem: 272 96<223 289>
CounterMasks: 1 e0
LayerCount: 2
Fore
SplineSet
320 352 m 0
 239 352 167 315 120 256 c 1
 167 197 239 160 320 160 c 0
 401 160 473 197 520 256 c 1
 473 315 401 352 320 352 c 0
320 416 m 0
 438 416 542 352 597 256 c 1
 542 160 438 96 320 96 c 0
 202 96 98 160 43 256 c 1
 98 352 202 416 320 416 c 0
272 256 m 0
 272 282 294 304 320 304 c 0
 346 304 368 282 368 256 c 0
 368 230 346 208 320 208 c 0
 294 208 272 230 272 256 c 0
EndSplineSet
LCarets2: 4 -48 -48 -48 -48
MultipleSubs2: "CCMP cartouches" t.lukin cart.body
Ligature2: "LIGA basics" l u k i n
EndChar

StartChar: t.lupa
Encoding: 148 989487 49
GlifName: t.lupa
Width: 640
GlyphClass: 1
Flags: W
HStem: -16 64<260 380> 499 13G<112 176 464 528>
VStem: 112 64<133 512> 464 64<133 512>
LayerCount: 2
Fore
SplineSet
320 -16 m 0
 205 -16 112 77 112 192 c 2
 112 512 l 1
 176 512 l 1
 176 192 l 2
 176 113 241 48 320 48 c 0
 399 48 464 113 464 192 c 2
 464 512 l 1
 528 512 l 1
 528 192 l 2
 528 77 435 -16 320 -16 c 0
EndSplineSet
LCarets2: 3 -48 -48 -48
MultipleSubs2: "CCMP cartouches" t.lupa cart.body
Ligature2: "LIGA basics" l u p a
EndChar

StartChar: t.ma
Encoding: 149 989488 50
GlifName: t.ma
Width: 640
GlyphClass: 1
Flags: W
HStem: -16 67<245 288 352 395> 224 64<115 288 352 525> 461 67<245 288 352 395>
VStem: 48 67<181 224 288 331> 288 64<51 224 288 461> 525 67<181 224 288 331>
LayerCount: 2
Fore
SplineSet
352 224 m 1
 352 224 352 146 352 95 c 0
 352 69 352 51 352 51 c 1
 441 65 511 135 525 224 c 1
 352 224 l 1
115 224 m 1
 129 135 199 65 288 51 c 1
 288 224 l 1
 115 224 l 1
352 461 m 1
 352 288 l 1
 352 288 430 288 481 288 c 0
 507 288 525 288 525 288 c 1
 511 377 441 447 352 461 c 1
288 461 m 1
 199 447 129 377 115 288 c 1
 288 288 l 1
 288 461 l 1
320 528 m 0
 470 528 592 406 592 256 c 0
 592 106 470 -16 320 -16 c 0
 170 -16 48 106 48 256 c 0
 48 406 170 528 320 528 c 0
EndSplineSet
LCarets2: 1 -48
MultipleSubs2: "CCMP cartouches" t.ma cart.body
Ligature2: "LIGA basics" m a
EndChar

StartChar: t.mama
Encoding: 150 989489 51
GlifName: t.mama
Width: 640
GlyphClass: 1
Flags: W
HStem: -32 64<294 346> 96 64<296 344> 480 64<258 382>
VStem: 96 64<257 382> 224 64<38 90> 352 64<38 90> 480 64<257 382>
LayerCount: 2
Fore
SplineSet
320 480 m 0
 232 480 160 408 160 320 c 0
 160 232 232 160 320 160 c 0
 408 160 480 232 480 320 c 0
 480 408 408 480 320 480 c 0
320 544 m 0
 444 544 544 444 544 320 c 0
 544 226 486 145 403 112 c 1
 411 98 416 81 416 64 c 0
 416 11 373 -32 320 -32 c 0
 267 -32 224 11 224 64 c 0
 224 81 229 98 237 112 c 1
 154 145 96 226 96 320 c 0
 96 444 196 544 320 544 c 0
320 96 m 0
 302 96 288 82 288 64 c 0
 288 46 302 32 320 32 c 0
 338 32 352 46 352 64 c 0
 352 82 338 96 320 96 c 0
EndSplineSet
LCarets2: 3 0 0 0
MultipleSubs2: "CCMP cartouches" t.mama cart.body
Ligature2: "LIGA basics" m a m a
EndChar

StartChar: t.mani
Encoding: 151 989490 52
GlifName: t.mani
Width: 640
GlyphClass: 1
Flags: W
HStem: 0 64<258 382> 384 64<256 384>
VStem: 32 64<423 480> 96 64<162 287> 480 64<162 287> 544 64<423 480>
LayerCount: 2
Fore
SplineSet
32 480 m 1xe0
 96 480 l 1
 96 436 118 397 153 374 c 1
 194 419 253 448 320 448 c 0
 387 448 446 419 487 373 c 1
 522 396 544 436 544 480 c 1
 608 480 l 1xe4
 608 414 574 355 522 320 c 1
 536 291 544 259 544 224 c 0
 544 100 444 0 320 0 c 0
 196 0 96 100 96 224 c 0xd8
 96 259 104 291 118 320 c 1
 66 355 32 413 32 480 c 1xe0
320 384 m 0
 232 384 160 312 160 224 c 0
 160 136 232 64 320 64 c 0
 408 64 480 136 480 224 c 0xd8
 480 312 408 384 320 384 c 0
EndSplineSet
LCarets2: 3 -48 -48 -48
MultipleSubs2: "CCMP cartouches" t.mani cart.body
Ligature2: "LIGA basics" m a n i
EndChar

StartChar: t.meli
Encoding: 152 989491 53
GlifName: t.meli
Width: 640
GlyphClass: 1
Flags: W
HStem: 50 64<192 288 352 448> 164 61<263 288 352 377> 482 64<262 378>
VStem: 128 64<297 412> 288 64<-30 50 114 167> 448 64<297 412>
LayerCount: 2
Fore
SplineSet
320 482 m 0
 250 482 192 424 192 354 c 0
 192 284 250 226 320 226 c 0
 390 226 448 284 448 354 c 0
 448 424 390 482 320 482 c 0
320 546 m 0
 426 546 512 460 512 354 c 0
 512 259 443 179 352 164 c 1
 352 114 l 1
 448 114 l 1
 448 50 l 1
 352 50 l 1
 352 -30 l 1
 288 -30 l 1
 288 50 l 1
 192 50 l 1
 192 114 l 1
 288 114 l 1
 288 164 l 1
 197 179 128 259 128 354 c 0
 128 460 214 546 320 546 c 0
EndSplineSet
LCarets2: 3 -48 -48 -48
MultipleSubs2: "CCMP cartouches" t.meli cart.body
Ligature2: "LIGA basics" m e l i
EndChar

StartChar: t.mi
Encoding: 153 989492 54
GlifName: t.mi
Width: 640
GlyphClass: 1
Flags: W
HStem: -8 13G<288 352> 224 64<275 364> 448 64<276 364>
VStem: 176 64<326 412> 400 64<324 412>
LayerCount: 2
Fore
SplineSet
400 368 m 0
 400 412 364 448 320 448 c 0
 276 448 240 412 240 368 c 0
 240 324 276 288 320 288 c 0
 364 288 400 324 400 368 c 0
464 368 m 0
 464 289 399 224 320 224 c 0
 298 224 278 229 259 237 c 1
 282 161 325 93 384 39 c 1
 340 -8 l 1
 235 89 176 225 176 368 c 0
 176 447 241 512 320 512 c 0
 399 512 464 447 464 368 c 0
EndSplineSet
LCarets2: 1 0
MultipleSubs2: "CCMP cartouches" t.mi cart.body
Ligature2: "LIGA basics" m i
EndChar

StartChar: t.mije
Encoding: 154 989493 55
GlifName: t.mije
Width: 640
GlyphClass: 1
Flags: W
HStem: -14 64<182 298> 306 64<182 298> 450 64<352 472>
VStem: 48 64<120 236> 368 64<120 236> 512 64<290 410>
LayerCount: 2
Fore
SplineSet
240 306 m 0
 170 306 112 248 112 178 c 0
 112 108 170 50 240 50 c 0
 310 50 368 108 368 178 c 0
 368 248 310 306 240 306 c 0
396 289 m 1
 418 258 432 220 432 178 c 0
 432 72 346 -14 240 -14 c 0
 134 -14 48 72 48 178 c 0
 48 284 134 370 240 370 c 0
 282 370 320 356 351 334 c 1
 472 450 l 1
 352 450 l 1
 352 514 l 1
 576 514 l 1
 576 290 l 1
 512 290 l 1
 512 410 l 1
 396 289 l 1
EndSplineSet
LCarets2: 3 -48 -48 -48
MultipleSubs2: "CCMP cartouches" t.mije cart.body
Ligature2: "LIGA basics" m i j e
EndChar

StartChar: t.moku
Encoding: 155 989494 56
GlifName: t.moku
Width: 640
GlyphClass: 1
Flags: W
HStem: 0 13G<166 240 464 528> 224 96<299 405> 448 64<224 480>
VStem: 160 64<391 448> 176 64<104 165> 464 64<0 165> 480 64<391 448>
LayerCount: 2
Fore
SplineSet
160 512 m 1xf0
 544 512 l 1
 544 512 544 484 544 465 c 0
 544 455 544 448 544 448 c 0xf2
 544 369 495 300 427 271 c 1
 487 243 528 182 528 112 c 2
 528 0 l 1
 464 0 l 1
 464 112 l 2
 464 174 414 224 352 224 c 0
 290 224 240 174 240 112 c 2
 240 0 l 1
 176 0 l 1
 80 128 l 1
 131 166 l 1
 176 104 l 1
 176 112 l 2xec
 176 182 217 243 277 271 c 1
 209 300 160 369 160 448 c 2
 160 512 l 1xf0
224 448 m 1
 224 378 282 320 352 320 c 0
 422 320 480 378 480 448 c 1
 224 448 l 1
EndSplineSet
LCarets2: 3 -48 -48 -48
MultipleSubs2: "CCMP cartouches" t.moku cart.body
Ligature2: "LIGA basics" m o k u
EndChar

StartChar: t.moli
Encoding: 156 989495 57
GlifName: t.moli
Width: 640
GlyphClass: 1
Flags: W
HStem: 89 61<155 186 454 485> 114 64<197 443>
LayerCount: 2
Fore
SplineSet
320 178 m 0x40
 384 178 445 169 503 150 c 1
 484 89 l 1x80
 432 106 377 114 320 114 c 0x40
 263 114 208 106 156 89 c 0
 137 150 l 1x80
 195 169 256 178 320 178 c 0x40
367 422 m 1
 412 467 l 1
 480 399 l 1
 548 467 l 1
 593 422 l 1
 525 354 l 1
 593 286 l 1
 548 241 l 1
 480 308 l 1
 412 241 l 1
 367 286 l 1
 435 354 l 1
 367 422 l 1
47 422 m 1
 92 467 l 1
 160 399 l 1
 228 467 l 1
 273 422 l 1
 205 354 l 1
 273 286 l 1
 228 241 l 1
 160 308 l 1
 92 241 l 1
 47 286 l 1
 115 354 l 1
 47 422 l 1
EndSplineSet
LCarets2: 3 -48 -48 -48
MultipleSubs2: "CCMP cartouches" t.moli cart.body
Ligature2: "LIGA basics" m o l i
EndChar

StartChar: t.monsi
Encoding: 157 989496 58
GlifName: t.monsi
Width: 640
GlyphClass: 1
Flags: W
HStem: 2 64<336 512> 210 96<159 225> 450 64<336 512>
VStem: 144 96<225 291> 272 64<66 450>
LayerCount: 2
Fore
SplineSet
144 258 m 0
 144 284 166 306 192 306 c 0
 218 306 240 284 240 258 c 0
 240 232 218 210 192 210 c 0
 166 210 144 232 144 258 c 0
512 514 m 1
 512 450 l 1
 336 450 l 1
 336 66 l 1
 512 66 l 1
 512 2 l 1
 272 2 l 1
 272 514 l 1
 512 514 l 1
EndSplineSet
LCarets2: 4 -48 -48 -48 -48
MultipleSubs2: "CCMP cartouches" t.monsi cart.body
Ligature2: "LIGA basics" m o n s i
EndChar

StartChar: t.mu
Encoding: 158 989497 59
GlifName: t.mu
Width: 640
GlyphClass: 1
Flags: W
HStem: -14 64<256 384> 98 96<287 353> 386 64<284 356> 482 64<121 199 441 519>
VStem: 32 64<379 457> 88 64<154 284> 272 96<113 179> 488 64<154 284> 544 64<379 457>
LayerCount: 2
Fore
SplineSet
320 194 m 0xf2
 346 194 368 172 368 146 c 0
 368 120 346 98 320 98 c 0
 294 98 272 120 272 146 c 0
 272 172 294 194 320 194 c 0xf2
320 386 m 0
 227 386 152 311 152 218 c 0
 152 125 227 50 320 50 c 0
 413 50 488 125 488 218 c 0xf7
 488 311 413 386 320 386 c 0
480 482 m 0
 449 482 422 459 417 429 c 1
 452 413 481 389 504 359 c 1
 527 369 544 391 544 418 c 0xf280
 544 453 515 482 480 482 c 0
160 482 m 0
 125 482 96 453 96 418 c 0xfa
 96 391 113 369 136 359 c 1
 159 389 188 413 223 429 c 1
 218 459 191 482 160 482 c 0
160 546 m 0
 221 546 272 503 285 447 c 1
 297 449 308 450 320 450 c 0
 332 450 343 449 355 447 c 1
 368 503 419 546 480 546 c 0
 550 546 608 488 608 418 c 0xfa80
 608 367 579 323 536 303 c 1
 546 277 552 248 552 218 c 0
 552 90 448 -14 320 -14 c 0
 192 -14 88 90 88 218 c 0xf7
 88 248 94 277 104 303 c 1
 61 323 32 367 32 418 c 0
 32 488 90 546 160 546 c 0
EndSplineSet
LCarets2: 1 -48
MultipleSubs2: "CCMP cartouches" t.mu cart.body
Ligature2: "LIGA basics" m u
EndChar

StartChar: t.mun
Encoding: 159 989498 60
GlifName: t.mun
Width: 640
GlyphClass: 1
Flags: W
HStem: -16 64<239 385> 464 64<239 385>
VStem: 280 64<198 314> 520 64<183 329>
LayerCount: 2
Fore
SplineSet
312 464 m 0
 276 464 241 454 212 438 c 1
 289 413 344 341 344 256 c 0
 344 171 289 99 212 74 c 1
 241 58 276 48 312 48 c 0
 427 48 520 141 520 256 c 0
 520 371 427 464 312 464 c 0
312 528 m 0
 462 528 584 406 584 256 c 0
 584 106 462 -16 312 -16 c 0
 235 -16 165 16 116 67 c 0
 87 97 65 135 52 176 c 1
 74 148 109 129 148 128 c 0
 149 128 151 128 152 128 c 0
 222 128 280 186 280 256 c 0
 280 326 222 384 152 384 c 0
 151 384 149 384 148 384 c 0
 109 383 74 364 52 336 c 1
 65 377 87 415 116 445 c 0
 165 496 235 528 312 528 c 0
EndSplineSet
LCarets2: 2 0 0
MultipleSubs2: "CCMP cartouches" t.mun cart.body
Ligature2: "LIGA basics" m u n
EndChar

StartChar: t.musi
Encoding: 160 989499 61
GlifName: t.musi
Width: 640
GlyphClass: 1
Flags: W
HStem: -32 64<253 387> 288 64<158 197 443 482> 480 64<121 199 441 519>
VStem: 32 64<377 455> 80 64<141 277> 224 64<378 455> 352 64<377 455> 496 64<141 277> 544 64<377 455>
LayerCount: 2
Fore
SplineSet
480 480 m 0xe680
 445 480 416 451 416 416 c 0
 416 381 445 352 480 352 c 0
 515 352 544 381 544 416 c 0
 544 451 515 480 480 480 c 0xe680
160 480 m 0
 125 480 96 451 96 416 c 0xf6
 96 381 125 352 160 352 c 0
 195 352 224 381 224 416 c 0
 224 451 195 480 160 480 c 0
160 544 m 2
 230 544 288 486 288 416 c 0
 288 346 232 291 163 288 c 1
 151 264 144 237 144 208 c 0
 144 111 223 32 320 32 c 0
 417 32 496 111 496 208 c 0xef
 496 237 489 264 477 288 c 1
 408 290 352 346 352 416 c 0
 352 486 410 544 480 544 c 0
 550 544 608 486 608 416 c 0xe680
 608 367 580 325 540 303 c 1
 553 274 560 242 560 208 c 2
 560 76 452 -32 320 -32 c 0
 188 -32 80 76 80 208 c 0xef
 80 242 87 274 100 303 c 1
 60 325 32 367 32 416 c 0
 32 486 90 544 160 544 c 2
EndSplineSet
LCarets2: 3 0 0 0
MultipleSubs2: "CCMP cartouches" t.musi cart.body
Ligature2: "LIGA basics" m u s i
EndChar

StartChar: t.mute
Encoding: 161 989500 62
GlifName: t.mute
Width: 640
GlyphClass: 1
Flags: W
HStem: 0 13G<128 192 288 352 448 512> 499 13G<128 192 288 352 448 512>
VStem: 128 64<0 512> 288 64<0 512> 448 64<0 512>
CounterMasks: 1 38
LayerCount: 2
Fore
SplineSet
448 0 m 1
 448 512 l 1
 512 512 l 1
 512 0 l 1
 448 0 l 1
128 0 m 1
 128 512 l 1
 192 512 l 1
 192 0 l 1
 128 0 l 1
288 0 m 1
 288 512 l 1
 352 512 l 1
 352 0 l 1
 288 0 l 1
EndSplineSet
LCarets2: 3 -48 -48 -48
MultipleSubs2: "CCMP cartouches" t.mute cart.body
Ligature2: "LIGA basics" m u t e
EndChar

StartChar: t.nanpa
Encoding: 162 989501 63
GlifName: t.nanpa
Width: 640
GlyphClass: 1
Flags: W
HStem: 128 64<48 192 256 384 448 592> 320 64<48 192 256 384 448 592>
VStem: 192 64<-16 128 192 320 384 528> 384 64<-16 128 192 320 384 528>
LayerCount: 2
Fore
SplineSet
448 384 m 1
 592 384 l 1
 592 320 l 1
 448 320 l 1
 448 192 l 1
 592 192 l 1
 592 128 l 1
 448 128 l 1
 448 -16 l 1
 384 -16 l 1
 384 128 l 1
 256 128 l 1
 256 -16 l 1
 192 -16 l 1
 192 128 l 1
 48 128 l 1
 48 192 l 1
 192 192 l 1
 192 320 l 1
 48 320 l 1
 48 384 l 1
 192 384 l 1
 192 528 l 1
 256 528 l 1
 256 384 l 1
 384 384 l 1
 384 528 l 1
 448 528 l 1
 448 384 l 1
384 320 m 1
 256 320 l 1
 256 192 l 1
 384 192 l 1
 384 320 l 1
EndSplineSet
LCarets2: 4 -48 -48 -48 -48
MultipleSubs2: "CCMP cartouches" t.nanpa cart.body
Ligature2: "LIGA basics" n a n p a
EndChar

StartChar: t.nasa
Encoding: 163 989502 64
GlifName: t.nasa
Width: 640
GlyphClass: 1
Flags: W
HStem: -32 64<304 384> 96 64<326 442> 352 64<281 359> 480 64<250 390>
VStem: 64 64<207 358> 192 64<230 327> 384 64<248 327> 512 64<230 358>
LayerCount: 2
Fore
SplineSet
320 544 m 0
 461 544 576 429 576 288 c 0
 576 182 490 96 384 96 c 0
 278 96 192 182 192 288 c 0
 192 358 250 416 320 416 c 0
 390 416 448 358 448 288 c 0
 448 254 434 222 410 198 c 1
 365 243 l 1
 377 255 384 271 384 288 c 0
 384 323 355 352 320 352 c 0
 285 352 256 323 256 288 c 0
 256 218 314 160 384 160 c 0
 454 160 512 218 512 288 c 0
 512 394 426 480 320 480 c 0
 214 480 128 394 128 288 c 0
 128 147 243 32 384 32 c 1
 384 -32 l 1
 207 -32 64 111 64 288 c 0
 64 429 179 544 320 544 c 0
EndSplineSet
LCarets2: 3 -48 -48 -48
MultipleSubs2: "CCMP cartouches" t.nasa cart.body
Ligature2: "LIGA basics" n a s a
EndChar

StartChar: t.nasin
Encoding: 164 989503 65
GlifName: t.nasin
Width: 640
GlyphClass: 1
Flags: W
HStem: 0 13G<288 352> 499 13G<288 352>
VStem: 288 64<0 296 384 512>
LayerCount: 2
Fore
SplineSet
288 512 m 1
 352 512 l 1
 352 384 l 1
 528 208 l 1
 480 160 l 1
 352 296 l 1
 352 0 l 1
 288 0 l 1
 288 296 l 1
 160 160 l 1
 112 208 l 1
 288 384 l 1
 288 512 l 1
EndSplineSet
LCarets2: 4 0 0 0 0
MultipleSubs2: "CCMP cartouches" t.nasin cart.body
Ligature2: "LIGA basics" n a s i n
EndChar

StartChar: t.nena
Encoding: 165 989504 66
GlifName: t.nena
Width: 640
GlyphClass: 1
Flags: W
HStem: 0 13G<112 176 464 528> 464 64<260 380>
VStem: 112 64<0 379> 464 64<0 379>
LayerCount: 2
Fore
SplineSet
320 528 m 0
 435 528 528 435 528 320 c 2
 528 0 l 1
 464 0 l 1
 464 320 l 2
 464 399 399 464 320 464 c 0
 241 464 176 399 176 320 c 2
 176 0 l 1
 112 0 l 1
 112 320 l 2
 112 435 205 528 320 528 c 0
EndSplineSet
LCarets2: 3 -48 -48 -48
MultipleSubs2: "CCMP cartouches" t.nena cart.body
Ligature2: "LIGA basics" n e n a
EndChar

StartChar: t.ni
Encoding: 166 989505 67
GlifName: t.ni
Width: 640
GlyphClass: 1
Flags: W
HStem: -8 13G<307 333> 499 13G<288 352>
VStem: 288 64<112 512>
LayerCount: 2
Fore
SplineSet
288 512 m 1
 352 512 l 1
 352 112 l 1
 480 248 l 1
 528 200 l 1
 320 -8 l 1
 112 200 l 1
 160 248 l 1
 288 112 l 1
 288 512 l 1
EndSplineSet
LCarets2: 2 0 0
Ligature2: "LIGA alternates" t.ni zero one
MultipleSubs2: "CCMP cartouches" t.ni cart.body
Ligature2: "LIGA basics" n i
EndChar

StartChar: t.nimi
Encoding: 167 989506 68
GlifName: t.nimi
Width: 640
GlyphClass: 1
Flags: W
HStem: 120 63<118 522> 328 64<118 522>
VStem: 48 64<189 323> 528 64<189 323>
LayerCount: 2
Fore
SplineSet
144 328 m 2
 126 328 112 314 112 296 c 2
 112 216 l 2
 112 198 126 184 144 184 c 2
 496 184 l 2
 514 184 528 198 528 216 c 2
 528 296 l 2
 528 314 514 328 496 328 c 2
 144 328 l 2
144 392 m 2
 496 392 l 2
 549 392 592 349 592 296 c 2
 592 216 l 2
 592 163 549 120 496 120 c 2
 144 120 l 2
 91 120 48 163 48 216 c 2
 48 296 l 2
 48 349 91 392 144 392 c 2
EndSplineSet
LCarets2: 3 -48 -48 -48
MultipleSubs2: "CCMP cartouches" t.nimi cart.body
Ligature2: "LIGA basics" n i m i
EndChar

StartChar: t.noka
Encoding: 168 989507 69
GlifName: t.noka
Width: 640
GlyphClass: 1
Flags: W
HStem: 0 64<176 459> 224 64<352 459> 499 13G<112 176 288 352>
VStem: 112 64<64 512> 288 64<288 512> 496 64<100 188>
LayerCount: 2
Fore
SplineSet
112 512 m 1
 176 512 l 1
 176 64 l 1
 416 64 l 2
 460 64 496 100 496 144 c 0
 496 188 460 224 416 224 c 2
 288 224 l 1
 288 512 l 1
 352 512 l 1
 352 288 l 1
 416 288 l 2
 495 288 560 223 560 144 c 0
 560 65 495 0 416 0 c 2
 112 0 l 1
 112 512 l 1
EndSplineSet
LCarets2: 3 -48 -48 -48
MultipleSubs2: "CCMP cartouches" t.noka cart.body
Ligature2: "LIGA basics" n o k a
EndChar

StartChar: t.o
Encoding: 169 989508 70
GlifName: t.o
Width: 640
GlyphClass: 1
Flags: W
HStem: -16 64<281 359> 176 64<281 359>
VStem: 192 64<73 151> 288 64<288 528> 384 64<73 151>
CounterMasks: 1 38
LayerCount: 2
Fore
SplineSet
320 176 m 0
 285 176 256 147 256 112 c 0
 256 77 285 48 320 48 c 0
 355 48 384 77 384 112 c 0
 384 147 355 176 320 176 c 0
320 240 m 0
 390 240 448 182 448 112 c 0
 448 42 390 -16 320 -16 c 0
 250 -16 192 42 192 112 c 0
 192 182 250 240 320 240 c 0
288 288 m 1
 288 528 l 1
 352 528 l 1
 352 288 l 1
 288 288 l 1
EndSplineSet
MultipleSubs2: "CCMP cartouches" t.o cart.body
Ligature2: "LIGA basics" o
EndChar

StartChar: t.olin
Encoding: 170 989509 71
GlifName: t.olin
Width: 640
GlyphClass: 1
Flags: W
HStem: 200 64<216 285 353 422> 488 64<216 285 353 422>
VStem: 143 64<125 191 413 479> 431 64<125 191 414 479>
LayerCount: 2
Fore
SplineSet
247 200 m 0
 223 200 207 184 207 160 c 0
 207 154 207 136 227 119 c 2
 319 40 l 1
 410 119 l 2
 422 129 431 143 431 160 c 0
 431 184 415 200 391 200 c 0
 351 200 335 168 319 136 c 1
 303 168 287 200 247 200 c 0
247 264 m 0
 275 264 303 248 319 224 c 1
 335 248 363 264 391 264 c 0
 449 264 495 218 495 160 c 0
 495 127 480 98 456 79 c 2
 319 -32 l 1
 182 79 l 2
 158 98 143 127 143 160 c 0
 143 218 189 264 247 264 c 0
247 488 m 0
 223 488 207 472 207 448 c 0
 207 442 207 424 227 407 c 2
 319 328 l 1
 410 407 l 2
 422 418 431 432 431 448 c 0
 431 472 415 488 391 488 c 0
 351 488 335 456 319 424 c 1
 303 456 287 488 247 488 c 0
247 552 m 0
 275 552 303 536 319 512 c 1
 335 536 363 552 391 552 c 0
 449 552 495 506 495 448 c 0
 495 415 480 386 456 367 c 2
 319 256 l 1
 182 367 l 2
 158 386 143 415 143 448 c 0
 143 506 189 552 247 552 c 0
EndSplineSet
MultipleSubs2: "CCMP cartouches" t.olin cart.body
LCarets2: 3 -47 -47 -47
Ligature2: "LIGA basics" o l i n
EndChar

StartChar: t.ona
Encoding: 171 989510 72
GlifName: t.ona
Width: 640
GlyphClass: 1
Flags: W
HStem: 112 64<397 484> 336 64<396 484>
VStem: 296 64<211 300> 520 63<212 300>
LayerCount: 2
Fore
SplineSet
440 336 m 0
 396 336 360 300 360 256 c 0
 360 212 396 176 440 176 c 0
 484 176 520 212 520 256 c 0
 520 300 484 336 440 336 c 0
440 400 m 0
 519 400 584 335 584 256 c 0
 584 177 519 112 440 112 c 0
 297 112 161 171 64 276 c 1
 111 320 l 1
 165 261 233 218 309 195 c 1
 301 214 296 234 296 256 c 0
 296 335 361 400 440 400 c 0
EndSplineSet
LCarets2: 2 0 0
MultipleSubs2: "CCMP cartouches" t.ona cart.body
Ligature2: "LIGA basics" o n a
EndChar

StartChar: t.open
Encoding: 172 989511 73
GlifName: t.open
Width: 640
GlyphClass: 1
Flags: W
HStem: 0 64<176 464> 160 64<176 464> 499 13G<112 176 464 528>
VStem: 112 64<64 160 224 512> 464 64<64 160 224 512>
LayerCount: 2
Fore
SplineSet
112 512 m 1
 176 512 l 1
 176 416 176 320 176 224 c 1
 464 224 l 1
 464 320 464 416 464 512 c 1
 528 512 l 1
 528 0 l 1
 112 0 l 1
 112 512 l 1
176 160 m 1
 176 128 176 96 176 64 c 1
 464 64 l 1
 464 96 464 128 464 160 c 1
 176 160 l 1
EndSplineSet
LCarets2: 3 -48 -48 -48
MultipleSubs2: "CCMP cartouches" t.open cart.body
Ligature2: "LIGA basics" o p e n
EndChar

StartChar: t.pakala
Encoding: 173 989512 74
GlifName: t.pakala
Width: 640
GlyphClass: 1
Flags: W
HStem: 0 64<160 246 320 480> 224 64<302 338> 448 64<160 320 394 480>
VStem: 96 64<64 448> 480 64<64 448>
CounterMasks: 1 e0
LayerCount: 2
Fore
SplineSet
394 448 m 1
 302 288 l 1
 448 288 l 1
 320 64 l 1
 480 64 l 1
 480 448 l 1
 394 448 l 1
160 448 m 1
 160 64 l 1
 246 64 l 1
 338 224 l 1
 192 224 l 1
 320 448 l 1
 160 448 l 1
96 512 m 1
 544 512 l 1
 544 0 l 1
 96 0 l 1
 96 512 l 1
EndSplineSet
LCarets2: 5 -48 -48 -48 -48 -48
MultipleSubs2: "CCMP cartouches" t.pakala cart.body
Ligature2: "LIGA basics" p a k a l a
EndChar

StartChar: t.pali
Encoding: 174 989513 75
GlifName: t.pali
Width: 640
GlyphClass: 1
Flags: W
HStem: 0 13G<166 240 464 528> 208 80<306 398> 464 64<306 398>
VStem: 200 64<329 423> 440 64<329 423> 464 64<0 149>
LayerCount: 2
Fore
SplineSet
352 464 m 0xf8
 303 464 264 425 264 376 c 0
 264 327 303 288 352 288 c 0
 401 288 440 327 440 376 c 0
 440 425 401 464 352 464 c 0xf8
352 528 m 0
 436 528 504 460 504 376 c 0xf8
 504 324 477 278 437 250 c 1
 491 220 528 163 528 96 c 2
 528 0 l 1
 464 0 l 1
 464 96 l 2xf4
 464 158 414 208 352 208 c 0
 290 208 240 158 240 96 c 2
 240 0 l 1
 176 0 l 1
 80 128 l 1
 131 166 l 1
 176 107 l 1
 176 106 l 1
 180 168 216 222 267 250 c 1
 227 278 200 324 200 376 c 0
 200 460 268 528 352 528 c 0
EndSplineSet
LCarets2: 3 -48 -48 -48
MultipleSubs2: "CCMP cartouches" t.pali cart.body
Ligature2: "LIGA basics" p a l i
EndChar

StartChar: t.palisa
Encoding: 175 989514 76
GlifName: t.palisa
Width: 640
GlyphClass: 1
Flags: W
HStem: -16 64<287 353> 464 64<287 353>
VStem: 208 64<63 449> 368 64<63 449>
LayerCount: 2
Fore
SplineSet
320 464 m 0
 294 464 272 442 272 416 c 2
 272 96 l 2
 272 70 294 48 320 48 c 0
 346 48 368 70 368 96 c 2
 368 416 l 2
 368 442 346 464 320 464 c 0
320 528 m 0
 382 528 432 478 432 416 c 2
 432 96 l 2
 432 34 382 -16 320 -16 c 0
 258 -16 208 34 208 96 c 2
 208 416 l 2
 208 478 258 528 320 528 c 0
EndSplineSet
LCarets2: 5 -48 -48 -48 -48 -48
MultipleSubs2: "CCMP cartouches" t.palisa cart.body
Ligature2: "LIGA basics" p a l i s a
EndChar

StartChar: t.pan
Encoding: 176 989515 77
GlifName: t.pan
Width: 640
GlyphClass: 1
Flags: W
LayerCount: 2
Fore
SplineSet
191 371 m 1
 320 216 l 1
 449 371 l 1
 496 328 l 1
 320 136 l 1
 144 328 l 1
 191 371 l 1
191 531 m 1
 320 376 l 1
 449 531 l 1
 496 488 l 1
 320 296 l 1
 144 488 l 1
 191 531 l 1
191 211 m 1
 320 56 l 1
 449 211 l 1
 496 168 l 1
 320 -24 l 1
 144 168 l 1
 191 211 l 1
EndSplineSet
LCarets2: 2 -48 -48
MultipleSubs2: "CCMP cartouches" t.pan cart.body
Ligature2: "LIGA basics" p a n
EndChar

StartChar: t.pana
Encoding: 177 989516 78
GlifName: t.pana
Width: 640
GlyphClass: 1
Flags: W
HStem: 0 13G<166 240 464 528> 288 64<299 405> 358 13G<216 245 459 488>
VStem: 176 64<107 228> 320 64<400 528> 464 64<0 228>
LayerCount: 2
Fore
SplineSet
352 352 m 0
 449 352 528 273 528 176 c 2
 528 0 l 1
 464 0 l 1
 464 176 l 2
 464 238 414 288 352 288 c 0
 290 288 240 238 240 176 c 2
 240 4 l 2
 240 3 240 1 240 0 c 1
 176 0 l 1
 80 128 l 1
 131 166 l 1
 176 107 l 1
 176 176 l 2
 176 273 255 352 352 352 c 0
488 501 m 1
 544 470 l 1
 481 358 l 1
 426 389 l 1
 488 501 l 1
216 501 m 1
 278 389 l 1
 223 358 l 1
 160 470 l 1
 216 501 l 1
320 528 m 1
 384 528 l 1
 384 400 l 1
 320 400 l 1
 320 528 l 1
EndSplineSet
LCarets2: 3 -48 -48 -48
MultipleSubs2: "CCMP cartouches" t.pana cart.body
Ligature2: "LIGA basics" p a n a
EndChar

StartChar: t.pi
Encoding: 178 989517 79
GlifName: t.pi
Width: 640
GlyphClass: 1
Flags: W
HStem: 0 64<160 576> 499 13G<96 160>
VStem: 96 64<64 512>
LayerCount: 2
Fore
SplineSet
96 512 m 1
 160 512 l 1
 160 64 l 1
 576 64 l 1
 576 0 l 1
 96 0 l 1
 96 512 l 1
EndSplineSet
LCarets2: 1 -48
MultipleSubs2: "CCMP cartouches" t.pi cart.body
Ligature2: "LIGA basics" p i
EndChar

StartChar: t.pilin
Encoding: 179 989518 80
GlifName: t.pilin
Width: 640
GlyphClass: 1
Flags: W
HStem: 448 64<154 239 401 487>
VStem: 48 64<313 406> 528 64<313 406>
LayerCount: 2
Fore
SplineSet
200 448 m 0
 151 448 112 409 112 360 c 0
 112 338 120 318 133 303 c 2
 320 83 l 1
 507 303 l 2
 520 318 528 338 528 360 c 0
 528 409 489 448 440 448 c 0
 391 448 352 384 320 336 c 1
 288 384 249 448 200 448 c 0
200 512 m 0
 247 512 296 480 320 432 c 1
 344 480 393 512 440 512 c 0
 524 512 592 444 592 360 c 0
 592 322 578 288 556 262 c 2
 320 -16 l 1
 84 262 l 2
 62 288 48 322 48 360 c 0
 48 444 116 512 200 512 c 0
EndSplineSet
LCarets2: 4 -48 -48 -48 -48
MultipleSubs2: "CCMP cartouches" t.pilin cart.body
Ligature2: "LIGA basics" p i l i n
EndChar

StartChar: t.pimeja
Encoding: 180 989519 81
GlifName: t.pimeja
Width: 640
GlyphClass: 1
Flags: W
HStem: 0 64<152 163 253 387 477 488>
LayerCount: 2
Fore
SplineSet
320 544 m 1
 592 0 l 1
 48 0 l 1
 320 544 l 1
230 221 m 1
 152 64 l 1
 163 64 l 1
 275 176 l 1
 230 221 l 1
253 64 m 1
 387 64 l 1
 320 131 l 1
 253 64 l 1
477 64 m 1
 488 64 l 1
 410 221 l 1
 365 176 l 1
 477 64 l 1
380 281 m 1
 320 401 l 1
 260 281 l 1
 320 221 l 1
 380 281 l 1
EndSplineSet
LCarets2: 5 -48 -48 -48 -48 -48
MultipleSubs2: "CCMP cartouches" t.pimeja cart.body
Ligature2: "LIGA basics" p i m e j a
EndChar

StartChar: t.pini
Encoding: 181 989520 82
GlifName: t.pini
Width: 640
GlyphClass: 1
Flags: W
HStem: 0 64<160 288 352 480> 448 64<160 288 352 480>
VStem: 288 64<64 448>
LayerCount: 2
Fore
SplineSet
480 448 m 1
 352 448 l 1
 352 64 l 1
 480 64 l 1
 480 0 l 1
 160 0 l 1
 160 64 l 1
 288 64 l 1
 288 448 l 1
 160 448 l 1
 160 512 l 1
 480 512 l 1
 480 448 l 1
EndSplineSet
LCarets2: 3 0 0 0
MultipleSubs2: "CCMP cartouches" t.pini cart.body
Ligature2: "LIGA basics" p i n i
EndChar

StartChar: t.pipi
Encoding: 182 989521 83
GlifName: t.pipi
Width: 640
GlyphClass: 1
Flags: W
HStem: 64 64<160 288 352 480> 192 64<160 288 352 480> 320 64<160 288 352 480> 464 80<186 246 394 454>
VStem: 176 80<474 534> 288 64<-16 64 128 192 256 320 384 464> 384 80<474 534>
CounterMasks: 1 0e
LayerCount: 2
Fore
SplineSet
160 64 m 1
 160 128 l 1
 288 128 l 1
 288 192 l 1
 160 192 l 1
 160 256 l 1
 288 256 l 1
 288 320 l 1
 160 320 l 1
 160 384 l 1
 288 384 l 1
 288 464 l 1
 352 464 l 1
 352 384 l 1
 480 384 l 1
 480 320 l 1
 352 320 l 1
 352 256 l 1
 480 256 l 1
 480 192 l 1
 352 192 l 1
 352 128 l 1
 480 128 l 1
 480 64 l 1
 352 64 l 1
 352 -16 l 1
 288 -16 l 1
 288 64 l 1
 160 64 l 1
384 504 m 0
 384 526 402 544 424 544 c 0
 446 544 464 526 464 504 c 0
 464 482 446 464 424 464 c 0
 402 464 384 482 384 504 c 0
176 504 m 0
 176 526 194 544 216 544 c 0
 238 544 256 526 256 504 c 0
 256 482 238 464 216 464 c 0
 194 464 176 482 176 504 c 0
EndSplineSet
LCarets2: 3 -48 -48 -48
MultipleSubs2: "CCMP cartouches" t.pipi cart.body
Ligature2: "LIGA basics" p i p i
EndChar

StartChar: t.poka
Encoding: 183 989522 84
GlifName: t.poka
Width: 640
GlyphClass: 1
Flags: W
HStem: 128 64<112 400> 208 96<511 577>
VStem: 48 64<192 384> 400 64<192 384> 496 96<223 289>
LayerCount: 2
Fore
SplineSet
496 256 m 0
 496 282 518 304 544 304 c 0
 570 304 592 282 592 256 c 0
 592 230 570 208 544 208 c 0
 518 208 496 230 496 256 c 0
48 384 m 1
 112 384 l 1
 112 192 l 1
 400 192 l 1
 400 384 l 1
 464 384 l 1
 464 128 l 1
 48 128 l 1
 48 384 l 1
EndSplineSet
LCarets2: 3 -48 -48 -48
MultipleSubs2: "CCMP cartouches" t.poka cart.body
Ligature2: "LIGA basics" p o k a
EndChar

StartChar: t.poki
Encoding: 184 989523 85
GlifName: t.poki
Width: 640
GlyphClass: 1
Flags: W
HStem: 0 64<176 464> 499 13G<112 176 464 528>
VStem: 112 64<64 512> 464 64<64 512>
LayerCount: 2
Fore
SplineSet
112 512 m 1
 176 512 l 1
 176 64 l 1
 464 64 l 1
 464 512 l 1
 528 512 l 1
 528 0 l 1
 112 0 l 1
 112 512 l 1
EndSplineSet
LCarets2: 3 -48 -48 -48
MultipleSubs2: "CCMP cartouches" t.poki cart.body
Ligature2: "LIGA basics" p o k i
EndChar

StartChar: t.pona
Encoding: 185 989524 86
GlifName: t.pona
Width: 640
GlyphClass: 1
Flags: W
HStem: 96 64<250 390> 339 13G<64 128 512 576>
VStem: 64 64<282 352> 512 64<282 352>
LayerCount: 2
Fore
SplineSet
320 96 m 0
 179 96 64 211 64 352 c 1
 128 352 l 1
 128 246 214 160 320 160 c 0
 426 160 512 246 512 352 c 1
 576 352 l 1
 576 211 461 96 320 96 c 0
EndSplineSet
LCarets2: 3 -48 -48 -48
MultipleSubs2: "CCMP cartouches" t.pona cart.body
Ligature2: "LIGA basics" p o n a
EndChar

StartChar: t.pu
Encoding: 186 989525 87
GlifName: t.pu
Width: 640
GlyphClass: 1
Flags: W
HStem: 0 64<176 464> 72 49<276 364> 280 47<276 364> 352 80<296 344> 448 64<176 464>
VStem: 112 64<64 448> 192 48<155 244> 296 49<352 432> 400 48<155 244> 464 64<64 448>
LayerCount: 2
Fore
SplineSet
320 280 m 0
 276 280 240 244 240 200 c 0
 240 156 276 120 320 120 c 0
 364 120 400 156 400 200 c 0
 400 244 364 280 320 280 c 0
320 328 m 0
 390 328 448 270 448 200 c 0
 448 130 390 72 320 72 c 0
 250 72 192 130 192 200 c 0
 192 270 250 328 320 328 c 0
176 448 m 1
 176 64 l 1
 464 64 l 1
 464 448 l 1
 176 448 l 1
112 512 m 1
 528 512 l 1
 528 0 l 1
 112 0 l 1
 112 512 l 1
266 344 m 1
 225 319 l 1
 184 388 l 1
 225 412 l 1
 266 344 l 1
374 344 m 1
 415 412 l 1
 456 388 l 1
 415 319 l 1
 374 344 l 1
296 352 m 1
 296 432 l 1
 344 432 l 1
 344 352 l 1
 296 352 l 1
EndSplineSet
LCarets2: 1 -48
MultipleSubs2: "CCMP cartouches" t.pu cart.body
Ligature2: "LIGA basics" p u
EndChar

StartChar: t.sama
Encoding: 187 989526 88
GlifName: t.sama
Width: 640
GlyphClass: 1
Flags: W
HStem: 128 64<96 544> 320 64<96 544>
LayerCount: 2
Fore
SplineSet
96 192 m 1
 544 192 l 1
 544 128 l 1
 96 128 l 1
 96 192 l 1
96 384 m 1
 544 384 l 1
 544 320 l 1
 96 320 l 1
 96 384 l 1
EndSplineSet
LCarets2: 3 -48 -48 -48
MultipleSubs2: "CCMP cartouches" t.sama cart.body
Ligature2: "LIGA basics" s a m a
EndChar

StartChar: t.seli
Encoding: 188 989527 89
GlifName: t.seli
Width: 640
GlyphClass: 1
Flags: W
HStem: 32 96<287 353>
VStem: 272 96<47 113> 288 64<176 480>
LayerCount: 2
Fore
SplineSet
257 168 m 1x80
 199 140 l 1
 64 413 l 1
 122 441 l 1
 257 168 l 1x80
383 168 m 1
 518 441 l 1
 576 413 l 1
 441 140 l 1
 383 168 l 1
272 80 m 0xc0
 272 106 294 128 320 128 c 0
 346 128 368 106 368 80 c 0
 368 54 346 32 320 32 c 0
 294 32 272 54 272 80 c 0xc0
288 176 m 1xa0
 288 480 l 1
 352 480 l 1
 352 176 l 1
 288 176 l 1xa0
EndSplineSet
LCarets2: 3 -48 -48 -48
MultipleSubs2: "CCMP cartouches" t.seli cart.body
Ligature2: "LIGA basics" s e l i
EndChar

StartChar: t.selo
Encoding: 189 989528 90
GlifName: t.selo
Width: 640
GlyphClass: 1
Flags: W
HStem: 144 224<64 128 176 240 400 464 512 576> 304 64<128 176 240 400 464 512>
VStem: 64 64<144 304> 176 64<144 304> 400 64<144 304> 512 64<144 304>
LayerCount: 2
Fore
SplineSet
64 368 m 1xbc
 576 368 l 1
 576 144 l 1
 512 144 l 1xbc
 512 304 l 1
 464 304 l 1x7c
 464 144 l 1
 400 144 l 1xbc
 400 304 l 1
 240 304 l 1x7c
 240 144 l 1
 176 144 l 1xbc
 176 304 l 1
 128 304 l 1x7c
 128 144 l 1
 64 144 l 1
 64 368 l 1xbc
EndSplineSet
LCarets2: 3 -48 -48 -48
MultipleSubs2: "CCMP cartouches" t.selo cart.body
Ligature2: "LIGA basics" s e l o
EndChar

StartChar: t.seme
Encoding: 190 989529 91
GlifName: t.seme
Width: 640
GlyphClass: 1
Flags: W
HStem: -8 96<287 353> 208 64<353 405> 448 64<234 405>
VStem: 129 63<374 406> 272 96<7 73> 288 64<152 207> 448 64<315 405>
LayerCount: 2
Fore
SplineSet
320 88 m 0xfa
 346 88 368 66 368 40 c 0
 368 14 346 -8 320 -8 c 0
 294 -8 272 14 272 40 c 0
 272 66 294 88 320 88 c 0xfa
280 512 m 2
 360 512 l 2
 444 512 512 444 512 360 c 0
 512 276 444 208 360 208 c 0
 356 208 352 204 352 200 c 2
 352 152 l 1
 288 152 l 1
 288 200 l 2xf6
 288 240 320 272 360 272 c 0
 409 272 448 311 448 360 c 2
 448 360 l 2
 448 409 409 448 360 448 c 2
 280 448 l 2
 233 448 195 411 192 365 c 1
 129 374 l 1
 136 451 201 512 280 512 c 2
EndSplineSet
LCarets2: 3 0 0 0
MultipleSubs2: "CCMP cartouches" t.seme cart.body
Ligature2: "LIGA basics" s e m e
EndChar

StartChar: t.sewi
Encoding: 191 989530 92
GlifName: t.sewi
Width: 640
GlyphClass: 1
Flags: W
HStem: -16 64<48 93 198 250 326 378> 0 13G<512 576> 499 13G<512 576>
VStem: 128 64<83 224> 256 64<53 320> 384 64<54 416> 512 64<0 512>
LayerCount: 2
Fore
SplineSet
512 512 m 1x7e
 576 512 l 1
 576 0 l 1
 512 0 l 1
 512 512 l 1x7e
384 416 m 1
 448 416 l 1
 448 80 l 2
 448 27 405 -16 352 -16 c 0
 328 -16 305 -7 288 8 c 1
 271 -7 248 -16 224 -16 c 0
 192 -16 164 -1 147 23 c 1
 121 -1 86 -16 48 -16 c 1
 48 48 l 1
 92 48 128 84 128 128 c 0
 128 131 127 133 127 136 c 1
 128 136 l 1
 128 224 l 1
 192 224 l 1
 192 80 l 2
 192 62 206 48 224 48 c 0
 242 48 256 62 256 80 c 2
 256 320 l 1
 320 320 l 1
 320 80 l 2
 320 62 334 48 352 48 c 0xbe
 370 48 384 62 384 80 c 2
 384 416 l 1
EndSplineSet
Ligature2: "LIGA alternates" t.sewi zero one
LCarets2: 3 -48 -48 -48
MultipleSubs2: "CCMP cartouches" t.sewi cart.body
Ligature2: "LIGA basics" s e w i
EndChar

StartChar: t.sijelo
Encoding: 192 989531 93
GlifName: t.sijelo
Width: 640
GlyphClass: 1
Flags: W
HStem: 384 64<144 288 352 496>
VStem: 80 64<64 384> 288 64<64 384> 496 64<64 384>
LayerCount: 2
Fore
SplineSet
80 448 m 1
 560 448 l 1
 560 64 l 1
 496 64 l 1
 496 384 l 1
 352 384 l 1
 352 64 l 1
 288 64 l 1
 288 384 l 1
 144 384 l 1
 144 64 l 1
 80 64 l 1
 80 448 l 1
EndSplineSet
LCarets2: 5 -48 -48 -48 -48 -48
MultipleSubs2: "CCMP cartouches" t.sijelo cart.body
Ligature2: "LIGA basics" s i j e l o
EndChar

StartChar: t.sike
Encoding: 193 989532 94
GlifName: t.sike
Width: 640
GlyphClass: 1
Flags: W
HStem: -16 64<263 409> 112 64<292 380> 336 64<292 380> 464 64<263 409>
VStem: 64 64<183 329> 192 64<212 300> 416 64<212 300> 544 64<183 329>
LayerCount: 2
Fore
SplineSet
336 464 m 0
 221 464 128 371 128 256 c 0
 128 141 221 48 336 48 c 0
 451 48 544 141 544 256 c 0
 544 371 451 464 336 464 c 0
336 528 m 0
 486 528 608 406 608 256 c 0
 608 106 486 -16 336 -16 c 0
 186 -16 64 106 64 256 c 0
 64 406 186 528 336 528 c 0
336 336 m 0
 292 336 256 300 256 256 c 0
 256 212 292 176 336 176 c 0
 380 176 416 212 416 256 c 0
 416 300 380 336 336 336 c 0
336 400 m 0
 415 400 480 335 480 256 c 0
 480 177 415 112 336 112 c 0
 257 112 192 177 192 256 c 0
 192 335 257 400 336 400 c 0
EndSplineSet
LCarets2: 3 -48 -48 -48
MultipleSubs2: "CCMP cartouches" t.sike cart.body
Ligature2: "LIGA basics" s i k e
EndChar

StartChar: t.sin
Encoding: 194 989533 95
GlifName: t.sin
Width: 640
GlyphClass: 1
Flags: W
HStem: 160 64<64 256 384 576>
VStem: 288 64<256 448>
LayerCount: 2
Fore
SplineSet
288 448 m 1
 352 448 l 1
 352 256 l 1
 288 256 l 1
 288 448 l 1
384 160 m 1
 384 224 l 1
 576 224 l 1
 576 160 l 1
 384 160 l 1
64 160 m 1
 64 224 l 1
 256 224 l 1
 256 160 l 1
 64 160 l 1
EndSplineSet
LCarets2: 2 -48 -48
MultipleSubs2: "CCMP cartouches" t.sin cart.body
Ligature2: "LIGA basics" s i n
EndChar

StartChar: t.sina
Encoding: 195 989534 96
GlifName: t.sina
Width: 640
GlyphClass: 1
Flags: W
HStem: 0 64<276 364> 224 64<275 364>
VStem: 176 64<100 186> 400 64<100 188>
LayerCount: 2
Fore
SplineSet
400 144 m 0
 400 188 364 224 320 224 c 0
 276 224 240 188 240 144 c 0
 240 100 276 64 320 64 c 0
 364 64 400 100 400 144 c 0
464 144 m 0
 464 65 399 0 320 0 c 0
 241 0 176 65 176 144 c 0
 176 287 235 423 340 520 c 1
 384 473 l 1
 325 419 282 351 259 275 c 1
 278 283 298 288 320 288 c 0
 399 288 464 223 464 144 c 0
EndSplineSet
LCarets2: 3 0 0 0
MultipleSubs2: "CCMP cartouches" t.sina cart.body
Ligature2: "LIGA basics" s i n a
EndChar

StartChar: t.sinpin
Encoding: 196 989535 97
GlifName: t.sinpin
Width: 640
GlyphClass: 1
Flags: W
HStem: 0 64<144 320> 208 96<431 497> 448 64<144 320>
VStem: 320 64<64 448> 416 96<223 289>
LayerCount: 2
Fore
SplineSet
512 256 m 0
 512 230 490 208 464 208 c 0
 438 208 416 230 416 256 c 0
 416 282 438 304 464 304 c 0
 490 304 512 282 512 256 c 0
144 512 m 1
 384 512 l 1
 384 0 l 1
 144 0 l 1
 144 64 l 1
 320 64 l 1
 320 448 l 1
 144 448 l 1
 144 512 l 1
EndSplineSet
LCarets2: 5 -48 -48 -48 -48 -48
MultipleSubs2: "CCMP cartouches" t.sinpin cart.body
Ligature2: "LIGA basics" s i n p i n
EndChar

StartChar: t.sitelen
Encoding: 197 989536 98
GlifName: t.sitelen
Width: 640
GlyphClass: 1
Flags: W
HStem: 0 64<160 480> 216 80<193 254 289 350 385 446> 448 64<160 480>
VStem: 96 64<64 448> 184 80<225 286> 280 80<225 286> 376 80<225 286> 480 64<64 448>
LayerCount: 2
Fore
SplineSet
376 256 m 0
 376 278 394 296 416 296 c 0
 438 296 456 278 456 256 c 0
 456 234 438 216 416 216 c 0
 394 216 376 234 376 256 c 0
280 256 m 0
 280 278 298 296 320 296 c 0
 342 296 360 278 360 256 c 0
 360 234 342 216 320 216 c 0
 298 216 280 234 280 256 c 0
184 256 m 0
 184 278 202 296 224 296 c 0
 246 296 264 278 264 256 c 0
 264 234 246 216 224 216 c 0
 202 216 184 234 184 256 c 0
160 448 m 1
 160 64 l 1
 480 64 l 1
 480 448 l 1
 160 448 l 1
96 512 m 1
 544 512 l 1
 544 0 l 1
 96 0 l 1
 96 512 l 1
EndSplineSet
LCarets2: 6 -48 -48 -48 -48 -48 -48
MultipleSubs2: "CCMP cartouches" t.sitelen cart.body
Ligature2: "LIGA basics" s i t e l e n
EndChar

StartChar: t.sona
Encoding: 198 989537 99
GlifName: t.sona
Width: 640
GlyphClass: 1
Flags: W
HStem: 0 64<224 416> 272 64<224 416> 358 13G<184 213 427 456>
VStem: 160 64<64 272> 288 64<400 528> 416 64<64 272>
LayerCount: 2
Fore
SplineSet
246 389 m 1
 191 358 l 1
 128 470 l 1
 184 501 l 1
 246 389 l 1
394 389 m 1
 456 501 l 1
 512 470 l 1
 449 358 l 1
 394 389 l 1
288 400 m 1
 288 528 l 1
 352 528 l 1
 352 400 l 1
 288 400 l 1
224 272 m 1
 224 64 l 1
 416 64 l 1
 416 272 l 1
 224 272 l 1
160 336 m 1
 480 336 l 1
 480 0 l 1
 160 0 l 1
 160 336 l 1
EndSplineSet
LCarets2: 3 -48 -48 -48
MultipleSubs2: "CCMP cartouches" t.sona cart.body
Ligature2: "LIGA basics" s o n a
EndChar

StartChar: t.soweli
Encoding: 199 989538 100
GlifName: t.soweli
Width: 640
GlyphClass: 1
Flags: W
HStem: 0 192<48 112 160 224 272 336 384 447> 256 96<271 337> 288 96<399 465> 448 64<48 457>
VStem: 48 64<0 192> 160 64<0 192> 256 96<271 337> 272 64<0 192> 384 96<303 369> 384 64<0 138> 528 64<263 378>
LayerCount: 2
Fore
SplineSet
384 336 m 0xbca0
 384 362 406 384 432 384 c 0
 458 384 480 362 480 336 c 0
 480 310 458 288 432 288 c 0
 406 288 384 310 384 336 c 0xbca0
256 304 m 0xde20
 256 330 278 352 304 352 c 0
 330 352 352 330 352 304 c 0
 352 278 330 256 304 256 c 0
 278 256 256 278 256 304 c 0xde20
272 192 m 1x9d20
 336 192 l 1
 336 0 l 1
 272 0 l 1
 272 192 l 1x9d20
160 192 m 1
 224 192 l 1
 224 0 l 1
 160 0 l 1
 160 192 l 1
48 192 m 1
 112 192 l 1
 112 0 l 1
 48 0 l 1
 48 192 l 1
48 512 m 1
 400 512 l 2
 506 512 592 426 592 320 c 0
 592 230 531 155 448 134 c 1
 448 0 l 1
 384 0 l 1
 384 192 l 1x9c60
 400 192 l 2
 470 192 528 250 528 320 c 0
 528 390 470 448 400 448 c 2
 48 448 l 1
 48 512 l 1
EndSplineSet
LCarets2: 5 -48 -48 -48 -48 -48
MultipleSubs2: "CCMP cartouches" t.soweli cart.body
Ligature2: "LIGA basics" s o w e l i
EndChar

StartChar: t.suli
Encoding: 200 989539 101
GlifName: t.suli
Width: 640
GlyphClass: 1
Flags: W
HStem: 0 13G<273 367>
VStem: 292 55<0 58>
LayerCount: 2
Fore
SplineSet
122 525 m 1
 208 410 276 281 320 144 c 1
 364 281 432 410 518 525 c 1
 575 495 l 1
 463 350 386 179 348 0 c 1
 292 0 l 1
 254 179 177 350 65 495 c 1
 122 525 l 1
EndSplineSet
LCarets2: 3 0 0 0
MultipleSubs2: "CCMP cartouches" t.suli cart.body
Ligature2: "LIGA basics" s u l i
EndChar

StartChar: t.suno
Encoding: 201 989540 102
GlifName: t.suno
Width: 640
GlyphClass: 1
Flags: W
HStem: 0 160<289 351> 224 64<64 167 474 576> 352 160<289 351>
VStem: 64 160<225 287> 288 64<0 103 410 512> 416 160<225 287>
LayerCount: 2
Fore
SplineSet
320 352 m 0
 267 352 224 309 224 256 c 0
 224 203 267 160 320 160 c 0
 373 160 416 203 416 256 c 0
 416 309 373 352 320 352 c 0
288 512 m 1
 352 512 l 1
 352 413 l 1
 415 400 464 351 477 288 c 1
 576 288 l 1
 576 224 l 1
 476 224 l 1
 463 162 414 113 352 100 c 1
 352 0 l 1
 288 0 l 1
 288 100 l 1
 226 113 177 162 164 224 c 1
 64 224 l 1
 64 288 l 1
 164 288 l 1
 177 350 226 399 288 412 c 1
 288 512 l 1
EndSplineSet
LCarets2: 3 -60 -60 -60
MultipleSubs2: "CCMP cartouches" t.suno cart.body
Ligature2: "LIGA basics" s u n o
EndChar

StartChar: t.supa
Encoding: 202 989541 103
GlifName: t.supa
Width: 640
GlyphClass: 1
Flags: W
HStem: 288 64<48 144 208 432 496 592>
VStem: 144 64<128 288> 432 64<128 288>
LayerCount: 2
Fore
SplineSet
48 352 m 1
 592 352 l 1
 592 288 l 1
 496 288 l 1
 496 128 l 1
 432 128 l 1
 432 288 l 1
 208 288 l 1
 208 128 l 1
 144 128 l 1
 144 288 l 1
 48 288 l 1
 48 352 l 1
EndSplineSet
LCarets2: 3 -48 -48 -48
MultipleSubs2: "CCMP cartouches" t.supa cart.body
Ligature2: "LIGA basics" s u p a
EndChar

StartChar: t.suwi
Encoding: 203 989542 104
GlifName: t.suwi
Width: 640
GlyphClass: 1
Flags: W
HStem: 56 96<287 353>
VStem: 272 96<71 137>
LayerCount: 2
Fore
SplineSet
128 416 m 1
 192 416 l 1
 288 224 l 1
 216 224 l 1
 160 337 l 1
 104 224 l 1
 32 224 l 1
 128 416 l 1
448 416 m 1
 512 416 l 1
 608 224 l 1
 536 224 l 1
 480 337 l 1
 424 224 l 1
 352 224 l 1
 448 416 l 1
272 104 m 0
 272 130 294 152 320 152 c 0
 346 152 368 130 368 104 c 0
 368 78 346 56 320 56 c 0
 294 56 272 78 272 104 c 0
EndSplineSet
LCarets2: 3 -48 -48 -48
MultipleSubs2: "CCMP cartouches" t.suwi cart.body
Ligature2: "LIGA basics" s u w i
EndChar

StartChar: t.tan
Encoding: 204 989543 105
GlifName: t.tan
Width: 640
GlyphClass: 1
Flags: W
HStem: 384 64<306 430>
VStem: 144 64<192 285> 528 64<159 286>
LayerCount: 2
Fore
SplineSet
368 448 m 0
 492 448 592 348 592 224 c 0
 592 185 582 147 563 113 c 1
 507 145 l 1
 521 169 528 196 528 224 c 0
 528 312 456 384 368 384 c 0
 280 384 208 312 208 224 c 2
 208 192 l 1
 288 288 l 1
 336 240 l 1
 176 80 l 1
 16 240 l 1
 64 288 l 1
 144 192 l 1
 144 224 l 2
 144 348 244 448 368 448 c 0
EndSplineSet
LCarets2: 2 -48 -48
MultipleSubs2: "CCMP cartouches" t.tan cart.body
Ligature2: "LIGA basics" t a n
EndChar

StartChar: t.taso
Encoding: 205 989544 106
GlifName: t.taso
Width: 640
GlyphClass: 1
Flags: W
HStem: 0 13G<352 416> 224 64<192 352> 499 13G<352 416>
VStem: 352 64<0 224 288 512>
LayerCount: 2
Fore
SplineSet
352 512 m 1
 416 512 l 1
 416 0 l 1
 352 0 l 1
 352 224 l 1
 192 224 l 1
 192 288 l 1
 352 288 l 1
 352 512 l 1
EndSplineSet
LCarets2: 3 -48 -48 -48
MultipleSubs2: "CCMP cartouches" t.taso cart.body
Ligature2: "LIGA basics" t a s o
EndChar

StartChar: t.tawa
Encoding: 206 989545 107
GlifName: t.tawa
Width: 640
GlyphClass: 1
Flags: W
HStem: -8 13G<207 245 396 433> 499 13G<250 324>
LayerCount: 2
Fore
SplineSet
256 512 m 1
 320 512 l 1
 442 77 l 1
 561 124 l 1
 584 64 l 1
 400 -8 l 1
 282 412 l 1
 142 99 l 1
 263 52 l 1
 240 -8 l 1
 56 64 l 1
 256 512 l 1
EndSplineSet
LCarets2: 3 0 0 0
MultipleSubs2: "CCMP cartouches" t.tawa cart.body
Ligature2: "LIGA basics" t a w a
EndChar

StartChar: t.telo
Encoding: 207 989546 108
GlifName: t.telo
Width: 640
GlyphClass: 1
Flags: W
HStem: 46 64<159 258> 178 64<382 481> 270 64<159 258> 402 64<382 481>
VStem: 48 64<159 206 383 430> 528 64<82 129 306 353>
LayerCount: 2
Fore
SplineSet
528 82 m 1
 528 135 485 178 432 178 c 0
 397 178 365 160 348 129 c 0
 320 78 266 46 208 46 c 0
 120 46 48 118 48 206 c 1
 112 206 l 1
 112 153 155 110 208 110 c 0
 243 110 275 128 292 159 c 0
 320 210 374 242 432 242 c 0
 520 242 592 170 592 82 c 1
 528 82 l 1
112 430 m 1
 112 377 155 334 208 334 c 0
 243 334 275 352 292 383 c 0
 320 434 374 466 432 466 c 0
 520 466 592 394 592 306 c 1
 528 306 l 1
 528 359 485 402 432 402 c 0
 397 402 365 384 348 353 c 0
 320 302 266 270 208 270 c 0
 120 270 48 342 48 430 c 1
 112 430 l 1
EndSplineSet
LCarets2: 3 -48 -48 -48
MultipleSubs2: "CCMP cartouches" t.telo cart.body
Ligature2: "LIGA basics" t e l o
EndChar

StartChar: t.tenpo
Encoding: 208 989547 109
GlifName: t.tenpo
Width: 640
GlyphClass: 1
Flags: W
HStem: -16 64<247 393> 224 64<352 448> 464 64<247 393>
VStem: 48 64<183 329> 288 64<288 432> 528 64<183 329>
CounterMasks: 1 fc
LayerCount: 2
Fore
SplineSet
320 464 m 0
 205 464 112 371 112 256 c 0
 112 141 205 48 320 48 c 0
 435 48 528 141 528 256 c 0
 528 371 435 464 320 464 c 0
320 528 m 0
 470 528 592 406 592 256 c 0
 592 106 470 -16 320 -16 c 0
 170 -16 48 106 48 256 c 0
 48 406 170 528 320 528 c 0
352 288 m 1
 448 288 l 1
 448 224 l 1
 288 224 l 1
 288 288 l 1
 288 432 l 1
 352 432 l 1
 352 288 l 1
EndSplineSet
LCarets2: 4 -48 -48 -48 -48
MultipleSubs2: "CCMP cartouches" t.tenpo cart.body
Ligature2: "LIGA basics" t e n p o
EndChar

StartChar: t.toki
Encoding: 209 989548 110
GlifName: t.toki
Width: 640
GlyphClass: 1
Flags: W
HStem: -16 64<262 378> 304 64<262 378> 358 13G<184 213 427 456>
VStem: 128 64<118 234> 288 64<400 528> 448 64<118 234>
LayerCount: 2
Fore
SplineSet
320 304 m 0xdc
 250 304 192 246 192 176 c 0
 192 106 250 48 320 48 c 0
 390 48 448 106 448 176 c 0
 448 246 390 304 320 304 c 0xdc
320 368 m 0
 426 368 512 282 512 176 c 0
 512 70 426 -16 320 -16 c 0
 214 -16 128 70 128 176 c 0
 128 282 214 368 320 368 c 0
246 389 m 1
 191 358 l 1xbc
 128 470 l 1
 184 501 l 1
 246 389 l 1
394 389 m 1
 456 501 l 1
 512 470 l 1
 449 358 l 1
 394 389 l 1
288 400 m 1
 288 528 l 1
 352 528 l 1
 352 400 l 1
 288 400 l 1
EndSplineSet
LCarets2: 3 -48 -48 -48
MultipleSubs2: "CCMP cartouches" t.toki cart.body
Ligature2: "LIGA basics" t o k i
EndChar

StartChar: t.tomo
Encoding: 210 989549 111
GlifName: t.tomo
Width: 640
GlyphClass: 1
Flags: W
HStem: 0 64<128 512> 499 13G<305 335>
VStem: 64 64<64 259> 512 64<64 259>
LayerCount: 2
Fore
SplineSet
320 427 m 1
 128 259 l 1
 128 64 l 1
 512 64 l 1
 512 259 l 1
 320 427 l 1
320 512 m 1
 576 288 l 1
 576 0 l 1
 64 0 l 1
 64 288 l 1
 320 512 l 1
EndSplineSet
LCarets2: 3 -48 -48 -48
MultipleSubs2: "CCMP cartouches" t.tomo cart.body
Ligature2: "LIGA basics" t o m o
EndChar

StartChar: t.tu
Encoding: 211 989550 112
GlifName: t.tu
Width: 640
GlyphClass: 1
Flags: W
HStem: 0 13G<192 256 384 448> 499 13G<192 256 384 448>
VStem: 192 64<0 512> 384 64<0 512>
LayerCount: 2
Fore
SplineSet
384 0 m 1
 384 512 l 1
 448 512 l 1
 448 0 l 1
 384 0 l 1
192 0 m 1
 192 512 l 1
 256 512 l 1
 256 0 l 1
 192 0 l 1
EndSplineSet
LCarets2: 1 -48
MultipleSubs2: "CCMP cartouches" t.tu cart.body
Ligature2: "LIGA basics" t u
EndChar

StartChar: t.unpa
Encoding: 212 989551 113
GlifName: t.unpa
Width: 640
GlyphClass: 1
Flags: W
HStem: 0 64<276 364> 192 64<240 400> 448 64<159 256 384 481>
VStem: 48 64<303 401> 176 64<101 192 262 326> 400 64<101 192 262 326> 528 64<303 401>
LayerCount: 2
Fore
SplineSet
240 192 m 1
 240 144 l 2
 240 100 276 64 320 64 c 0
 364 64 400 100 400 144 c 2
 400 192 l 1
 240 192 l 1
320 412 m 1
 271 377 240 320 240 256 c 1
 400 256 l 1
 400 320 369 377 320 412 c 1
432 448 m 0
 415 448 399 446 384 442 c 1
 432 397 463 333 464 262 c 1
 501 275 528 310 528 352 c 0
 528 405 485 448 432 448 c 0
208 448 m 0
 155 448 112 405 112 352 c 0
 112 310 139 275 176 262 c 1
 177 333 208 397 256 442 c 1
 241 446 225 448 208 448 c 0
208 512 m 0
 248 512 286 503 320 486 c 1
 354 503 392 512 432 512 c 0
 520 512 592 440 592 352 c 0
 592 275 537 210 464 195 c 1
 464 144 l 2
 464 65 399 0 320 0 c 0
 241 0 176 65 176 144 c 2
 176 144 176 167 176 182 c 0
 176 190 176 195 176 195 c 1
 103 210 48 275 48 352 c 0
 48 440 120 512 208 512 c 0
EndSplineSet
LCarets2: 3 -48 -48 -48
MultipleSubs2: "CCMP cartouches" t.unpa cart.body
Ligature2: "LIGA basics" u n p a
EndChar

StartChar: t.uta
Encoding: 213 989552 114
GlifName: t.uta
Width: 640
GlyphClass: 1
Flags: W
HStem: 0 96<287 353> 128 64<249 391> 352 64<131 509>
VStem: 272 96<15 81>
LayerCount: 2
Fore
SplineSet
131 352 m 1
 146 261 225 192 320 192 c 0
 415 192 494 261 509 352 c 1
 131 352 l 1
64 416 m 1
 576 416 l 1
 576 384 l 2
 576 243 461 128 320 128 c 0
 179 128 64 243 64 384 c 2
 64 416 l 1
272 48 m 0
 272 74 294 96 320 96 c 0
 346 96 368 74 368 48 c 0
 368 22 346 0 320 0 c 0
 294 0 272 22 272 48 c 0
EndSplineSet
LCarets2: 2 -48 -48
MultipleSubs2: "CCMP cartouches" t.uta cart.body
Ligature2: "LIGA basics" u t a
EndChar

StartChar: t.utala
Encoding: 214 989553 115
GlifName: t.utala
Width: 640
GlyphClass: 1
Flags: W
HStem: 0 13G<183 201 439 457>
LayerCount: 2
Fore
SplineSet
492 518 m 1
 544 480 l 1
 360 228 l 1
 445 111 l 1
 523 227 l 1
 576 192 l 1
 448 0 l 1
 320 175 l 1
 192 0 l 1
 64 192 l 1
 117 227 l 1
 195 111 l 1
 280 228 l 1
 96 480 l 1
 148 518 l 1
 320 283 l 1
 492 518 l 1
EndSplineSet
LCarets2: 4 0 0 0 0
MultipleSubs2: "CCMP cartouches" t.utala cart.body
Ligature2: "LIGA basics" u t a l a
EndChar

StartChar: t.walo
Encoding: 215 989554 116
GlifName: t.walo
Width: 640
GlyphClass: 1
Flags: W
HStem: 0 64<152 488>
LayerCount: 2
Fore
SplineSet
320 401 m 1
 152 64 l 1
 488 64 l 1
 320 401 l 1
201 306 m 1
 320 544 l 1
 439 306 l 1
 531 397 l 1
 576 352 l 1
 469 245 l 1
 592 0 l 1
 48 0 l 1
 171 245 l 1
 64 352 l 1
 109 397 l 1
 201 306 l 1
EndSplineSet
LCarets2: 3 -48 -48 -48
MultipleSubs2: "CCMP cartouches" t.walo cart.body
Ligature2: "LIGA basics" w a l o
EndChar

StartChar: t.wan
Encoding: 216 989555 117
GlifName: t.wan
Width: 640
GlyphClass: 1
Flags: W
HStem: 0 13G<320 384> 499 13G<307 384>
VStem: 320 64<0 422>
LayerCount: 2
Fore
SplineSet
320 512 m 1
 384 512 l 1
 384 0 l 1
 320 0 l 1
 320 422 l 1
 205 307 l 1
 160 352 l 1
 320 512 l 1
EndSplineSet
LCarets2: 2 -48 -48
MultipleSubs2: "CCMP cartouches" t.wan cart.body
Ligature2: "LIGA basics" w a n
EndChar

StartChar: t.waso
Encoding: 217 989556 118
GlifName: t.waso
Width: 640
GlyphClass: 1
Flags: W
HStem: 128 64<272 451> 232 96<111 177> 264 96<239 305>
VStem: 96 96<247 313> 208 64<-16 128> 224 96<279 345>
LayerCount: 2
Fore
SplineSet
299 536 m 1x98
 528 192 l 1
 528 128 l 1
 272 128 l 1
 272 -16 l 1
 208 -16 l 1
 208 192 l 1
 256 192 l 1
 272 192 l 1
 451 192 l 1
 245 500 l 1
 299 536 l 1x98
96 280 m 0
 96 306 118 328 144 328 c 0
 170 328 192 306 192 280 c 0
 192 254 170 232 144 232 c 0xd0
 118 232 96 254 96 280 c 0
224 312 m 0xb4
 224 338 246 360 272 360 c 0xb8
 298 360 320 338 320 312 c 0xb4
 320 286 298 264 272 264 c 0xb8
 246 264 224 286 224 312 c 0xb4
EndSplineSet
LCarets2: 3 -48 -48 -48
MultipleSubs2: "CCMP cartouches" t.waso cart.body
Ligature2: "LIGA basics" w a s o
EndChar

StartChar: t.wawa
Encoding: 218 989557 119
GlifName: t.wawa
Width: 640
GlyphClass: 1
Flags: W
HStem: 64 64<271 369> 320 64<271 369>
VStem: 160 64<175 273> 416 64<175 273>
LayerCount: 2
Fore
SplineSet
320 320 m 0
 267 320 224 277 224 224 c 0
 224 171 267 128 320 128 c 0
 373 128 416 171 416 224 c 0
 416 277 373 320 320 320 c 0
320 384 m 0
 408 384 480 312 480 224 c 0
 480 136 408 64 320 64 c 0
 232 64 160 136 160 224 c 0
 160 312 232 384 320 384 c 0
609 451 m 1
 545 131 l 1
 482 143 l 1
 546 463 l 1
 609 451 l 1
31 451 m 1
 94 463 l 1
 158 143 l 1
 95 131 l 1
 31 451 l 1
EndSplineSet
LCarets2: 3 -48 -48 -48
MultipleSubs2: "CCMP cartouches" t.wawa cart.body
Ligature2: "LIGA basics" w a w a
EndChar

StartChar: t.weka
Encoding: 219 989558 120
GlifName: t.weka
Width: 640
GlyphClass: 1
Flags: W
HStem: 0 13G<97 122 518 543> 499 13G<97 122 518 543>
LayerCount: 2
Fore
SplineSet
397 224 m 1
 576 45 l 1
 531 0 l 1
 352 179 l 1
 397 224 l 1
243 224 m 1
 288 179 l 1
 109 0 l 1
 64 45 l 1
 243 224 l 1
531 512 m 1
 576 467 l 1
 397 288 l 1
 352 333 l 1
 531 512 l 1
109 512 m 1
 288 333 l 1
 243 288 l 1
 64 467 l 1
 109 512 l 1
EndSplineSet
LCarets2: 3 -48 -48 -48
MultipleSubs2: "CCMP cartouches" t.weka cart.body
Ligature2: "LIGA basics" w e k a
EndChar

StartChar: t.wile
Encoding: 220 989559 121
GlifName: t.wile
Width: 640
GlyphClass: 1
Flags: W
HStem: 32 64<153 247 393 487>
VStem: 48 64<139 297> 288 64<137 208> 528 64<138 298>
LayerCount: 2
Fore
SplineSet
528 184 m 0
 528 280 500 369 451 444 c 1
 504 480 l 1
 560 395 592 293 592 184 c 0
 592 100 524 32 440 32 c 0
 393 32 349 54 320 91 c 1
 291 54 247 32 200 32 c 0
 116 32 48 100 48 184 c 2
 48 184 l 2
 48 293 80 395 136 480 c 1
 189 444 l 1
 140 369 112 280 112 184 c 2
 112 135 151 96 200 96 c 0
 249 96 288 135 288 184 c 2
 288 208 l 1
 352 208 l 1
 352 184 l 2
 352 135 391 96 440 96 c 0
 489 96 528 135 528 184 c 0
EndSplineSet
LCarets2: 3 -48 -48 -48
MultipleSubs2: "CCMP cartouches" t.wile cart.body
Ligature2: "LIGA basics" w i l e
EndChar

StartChar: i
Encoding: 73 105 122
GlifName: glyph122
Width: 320
VWidth: 576
Flags: W
HStem: 0 13G<128 192> 288 64<56 128> 400 96<127 193>
VStem: 112 96<415 481> 128 64<0 288>
LayerCount: 2
Fore
SplineSet
56 352 m 1xe8
 128 352 l 1
 136 352 l 1
 192 352 l 1
 192 0 l 1
 128 0 l 1
 128 288 l 1
 56 288 l 1
 56 352 l 1xe8
160 496 m 0
 186 496 208 474 208 448 c 0
 208 422 186 400 160 400 c 0
 134 400 112 422 112 448 c 0xf0
 112 474 134 496 160 496 c 0
EndSplineSet
MultipleSubs2: "CCMP cartouches" i cart.hwbody
EndChar

StartChar: j
Encoding: 74 106 123
GlifName: glyph123
Width: 320
VWidth: -64
Flags: W
HStem: -65 64<101 164> 288 64<104 176> 400 96<175 241>
VStem: 160 96<415 481> 176 64<12 288>
LayerCount: 2
Fore
SplineSet
104 352 m 1xe8
 176 352 l 1
 184 352 l 1
 240 352 l 1
 240 44 l 2
 240 -16 192 -65 132 -65 c 0
 79 -65 35 -27 26 24 c 1
 88 44 l 1
 88 20 108 -1 132 -1 c 0
 156 -1 176 20 176 44 c 2
 176 288 l 1
 104 288 l 1
 104 352 l 1xe8
208 496 m 0
 234 496 256 474 256 448 c 0
 256 422 234 400 208 400 c 0
 182 400 160 422 160 448 c 0xf0
 160 474 182 496 208 496 c 0
EndSplineSet
MultipleSubs2: "CCMP cartouches" j cart.hwbody
EndChar

StartChar: o
Encoding: 79 111 124
GlifName: glyph124
Width: 320
VWidth: -64
Flags: W
HStem: -8 64<121 199> 296 64<121 199>
VStem: 32 64<81 270> 224 64<81 270>
LayerCount: 2
Fore
SplineSet
160 296 m 0
 125 296 96 267 96 232 c 2
 96 120 l 2
 96 85 125 56 160 56 c 0
 195 56 224 85 224 120 c 2
 224 232 l 2
 224 267 195 296 160 296 c 0
160 360 m 0
 231 360 288 303 288 232 c 2
 288 120 l 2
 288 49 231 -8 160 -8 c 0
 89 -8 32 49 32 120 c 2
 32 232 l 2
 32 303 89 360 160 360 c 0
EndSplineSet
MultipleSubs2: "CCMP cartouches" o cart.hwbody
EndChar

StartChar: a
Encoding: 65 97 125
GlifName: glyph125
Width: 320
VWidth: -64
Flags: W
HStem: -8 65<100 180> 0 13G<224 288> 144 64<101 224> 296 64<108 199>
VStem: 24 64<68 131> 224 64<0 22 100 144 208 270>
LayerCount: 2
Fore
SplineSet
132 144 m 2xbc
 108 144 88 124 88 100 c 0
 88 76 108 56 132 56 c 0
 181 56 222 95 224 144 c 1
 132 144 l 2xbc
160 360 m 0
 230 360 288 302 288 232 c 2
 288 0 l 1
 224 0 l 1x7c
 224 0 224 10 224 16 c 0
 224 19 224 22 224 22 c 1
 198 3 167 -8 132 -8 c 0
 72 -8 24 40 24 100 c 0
 24 157 68 204 124 208 c 1
 224 208 l 1
 224 232 l 2
 224 267 195 296 160 296 c 0
 116 296 79 270 64 232 c 1
 20 285 l 0
 20 286 67 360 160 360 c 0
EndSplineSet
MultipleSubs2: "CCMP cartouches" a cart.hwbody
EndChar

StartChar: A
Encoding: 33 65 126
Width: 320
VWidth: 576
Flags: W
HStem: 0 13G<28 96 232 300> 96 64<126 202> 499 13G<129 198>
LayerCount: 2
Fore
SplineSet
164 348 m 1
 126 160 l 1
 202 160 l 1
 164 348 l 1
132 512 m 1
 196 512 l 1
 300 0 l 1
 235 0 l 1
 215 96 l 1
 113 96 l 1
 93 0 l 1
 28 0 l 1
 132 512 l 1
EndSplineSet
MultipleSubs2: "CCMP cartouches" A cart.hwbody
EndChar

StartChar: B
Encoding: 34 66 127
Width: 320
VWidth: 576
Flags: W
HStem: 0 64<100 199> 224 64<100 200> 448 64<100 199>
VStem: 36 64<64 224 288 448> 236 64<100 188 324 412>
LayerCount: 2
Fore
SplineSet
300 144 m 0
 300 65 235 0 156 0 c 2
 100 0 l 1
 36 0 l 1
 36 512 l 1
 100 512 l 1
 156 512 l 2
 235 512 300 447 300 368 c 0
 300 324 280 284 246 256 c 1
 280 228 300 188 300 144 c 0
100 64 m 1
 156 64 l 2
 200 64 236 100 236 144 c 0
 236 188 200 224 156 224 c 2
 100 224 l 1
 100 64 l 1
236 368 m 0
 236 412 200 448 156 448 c 2
 100 448 l 1
 100 288 l 1
 157 288 l 2
 201 289 236 324 236 368 c 0
EndSplineSet
MultipleSubs2: "CCMP cartouches" B cart.hwbody
EndChar

StartChar: C
Encoding: 35 67 128
Width: 320
VWidth: 583
Flags: W
HStem: -8 64<125 203> 456 64<125 203>
VStem: 36 64<82 430> 228 64<82 120 392 430>
LayerCount: 2
Fore
SplineSet
100 392 m 1
 100 120 l 2
 100 85 129 56 164 56 c 0
 199 56 228 85 228 120 c 1
 292 120 l 1
 292 50 234 -8 164 -8 c 0
 94 -8 36 50 36 120 c 2
 36 392 l 2
 36 462 94 520 164 520 c 0
 234 520 292 462 292 392 c 1
 228 392 l 1
 228 427 199 456 164 456 c 0
 129 456 100 427 100 392 c 1
EndSplineSet
MultipleSubs2: "CCMP cartouches" C cart.hwbody
EndChar

StartChar: D
Encoding: 36 68 129
Width: 320
VWidth: 576
Flags: W
HStem: 0 64<100 199> 448 64<100 199>
VStem: 36 64<64 448> 236 64<101 411>
LayerCount: 2
Fore
SplineSet
100 448 m 1
 100 64 l 1
 156 64 l 2
 200 64 236 100 236 144 c 1
 236 368 l 1
 236 412 200 448 156 448 c 2
 100 448 l 1
36 512 m 1
 100 512 l 1
 156 512 l 1
 235 512 300 447 300 368 c 1
 300 144 l 1
 300 65 235 0 156 0 c 2
 36 0 l 1
 36 512 l 1
EndSplineSet
MultipleSubs2: "CCMP cartouches" D cart.hwbody
EndChar

StartChar: E
Encoding: 37 69 130
Width: 320
VWidth: 576
Flags: W
HStem: 0 64<100 292> 224 64<100 236> 448 64<100 292>
VStem: 36 64<64 224 288 448>
LayerCount: 2
Fore
SplineSet
36 0 m 1
 36 512 l 1
 292 512 l 1
 292 448 l 1
 100 448 l 1
 100 288 l 1
 236 288 l 1
 236 224 l 1
 100 224 l 1
 100 64 l 1
 292 64 l 1
 292 0 l 1
 100 0 l 1
 36 0 l 1
EndSplineSet
MultipleSubs2: "CCMP cartouches" E cart.hwbody
EndChar

StartChar: F
Encoding: 38 70 131
Width: 320
VWidth: 576
Flags: W
HStem: 0 13G<36 100> 224 64<100 236> 448 64<100 292>
VStem: 36 64<0 224 288 448>
LayerCount: 2
Fore
SplineSet
36 512 m 1
 100 512 l 1
 292 512 l 1
 292 448 l 1
 100 448 l 1
 100 288 l 1
 236 288 l 1
 236 224 l 1
 100 224 l 1
 100 0 l 1
 36 0 l 1
 36 512 l 1
EndSplineSet
MultipleSubs2: "CCMP cartouches" F cart.hwbody
EndChar

StartChar: G
Encoding: 39 71 132
Width: 320
VWidth: 583
Flags: W
HStem: -8 64<125 203> 224 64<156 228> 456 64<125 203>
VStem: 36 64<82 430> 228 64<82 224 392 430>
LayerCount: 2
Fore
SplineSet
164 520 m 0
 234 520 292 462 292 392 c 1
 228 392 l 1
 228 427 199 456 164 456 c 0
 129 456 100 427 100 392 c 2
 100 120 l 2
 100 85 129 56 164 56 c 0
 199 56 228 85 228 120 c 1
 228 224 l 1
 156 224 l 1
 156 288 l 1
 228 288 l 1
 292 288 l 1
 292 120 l 1
 292 50 234 -8 164 -8 c 0
 94 -8 36 50 36 120 c 2
 36 392 l 2
 36 462 94 520 164 520 c 0
EndSplineSet
MultipleSubs2: "CCMP cartouches" G cart.hwbody
EndChar

StartChar: H
Encoding: 40 72 133
Width: 320
VWidth: 576
Flags: W
HStem: 0 13G<36 100 228 292> 224 64<100 228> 499 13G<36 100 228 292>
VStem: 36 64<0 224 288 512> 228 64<0 224 288 512>
LayerCount: 2
Fore
SplineSet
36 512 m 1
 100 512 l 1
 100 288 l 1
 228 288 l 1
 228 512 l 1
 292 512 l 1
 292 0 l 1
 228 0 l 1
 228 224 l 1
 100 224 l 1
 100 0 l 1
 36 0 l 1
 36 512 l 1
EndSplineSet
MultipleSubs2: "CCMP cartouches" H cart.hwbody
EndChar

StartChar: I
Encoding: 41 73 134
Width: 320
VWidth: 576
Flags: W
HStem: 0 64<64 128 192 256> 448 64<64 128 192 256>
VStem: 64 192<0 64 448 512>
LayerCount: 2
Fore
SplineSet
64 512 m 1
 256 512 l 1
 256 448 l 1
 192 448 l 1
 192 64 l 1
 256 64 l 1
 256 0 l 1
 192 0 l 1
 128 0 l 1
 64 0 l 1
 64 64 l 1
 128 64 l 1
 128 448 l 1
 64 448 l 1
 64 512 l 1
EndSplineSet
MultipleSubs2: "CCMP cartouches" I cart.hwbody
EndChar

StartChar: J
Encoding: 42 74 135
Width: 320
VWidth: 576
Flags: W
HStem: -8 64<125 203> 448 64<100 228>
VStem: 36 64<82 120> 228 64<82 448>
LayerCount: 2
Fore
SplineSet
292 512 m 1
 292 120 l 1
 292 50 234 -8 164 -8 c 0
 94 -8 36 50 36 120 c 1
 100 120 l 1
 100 85 129 56 164 56 c 0
 199 56 228 85 228 120 c 1
 228 448 l 1
 100 448 l 1
 100 512 l 1
 292 512 l 1
EndSplineSet
MultipleSubs2: "CCMP cartouches" J cart.hwbody
EndChar

StartChar: K
Encoding: 43 75 136
Width: 320
VWidth: 576
Flags: W
HStem: 0 13G<36 100 224 300> 224 64<100 129> 499 13G<36 100 224 300>
VStem: 36 64<0 224 288 512>
LayerCount: 2
Fore
SplineSet
36 512 m 1
 100 512 l 1
 100 288 l 1
 129 288 l 1
 230 512 l 1
 300 512 l 1
 184 256 l 1
 300 0 l 1
 230 0 l 1
 129 224 l 1
 100 224 l 1
 100 0 l 1
 36 0 l 1
 36 512 l 1
EndSplineSet
MultipleSubs2: "CCMP cartouches" K cart.hwbody
EndChar

StartChar: L
Encoding: 44 76 137
Width: 320
VWidth: 576
Flags: W
HStem: 0 64<100 292> 499 13G<36 100>
VStem: 36 64<64 512>
LayerCount: 2
Fore
SplineSet
292 0 m 1
 36 0 l 1
 36 512 l 1
 100 512 l 1
 100 64 l 1
 292 64 l 1
 292 0 l 1
EndSplineSet
MultipleSubs2: "CCMP cartouches" L cart.hwbody
EndChar

StartChar: M
Encoding: 45 77 138
Width: 320
VWidth: 576
Flags: W
HStem: 0 13G<28 92 236 300> 499 13G<28 96 232 300>
VStem: 28 64<0 311> 236 64<0 311>
LayerCount: 2
Fore
SplineSet
28 512 m 1
 92 512 l 1
 164 298 l 1
 236 512 l 1
 300 512 l 1
 300 0 l 1
 236 0 l 1
 236 311 l 1
 196 192 l 1
 132 192 l 1
 92 311 l 1
 92 0 l 1
 28 0 l 1
 28 512 l 1
EndSplineSet
MultipleSubs2: "CCMP cartouches" M cart.hwbody
EndChar

StartChar: N
Encoding: 46 78 139
Width: 320
VWidth: 576
Flags: W
HStem: 0 13G<36 100 223 292> 499 13G<36 105 228 292>
VStem: 36 64<0 333> 228 64<179 512>
LayerCount: 2
Fore
SplineSet
36 512 m 1
 100 512 l 1
 228 179 l 1
 228 512 l 1
 292 512 l 1
 292 0 l 1
 228 0 l 1
 100 333 l 1
 100 0 l 1
 36 0 l 1
 36 512 l 1
EndSplineSet
MultipleSubs2: "CCMP cartouches" N cart.hwbody
EndChar

StartChar: O
Encoding: 47 79 140
Width: 320
VWidth: 576
Flags: W
HStem: -16 64<125 203> 448 64<125 203>
VStem: 36 64<74 422> 228 64<74 422>
LayerCount: 2
Fore
SplineSet
164 448 m 0
 129 448 100 419 100 384 c 2
 100 112 l 2
 100 77 129 48 164 48 c 0
 199 48 228 77 228 112 c 1
 228 384 l 1
 228 419 199 448 164 448 c 0
164 512 m 0
 234 512 292 454 292 384 c 1
 292 112 l 1
 292 42 234 -16 164 -16 c 0
 94 -16 36 42 36 112 c 2
 36 384 l 2
 36 454 94 512 164 512 c 0
EndSplineSet
MultipleSubs2: "CCMP cartouches" O cart.hwbody
EndChar

StartChar: P
Encoding: 48 80 141
Width: 320
VWidth: 576
Flags: W
HStem: 0 13G<36 100> 224 64<100 199> 448 64<100 199>
VStem: 36 64<0 224 288 448> 236 64<324 412>
LayerCount: 2
Fore
SplineSet
300 368 m 0
 300 289 235 224 156 224 c 2
 100 224 l 1
 100 0 l 1
 36 0 l 1
 36 512 l 1
 100 512 l 1
 156 512 l 1
 235 512 300 447 300 368 c 0
100 288 m 1
 156 288 l 2
 200 288 236 324 236 368 c 0
 236 412 200 448 156 448 c 1
 100 448 l 1
 100 288 l 1
EndSplineSet
MultipleSubs2: "CCMP cartouches" P cart.hwbody
EndChar

StartChar: Q
Encoding: 49 81 142
Width: 320
VWidth: 583
Flags: W
HStem: 40 64<121 171> 456 64<121 199>
VStem: 32 64<130 430> 224 64<151 430>
LayerCount: 2
Fore
SplineSet
160 456 m 0
 125 456 96 427 96 392 c 2
 96 168 l 2
 96 133 125 104 160 104 c 0
 164 104 168 104 172 105 c 1
 111 240 l 1
 180 240 l 1
 221 150 l 1
 223 156 224 162 224 168 c 1
 224 392 l 1
 224 427 195 456 160 456 c 0
160 520 m 0
 230 520 288 462 288 392 c 2
 288 168 l 2
 288 134 275 103 253 80 c 1
 296 -16 l 1
 226 -16 l 1
 198 46 l 1
 186 42 173 40 160 40 c 0
 90 40 32 98 32 168 c 2
 32 392 l 2
 32 462 90 520 160 520 c 0
EndSplineSet
MultipleSubs2: "CCMP cartouches" Q cart.hwbody
EndChar

StartChar: R
Encoding: 50 82 143
Width: 320
VWidth: 576
Flags: W
HStem: 0 13G<36 100 224 300> 224 64<100 129> 448 64<100 199>
VStem: 36 64<0 224 288 448> 236 64<324 412>
LayerCount: 2
Fore
SplineSet
100 448 m 1
 100 288 l 1
 156 288 l 1
 200 288 236 324 236 368 c 0
 236 412 200 448 156 448 c 2
 100 448 l 1
36 512 m 1
 100 512 l 1
 156 512 l 2
 235 512 300 447 300 368 c 0
 300 303 256 247 196 230 c 1
 300 0 l 1
 230 0 l 1
 129 224 l 1
 100 224 l 1
 100 0 l 1
 36 0 l 1
 36 512 l 1
EndSplineSet
MultipleSubs2: "CCMP cartouches" R cart.hwbody
EndChar

StartChar: S
Encoding: 51 83 144
Width: 320
VWidth: 576
Flags: W
HStem: -16 64<125 203> 216 64<126 202> 448 64<125 203>
VStem: 36 64<74 112 306 422> 228 64<74 190 384 422>
LayerCount: 2
Fore
SplineSet
164 216 m 0
 94 216 36 274 36 344 c 2
 36 384 l 2
 36 454 94 512 164 512 c 0
 234 512 292 454 292 384 c 1
 228 384 l 1
 228 419 199 448 164 448 c 0
 129 448 100 419 100 384 c 2
 100 344 l 2
 100 309 129 280 164 280 c 0
 234 280 292 222 292 152 c 2
 292 112 l 2
 292 42 234 -16 164 -16 c 0
 94 -16 36 42 36 112 c 1
 100 112 l 1
 100 77 129 48 164 48 c 0
 199 48 228 77 228 112 c 2
 228 152 l 2
 228 187 199 216 164 216 c 0
EndSplineSet
MultipleSubs2: "CCMP cartouches" S cart.hwbody
EndChar

StartChar: T
Encoding: 52 84 145
Width: 320
VWidth: 576
Flags: W
HStem: 0 13G<132 196> 448 64<36 132 196 292>
VStem: 132 64<0 448>
LayerCount: 2
Fore
SplineSet
36 512 m 1
 132 512 l 1
 196 512 l 1
 292 512 l 1
 292 448 l 1
 196 448 l 1
 196 0 l 1
 132 0 l 1
 132 448 l 1
 36 448 l 1
 36 512 l 1
EndSplineSet
MultipleSubs2: "CCMP cartouches" T cart.hwbody
EndChar

StartChar: U
Encoding: 53 85 146
Width: 320
VWidth: 576
Flags: W
HStem: 0 64<125 203> 499 13G<36 100 228 292>
VStem: 36 64<90 512> 228 64<90 512>
LayerCount: 2
Fore
SplineSet
164 64 m 0
 199 64 228 93 228 128 c 2
 228 512 l 1
 292 512 l 1
 292 128 l 2
 292 58 234 0 164 0 c 0
 94 0 36 58 36 128 c 2
 36 512 l 1
 100 512 l 1
 100 128 l 2
 100 93 129 64 164 64 c 0
EndSplineSet
MultipleSubs2: "CCMP cartouches" U cart.hwbody
EndChar

StartChar: V
Encoding: 54 86 147
Width: 320
VWidth: 576
Flags: W
HStem: 0 13G<129 198> 499 13G<28 96 232 300>
LayerCount: 2
Fore
SplineSet
132 0 m 1
 28 512 l 1
 93 512 l 1
 164 164 l 1
 235 512 l 1
 300 512 l 1
 196 0 l 1
 132 0 l 1
EndSplineSet
MultipleSubs2: "CCMP cartouches" V cart.hwbody
EndChar

StartChar: W
Encoding: 55 87 148
Width: 320
VWidth: 576
Flags: W
HStem: 0 13G<28 96 232 300> 499 13G<28 92 236 300>
VStem: 28 64<201 512> 236 64<201 512>
LayerCount: 2
Fore
SplineSet
28 0 m 1
 28 512 l 1
 92 512 l 1
 92 201 l 1
 132 320 l 1
 196 320 l 1
 236 201 l 1
 236 512 l 1
 300 512 l 1
 300 0 l 1
 236 0 l 1
 164 214 l 1
 92 0 l 1
 28 0 l 1
EndSplineSet
MultipleSubs2: "CCMP cartouches" W cart.hwbody
EndChar

StartChar: X
Encoding: 56 88 149
Width: 320
VWidth: 576
Flags: W
HStem: 0 13G<28 102 226 300> 499 13G<28 102 226 300>
LayerCount: 2
Fore
SplineSet
28 512 m 1
 97 512 l 1
 164 343 l 1
 231 512 l 1
 300 512 l 1
 198 256 l 1
 300 0 l 1
 231 0 l 1
 164 169 l 1
 97 0 l 1
 28 0 l 1
 129 256 l 1
 28 512 l 1
EndSplineSet
MultipleSubs2: "CCMP cartouches" X cart.hwbody
EndChar

StartChar: Y
Encoding: 57 89 150
Width: 320
VWidth: 576
Flags: W
HStem: 0 13G<132 196> 499 13G<28 102 226 300>
VStem: 132 64<0 250>
LayerCount: 2
Fore
SplineSet
28 512 m 1
 97 512 l 1
 164 343 l 1
 231 512 l 1
 300 512 l 1
 196 250 l 1
 196 0 l 1
 132 0 l 1
 132 250 l 1
 28 512 l 1
EndSplineSet
MultipleSubs2: "CCMP cartouches" Y cart.hwbody
EndChar

StartChar: Z
Encoding: 58 90 151
Width: 320
VWidth: 576
Flags: W
HStem: 0 64<107 292> 448 64<36 221>
LayerCount: 2
Fore
SplineSet
36 512 m 1
 292 512 l 1
 292 448 l 1
 107 64 l 1
 292 64 l 1
 292 0 l 1
 36 0 l 1
 36 64 l 1
 221 448 l 1
 36 448 l 1
 36 512 l 1
EndSplineSet
MultipleSubs2: "CCMP cartouches" Z cart.hwbody
EndChar

StartChar: b
Encoding: 66 98 152
Width: 320
VWidth: 576
Flags: W
HStem: -8 64<123 199> 0 13G<32 96> 296 64<122 199> 499 13G<32 96>
VStem: 32 64<0 26 80 271 326 512> 224 64<81 270>
LayerCount: 2
Fore
SplineSet
160 296 m 0xbc
 125 296 96 267 96 232 c 2
 96 120 l 2
 96 85 125 56 160 56 c 0
 195 56 224 85 224 120 c 2
 224 232 l 2
 224 267 195 296 160 296 c 0xbc
32 512 m 1
 96 512 l 1
 96 326 l 1
 116 346 145 360 176 360 c 0
 238 360 288 310 288 248 c 2
 288 104 l 2
 288 42 238 -8 176 -8 c 0xbc
 145 -8 116 6 96 26 c 1
 96 0 l 1
 32 0 l 1x7c
 32 512 l 1
EndSplineSet
MultipleSubs2: "CCMP cartouches" b cart.hwbody
EndChar

StartChar: c
Encoding: 67 99 153
Width: 320
VWidth: 583
Flags: W
HStem: -8 64<124 204> 296 64<124 204>
VStem: 32 64<85 267> 232 61<84 97 255 268>
LayerCount: 2
Fore
SplineSet
164 360 m 0
 227 360 280 317 293 257 c 1
 232 232 l 1
 230 268 200 296 164 296 c 0
 126 296 96 266 96 228 c 2
 96 176 l 1
 96 124 l 2
 96 86 126 56 164 56 c 0
 200 56 230 84 232 120 c 1
 293 95 l 1
 280 35 227 -8 164 -8 c 0
 91 -8 32 51 32 124 c 2
 32 228 l 2
 32 301 91 360 164 360 c 0
EndSplineSet
MultipleSubs2: "CCMP cartouches" c cart.hwbody
EndChar

StartChar: d
Encoding: 68 100 154
Width: 320
VWidth: 576
Flags: W
HStem: -8 64<121 197> 0 13G<224 288> 296 64<121 198> 499 13G<224 288>
VStem: 32 64<81 270> 224 64<0 26 80 271 326 512>
LayerCount: 2
Fore
SplineSet
160 296 m 0xbc
 125 296 96 267 96 232 c 2
 96 120 l 2
 96 85 125 56 160 56 c 0
 195 56 224 85 224 120 c 2
 224 232 l 2
 224 267 195 296 160 296 c 0xbc
288 512 m 1
 288 0 l 1
 224 0 l 1x7c
 224 26 l 1
 204 6 175 -8 144 -8 c 0
 82 -8 32 42 32 104 c 2
 32 248 l 2
 32 310 82 360 144 360 c 0
 175 360 204 346 224 326 c 1
 224 512 l 1
 288 512 l 1
EndSplineSet
MultipleSubs2: "CCMP cartouches" d cart.hwbody
EndChar

StartChar: e
Encoding: 69 101 155
Width: 320
VWidth: 576
Flags: W
HStem: -8 64<124 204> 160 64<96 224> 296 64<121 199>
VStem: 32 64<85 160 224 270> 224 64<224 270>
LayerCount: 2
Fore
SplineSet
160 296 m 0
 125 296 96 267 96 232 c 2
 96 224 l 1
 224 224 l 1
 224 232 l 1
 224 267 195 296 160 296 c 0
160 360 m 0
 230 360 288 302 288 232 c 2
 288 224 l 1
 288 160 l 1
 96 160 l 1
 96 124 l 2
 96 86 126 56 164 56 c 0
 200 56 230 84 232 120 c 1
 293 95 l 1
 280 35 227 -8 164 -8 c 0
 91 -8 32 51 32 124 c 2
 32 232 l 2
 32 302 90 360 160 360 c 0
EndSplineSet
MultipleSubs2: "CCMP cartouches" e cart.hwbody
EndChar

StartChar: f
Encoding: 70 102 156
Width: 320
VWidth: 576
Flags: W
HStem: 0 13G<88 152> 288 64<40 88 152 264> 456 64<164 227>
VStem: 88 64<0 288 352 442>
LayerCount: 2
Fore
SplineSet
196 520 m 0
 249 520 293 482 302 431 c 1
 240 412 l 1
 240 436 220 456 196 456 c 0
 172 456 152 436 152 412 c 2
 152 352 l 1
 264 352 l 1
 264 288 l 1
 152 288 l 1
 152 0 l 1
 88 0 l 1
 88 288 l 1
 40 288 l 1
 40 352 l 1
 88 352 l 1
 88 412 l 2
 88 472 136 520 196 520 c 0
EndSplineSet
MultipleSubs2: "CCMP cartouches" f cart.hwbody
EndChar

StartChar: g
Encoding: 71 103 157
Width: 320
VWidth: 583
Flags: W
HStem: -64 64<116 196> 80 64<121 198> 296 64<121 198> 339 13G<224 288>
VStem: 32 64<169 271> 224 64<29 113 169 271 326 352>
LayerCount: 2
Fore
SplineSet
160 296 m 0xec
 125 296 96 267 96 232 c 2
 96 208 l 2
 96 173 125 144 160 144 c 0
 195 144 224 173 224 208 c 2
 224 232 l 2
 224 267 195 296 160 296 c 0xec
144 360 m 0
 175 360 204 346 224 326 c 1
 224 352 l 1
 288 352 l 1xdc
 288 176 l 1
 288 68 l 2
 288 -5 229 -64 156 -64 c 0
 93 -64 40 -21 27 39 c 1
 88 64 l 1
 90 28 120 0 156 0 c 0
 194 0 224 30 224 68 c 2
 224 80 l 1
 224 113 l 1
 204 93 175 80 144 80 c 0
 82 80 32 130 32 192 c 2
 32 248 l 2
 32 310 82 360 144 360 c 0
EndSplineSet
MultipleSubs2: "CCMP cartouches" g cart.hwbody
EndChar

StartChar: h
Encoding: 72 104 158
Width: 320
VWidth: 576
Flags: W
HStem: 0 13G<32 96 224 288> 296 64<122 199> 499 13G<32 96>
VStem: 32 64<0 271 326 512> 224 64<0 270>
LayerCount: 2
Fore
SplineSet
32 512 m 1
 96 512 l 1
 96 326 l 1
 116 346 145 360 176 360 c 0
 238 360 288 310 288 248 c 2
 288 0 l 1
 224 0 l 1
 224 232 l 2
 224 267 195 296 160 296 c 0
 125 296 96 267 96 232 c 2
 96 0 l 1
 32 0 l 1
 32 512 l 1
EndSplineSet
MultipleSubs2: "CCMP cartouches" h cart.hwbody
EndChar

StartChar: k
Encoding: 75 107 159
Width: 320
VWidth: 576
Flags: W
HStem: 0 13G<32 96 199 288> 339 13G<199 288> 499 13G<32 96>
VStem: 32 64<0 155 197 512>
LayerCount: 2
Fore
SplineSet
32 512 m 1
 96 512 l 1
 96 197 l 1
 209 352 l 1
 288 352 l 1
 160 176 l 1
 288 0 l 1
 209 0 l 1
 96 155 l 1
 96 0 l 1
 32 0 l 1
 32 512 l 1
EndSplineSet
MultipleSubs2: "CCMP cartouches" k cart.hwbody
EndChar

StartChar: l
Encoding: 76 108 160
Width: 320
VWidth: 576
Flags: W
HStem: 0 64<182 272> 448 64<64 112>
VStem: 64 112<448 512> 112 64<70 448>
LayerCount: 2
Fore
SplineSet
64 512 m 1xe0
 176 512 l 1xe0
 176 96 l 2
 176 78 190 64 208 64 c 2
 272 64 l 1
 272 0 l 1
 208 0 l 2
 155 0 112 43 112 96 c 2
 112 448 l 1xd0
 64 448 l 1
 64 512 l 1xe0
EndSplineSet
MultipleSubs2: "CCMP cartouches" l cart.hwbody
EndChar

StartChar: m
Encoding: 77 109 161
Width: 320
VWidth: 576
Flags: W
HStem: 0 13G<24 88 128 192 232 296> 296 64<104 155 208 258> 339 13G<24 88>
VStem: 24 64<0 295 308 352> 128 64<0 295> 232 64<0 295>
LayerCount: 2
Fore
SplineSet
140 360 m 0xdc
 169 360 192 337 192 308 c 1
 192 337 215 360 244 360 c 0
 273 360 296 337 296 308 c 2
 296 0 l 1
 232 0 l 1
 232 276 l 2
 232 287 223 296 212 296 c 0
 201 296 192 287 192 276 c 2
 192 0 l 1
 128 0 l 1
 128 276 l 2
 128 287 119 296 108 296 c 0xdc
 97 296 88 287 88 276 c 2
 88 0 l 1
 24 0 l 1
 24 352 l 1
 88 352 l 1xbc
 88 308 l 1
 88 337 111 360 140 360 c 0xdc
EndSplineSet
MultipleSubs2: "CCMP cartouches" m cart.hwbody
EndChar

StartChar: n
Encoding: 78 110 162
Width: 320
VWidth: 576
Flags: W
HStem: 0 13G<32 96 224 288> 296 64<122 199> 339 13G<32 96>
VStem: 32 64<0 271 326 352> 224 64<0 270>
LayerCount: 2
Fore
SplineSet
32 352 m 1xb8
 96 352 l 1xb8
 96 326 l 1
 116 346 145 360 176 360 c 0
 238 360 288 310 288 248 c 2
 288 0 l 1
 224 0 l 1
 224 232 l 2
 224 267 195 296 160 296 c 0xd8
 125 296 96 267 96 232 c 2
 96 0 l 1
 32 0 l 1
 32 352 l 1xb8
EndSplineSet
MultipleSubs2: "CCMP cartouches" n cart.hwbody
EndChar

StartChar: p
Encoding: 80 112 163
Width: 320
VWidth: 576
Flags: W
HStem: 48 64<122 199> 296 64<122 199> 339 13G<32 96>
VStem: 32 64<-64 81 137 271 326 352> 224 64<137 270>
LayerCount: 2
Fore
SplineSet
160 112 m 0xd8
 195 112 224 141 224 176 c 2
 224 232 l 2
 224 267 195 296 160 296 c 0
 125 296 96 267 96 232 c 2
 96 176 l 2
 96 141 125 112 160 112 c 0xd8
32 -64 m 1
 32 352 l 1
 96 352 l 1xb8
 96 326 l 1
 116 346 145 360 176 360 c 0
 238 360 288 310 288 248 c 2
 288 160 l 2
 288 98 238 48 176 48 c 0
 145 48 116 61 96 81 c 1
 96 -64 l 1
 32 -64 l 1
EndSplineSet
MultipleSubs2: "CCMP cartouches" p cart.hwbody
EndChar

StartChar: q
Encoding: 81 113 164
Width: 320
VWidth: 583
Flags: W
HStem: 48 64<121 198> 296 64<121 198> 339 13G<224 288>
VStem: 32 64<137 270> 224 64<-64 81 137 271 326 352>
LayerCount: 2
Fore
SplineSet
160 112 m 0xd8
 195 112 224 141 224 176 c 2
 224 232 l 2
 224 267 195 296 160 296 c 0
 125 296 96 267 96 232 c 2
 96 176 l 2
 96 141 125 112 160 112 c 0xd8
288 -64 m 1
 224 -64 l 1
 224 81 l 1
 204 61 175 48 144 48 c 0
 82 48 32 98 32 160 c 2
 32 248 l 2
 32 310 82 360 144 360 c 0xd8
 175 360 204 346 224 326 c 1
 224 352 l 1
 288 352 l 1xb8
 288 -64 l 1
EndSplineSet
MultipleSubs2: "CCMP cartouches" q cart.hwbody
EndChar

StartChar: r
Encoding: 82 114 165
Width: 320
VWidth: 576
Flags: W
HStem: 0 13G<32 96> 296 64<124 205> 339 13G<32 96>
VStem: 32 64<0 269 324 352>
LayerCount: 2
Fore
SplineSet
180 360 m 0xd0
 235 360 281 321 293 270 c 1
 232 228 l 1
 232 266 202 296 164 296 c 0xd0
 126 296 96 266 96 228 c 0
 96 164 l 1
 96 0 l 1
 32 0 l 1
 32 352 l 1
 96 352 l 1xb0
 96 324 l 1
 117 346 147 360 180 360 c 0xd0
EndSplineSet
MultipleSubs2: "CCMP cartouches" r cart.hwbody
EndChar

StartChar: s
Encoding: 83 115 166
Width: 320
VWidth: 576
Flags: W
HStem: 0 64<98 221> 144 64<99 221> 288 64<99 222>
VStem: 24 64<74 89 219 277> 232 64<74 133>
LayerCount: 2
Fore
SplineSet
128 352 m 2
 192 352 l 2
 244 352 288 315 298 264 c 1
 236 244 l 1
 236 268 216 288 192 288 c 2
 128 288 l 2
 106 288 88 270 88 248 c 0
 88 226 106 208 128 208 c 2
 192 208 l 2
 250 208 296 162 296 104 c 0
 296 46 250 0 192 0 c 2
 128 0 l 2
 76 0 32 37 22 88 c 1
 84 108 l 1
 84 84 104 64 128 64 c 2
 192 64 l 2
 214 64 232 82 232 104 c 0
 232 126 214 144 192 144 c 2
 128 144 l 2
 70 144 24 190 24 248 c 0
 24 306 70 352 128 352 c 2
EndSplineSet
MultipleSubs2: "CCMP cartouches" s cart.hwbody
EndChar

StartChar: t
Encoding: 84 116 167
Width: 320
VWidth: 576
Flags: W
HStem: -8 64<164 227> 288 64<40 88 152 264>
VStem: 88 64<70 288 352 448>
LayerCount: 2
Fore
SplineSet
88 448 m 1
 152 448 l 1
 152 352 l 1
 264 352 l 1
 264 288 l 1
 152 288 l 1
 152 100 l 2
 152 76 172 56 196 56 c 0
 220 56 240 76 240 100 c 1
 302 81 l 1
 293 30 249 -8 196 -8 c 0
 136 -8 88 40 88 100 c 2
 88 288 l 1
 40 288 l 1
 40 352 l 1
 88 352 l 1
 88 448 l 1
EndSplineSet
MultipleSubs2: "CCMP cartouches" t cart.hwbody
EndChar

StartChar: u
Encoding: 85 117 168
Width: 320
VWidth: 576
Flags: W
HStem: -8 64<121 198> 0 13G<224 288> 339 13G<32 96 224 288>
VStem: 32 64<81 352> 224 64<0 26 81 352>
LayerCount: 2
Fore
SplineSet
288 0 m 1x78
 224 0 l 1x78
 224 26 l 1
 204 6 175 -8 144 -8 c 0
 82 -8 32 42 32 104 c 2
 32 352 l 1
 96 352 l 1
 96 120 l 2
 96 85 125 56 160 56 c 0xb8
 195 56 224 85 224 120 c 2
 224 352 l 1
 288 352 l 1
 288 0 l 1x78
EndSplineSet
MultipleSubs2: "CCMP cartouches" u cart.hwbody
EndChar

StartChar: v
Encoding: 86 118 169
Width: 320
VWidth: 576
Flags: W
HStem: 0 13G<125 195> 339 13G<32 101 219 288>
LayerCount: 2
Fore
SplineSet
32 352 m 1
 98 352 l 1
 160 96 l 1
 222 352 l 1
 288 352 l 1
 192 0 l 1
 128 0 l 1
 32 352 l 1
EndSplineSet
MultipleSubs2: "CCMP cartouches" v cart.hwbody
EndChar

StartChar: w
Encoding: 87 119 170
Width: 320
VWidth: 576
Flags: W
HStem: 0 13G<53 131 189 267> 340 12G<54 68 240 304>
VStem: 16 64<182 352> 240 64<183 352>
CounterMasks: 1 38
LayerCount: 2
Fore
SplineSet
16 352 m 1
 16 352 44 353 63 353 c 0
 73 353 80 352 80 352 c 0
 80 273 88 197 104 123 c 1
 128 256 l 1
 152 256 l 1
 192 256 l 1
 218 133 l 1
 233 204 240 276 240 352 c 1
 240 352 268 352 287 352 c 0
 297 352 304 352 304 352 c 1
 304 229 285 111 250 0 c 1
 192 0 l 1
 160 160 l 1
 128 0 l 1
 70 0 l 1
 35 111 16 229 16 352 c 1
EndSplineSet
MultipleSubs2: "CCMP cartouches" w cart.hwbody
EndChar

StartChar: x
Encoding: 88 120 171
Width: 320
VWidth: 576
Flags: W
HStem: 0 13G<24 105 215 296> 339 13G<24 105 215 296>
LayerCount: 2
Fore
SplineSet
24 352 m 1
 97 352 l 1
 160 241 l 1
 223 352 l 1
 296 352 l 1
 196 176 l 1
 296 0 l 1
 223 0 l 1
 160 111 l 1
 97 0 l 1
 24 0 l 1
 124 176 l 1
 24 352 l 1
EndSplineSet
MultipleSubs2: "CCMP cartouches" x cart.hwbody
EndChar

StartChar: y
Encoding: 89 121 172
Width: 320
VWidth: 576
Flags: W
HStem: -64 64<36 90> 339 13G<24 98 222 296>
LayerCount: 2
Fore
SplineSet
24 352 m 1
 93 352 l 1
 160 185 l 1
 227 352 l 1
 296 352 l 1
 153 -4 l 2
 138 -40 103 -64 64 -64 c 0
 49 -64 32 -60 19 -53 c 1
 40 12 l 1
 46 5 54 0 64 0 c 0
 77 0 88 8 93 20 c 2
 125 99 l 1
 24 352 l 1
EndSplineSet
MultipleSubs2: "CCMP cartouches" y cart.hwbody
EndChar

StartChar: z
Encoding: 90 122 173
Width: 320
VWidth: 576
Flags: W
HStem: 0 64<113 288> 288 64<32 207>
LayerCount: 2
Fore
SplineSet
32 352 m 1
 288 352 l 1
 288 288 l 1
 113 64 l 1
 288 64 l 1
 288 0 l 1
 32 0 l 1
 32 64 l 1
 207 288 l 1
 32 288 l 1
 32 352 l 1
EndSplineSet
MultipleSubs2: "CCMP cartouches" z cart.hwbody
EndChar

StartChar: zero
Encoding: 16 48 174
Width: 320
VWidth: 583
Flags: W
HStem: -8 64<121 199> 456 64<121 199>
VStem: 32 64<82 275 357 430> 224 64<82 147 237 430>
LayerCount: 2
Fore
SplineSet
96 275 m 1
 96 120 l 2
 96 85 125 56 160 56 c 0
 195 56 224 85 224 120 c 2
 224 147 l 1
 138 234 l 1
 96 275 l 1
160 456 m 0
 125 456 96 427 96 392 c 2
 96 357 l 1
 182 278 l 1
 224 237 l 1
 224 392 l 2
 224 427 195 456 160 456 c 0
160 520 m 0
 231 520 288 463 288 392 c 2
 288 120 l 2
 288 49 231 -8 160 -8 c 0
 89 -8 32 49 32 120 c 2
 32 392 l 2
 32 463 89 520 160 520 c 0
EndSplineSet
MultipleSubs2: "CCMP cartouches" zero cart.hwbody
EndChar

StartChar: one
Encoding: 17 49 175
Width: 320
VWidth: 576
Flags: W
HStem: 0 64<36 132 196 292> 499 13G<119 196>
VStem: 132 64<64 422>
LayerCount: 2
Fore
SplineSet
132 512 m 1
 196 512 l 1
 196 64 l 1
 292 64 l 1
 292 0 l 1
 196 0 l 1
 132 0 l 1
 36 0 l 1
 36 64 l 1
 132 64 l 1
 132 422 l 1
 36 326 l 1
 36 416 l 1
 132 512 l 1
EndSplineSet
MultipleSubs2: "CCMP cartouches" one cart.hwbody
EndChar

StartChar: two
Encoding: 18 50 176
Width: 320
VWidth: 583
Flags: W
HStem: 0 64<110 288> 456 64<121 199>
VStem: 32 64<368 430> 224 64<323 430>
LayerCount: 2
Fore
SplineSet
224 360 m 2
 224 392 l 2
 224 427 195 456 160 456 c 0
 125 456 96 427 96 392 c 2
 96 368 l 1
 32 368 l 1
 32 392 l 2
 32 462 90 520 160 520 c 0
 230 520 288 462 288 392 c 2
 288 360 l 2
 288 334 280 309 265 287 c 2
 110 64 l 1
 288 64 l 1
 288 0 l 1
 32 0 l 1
 32 64 l 1
 212 323 l 2
 220 334 224 347 224 360 c 2
EndSplineSet
MultipleSubs2: "CCMP cartouches" two cart.hwbody
EndChar

StartChar: three
Encoding: 19 51 177
Width: 320
VWidth: 583
Flags: W
HStem: -8 64<121 199> 224 64<136 199> 456 64<121 199>
VStem: 32 64<82 144 368 430> 224 64<82 198 314 430>
LayerCount: 2
Fore
SplineSet
32 368 m 1
 32 392 l 2
 32 462 90 520 160 520 c 0
 230 520 288 462 288 392 c 2
 288 352 l 2
 288 316 272 280 244 256 c 1
 272 232 288 196 288 160 c 2
 288 120 l 2
 288 50 230 -8 160 -8 c 0
 90 -8 32 50 32 120 c 2
 32 144 l 1
 96 144 l 1
 96 120 l 2
 96 85 125 56 160 56 c 0
 195 56 224 85 224 120 c 1
 224 160 l 1
 224 195 195 224 160 224 c 2
 136 224 l 1
 136 288 l 1
 160 288 l 2
 195 288 224 317 224 352 c 2
 224 392 l 2
 224 427 195 456 160 456 c 0
 125 456 96 427 96 392 c 2
 96 368 l 1
 32 368 l 1
EndSplineSet
MultipleSubs2: "CCMP cartouches" three cart.hwbody
EndChar

StartChar: four
Encoding: 20 52 178
Width: 320
VWidth: 576
Flags: W
HStem: 0 13G<228 292> 128 64<101 228> 499 13G<96 164 228 292>
VStem: 228 64<0 128 192 512>
LayerCount: 2
Fore
SplineSet
99 512 m 1
 164 512 l 1
 101 192 l 1
 228 192 l 1
 228 512 l 1
 292 512 l 1
 292 192 l 1
 292 128 l 1
 292 0 l 1
 228 0 l 1
 228 128 l 1
 36 128 l 1
 36 192 l 1
 99 512 l 1
EndSplineSet
MultipleSubs2: "CCMP cartouches" four cart.hwbody
EndChar

StartChar: five
Encoding: 21 53 179
Width: 320
VWidth: 576
Flags: W
HStem: -8 64<121 199> 256 64<96 198> 448 64<96 288>
VStem: 32 64<82 120 320 448> 224 64<82 230>
LayerCount: 2
Fore
SplineSet
288 192 m 2
 288 120 l 2
 288 50 230 -8 160 -8 c 0
 90 -8 32 50 32 120 c 1
 96 120 l 1
 96 85 125 56 160 56 c 0
 195 56 224 85 224 120 c 2
 224 192 l 2
 224 227 195 256 160 256 c 2
 32 256 l 1
 32 512 l 1
 288 512 l 1
 288 448 l 1
 96 448 l 1
 96 320 l 1
 160 320 l 2
 230 320 288 262 288 192 c 2
EndSplineSet
MultipleSubs2: "CCMP cartouches" five cart.hwbody
EndChar

StartChar: six
Encoding: 22 54 180
Width: 320
VWidth: 576
Flags: W
HStem: -8 64<121 199> 256 64<166 199> 499 13G<204 288>
VStem: 32 64<82 232> 224 64<82 231>
LayerCount: 2
Fore
SplineSet
288 192 m 2
 288 120 l 2
 288 50 231 -8 160 -8 c 0
 90 -8 32 50 32 120 c 2
 32 204 l 2
 32 216 39 240 52 260 c 2
 212 512 l 1
 288 512 l 1
 166 320 l 1
 234 317 288 260 288 192 c 2
160 56 m 0
 195 56 224 85 224 120 c 2
 224 192 l 2
 224 227 195 256 160 256 c 0
 138 256 118 246 106 227 c 0
 100 217 96 204 96 198 c 2
 96 120 l 2
 96 85 125 56 160 56 c 0
EndSplineSet
MultipleSubs2: "CCMP cartouches" six cart.hwbody
EndChar

StartChar: seven
Encoding: 23 55 181
Width: 320
VWidth: 576
Flags: W
HStem: 0 13G<36 111> 448 64<36 223>
LayerCount: 2
Fore
SplineSet
36 512 m 1
 292 512 l 1
 292 448 l 1
 106 0 l 1
 36 0 l 1
 223 448 l 1
 36 448 l 1
 36 512 l 1
EndSplineSet
MultipleSubs2: "CCMP cartouches" seven cart.hwbody
EndChar

StartChar: eight
Encoding: 24 56 182
Width: 320
VWidth: 583
Flags: W
HStem: -8 64<121 199> 264 64<121 199> 456 64<121 199>
VStem: 32 64<82 238 352 430> 224 64<82 238 352 430>
LayerCount: 2
Fore
SplineSet
160 264 m 0
 125 264 96 235 96 200 c 2
 96 120 l 2
 96 85 125 56 160 56 c 0
 195 56 224 85 224 120 c 2
 224 200 l 2
 224 235 195 264 160 264 c 0
160 456 m 0
 125 456 96 427 96 392 c 0
 96 357 125 328 160 328 c 0
 160 328 l 0
 161 328 161 328 162 328 c 0
 197 329 224 357 224 392 c 0
 224 427 195 456 160 456 c 0
160 520 m 0
 230 520 288 462 288 392 c 0
 288 375 284 331 244 296 c 1
 272 272 288 236 288 200 c 1
 288 120 l 1
 288 50 230 -8 160 -8 c 0
 90 -8 32 50 32 120 c 1
 32 200 l 1
 32 236 48 272 76 296 c 1
 46 322 32 359 32 392 c 0
 32 462 90 520 160 520 c 0
EndSplineSet
MultipleSubs2: "CCMP cartouches" eight cart.hwbody
EndChar

StartChar: nine
Encoding: 25 57 183
Width: 320
VWidth: 583
Flags: W
HStem: 0 13G<32 116> 192 64<121 154> 456 64<121 199>
VStem: 32 64<281 430> 224 64<280 430>
LayerCount: 2
Fore
SplineSet
32 320 m 2
 32 392 l 2
 32 462 90 520 160 520 c 0
 230 520 288 462 288 392 c 2
 288 308 l 2
 288 296 281 272 268 252 c 2
 108 0 l 1
 32 0 l 1
 154 192 l 1
 86 195 32 252 32 320 c 2
160 456 m 0
 125 456 96 427 96 392 c 2
 96 320 l 2
 96 285 125 256 160 256 c 0
 182 256 202 266 214 285 c 0
 220 295 224 308 224 314 c 2
 224 392 l 2
 224 427 195 456 160 456 c 0
EndSplineSet
MultipleSubs2: "CCMP cartouches" nine cart.hwbody
EndChar

StartChar: cart.start
Encoding: 242 989584 184
Width: 320
Flags: W
HStem: -160 64<250 320> 608 64<250 320>
VStem: 64 64<26 486>
LayerCount: 2
Fore
SplineSet
320 -64 m 1025
320 672 m 1
 320 608 l 1
 214 608 128 522 128 416 c 2
 128 96 l 2
 128 -10 214 -96 320 -96 c 1
 320 -96 320 -124 320 -143 c 0
 320 -153 320 -160 320 -160 c 0
 179 -160 64 -45 64 96 c 2
 64 416 l 2
 64 557 179 672 320 672 c 1
EndSplineSet
Ligature2: "LIGA basics" bracketleft
EndChar

StartChar: cart.end
Encoding: 243 989585 185
Width: 320
Flags: HW
HStem: -160 64<0 70> 608 64<0 70>
VStem: 192 64<26 486>
LayerCount: 2
Fore
SplineSet
0 672 m 1
 141 672 256 557 256 416 c 2
 256 96 l 2
 256 -45 141 -160 0 -160 c 1
 -32 -128 l 1
 0 -96 l 1
 106 -96 192 -10 192 96 c 2
 192 416 l 2
 192 522 106 608 0 608 c 1
 -64 640 l 1
 0 672 l 1
EndSplineSet
Ligature2: "LIGA basics" bracketright
EndChar

StartChar: cart.body
Encoding: 244 989586 186
Width: 0
Flags: W
HStem: -160 64<-640 0> 608 64<-640 0>
LayerCount: 2
Fore
SplineSet
0 672 m 1
 0 608 l 1
 -640 608 l 1
 -704 640 l 1
 -640 672 l 1
 0 672 l 1
0 -96 m 1
 0 -160 l 1
 -640 -160 l 1
 -704 -128 l 1
 -640 -96 l 1
 0 -96 l 1
EndSplineSet
EndChar

StartChar: morae.dot
Encoding: 249 989596 187
Width: 320
Flags: W
HStem: 192 128<121 199>
VStem: 96 128<217 295>
LayerCount: 2
Fore
SplineSet
96 256 m 0
 96 291 125 320 160 320 c 0
 195 320 224 291 224 256 c 0
 224 221 195 192 160 192 c 0
 125 192 96 221 96 256 c 0
EndSplineSet
MultipleSubs2: "CCMP cartouches" morae.dot cart.hwbody
EndChar

StartChar: morae.colon
Encoding: 250 989597 188
Width: 320
Flags: W
HStem: 80 128<121 199> 304 128<121 199>
VStem: 96 128<105 183 329 407>
LayerCount: 2
Fore
SplineSet
96 368 m 0
 96 403 125 432 160 432 c 0
 195 432 224 403 224 368 c 0
 224 333 195 304 160 304 c 0
 125 304 96 333 96 368 c 0
96 144 m 0
 96 179 125 208 160 208 c 0
 195 208 224 179 224 144 c 0
 224 109 195 80 160 80 c 0
 125 80 96 109 96 144 c 0
EndSplineSet
Substitution2: "SS20 colon te spacing" morae.colon.hw
Ligature2: "LIGA basics" colon
MultipleSubs2: "CCMP cartouches" morae.colon.hw cart.hwbody
EndChar

StartChar: bracketleft
Encoding: 59 91 189
Width: 320
VWidth: 576
Flags: W
HStem: 0 64<96 288> 448 64<96 288>
VStem: 32 64<64 448>
LayerCount: 2
Fore
SplineSet
288 448 m 1
 96 448 l 1
 96 64 l 1
 288 64 l 1
 288 0 l 1
 32 0 l 1
 32 64 l 1
 32 512 l 1
 288 512 l 1
 288 448 l 1
EndSplineSet
MultipleSubs2: "CCMP cartouches" bracketleft cart.hwbody
EndChar

StartChar: bracketright
Encoding: 61 93 190
Width: 320
VWidth: 576
Flags: W
HStem: 0 64<32 224> 448 64<32 224>
VStem: 224 64<64 448>
LayerCount: 2
Fore
SplineSet
32 448 m 1
 32 512 l 1
 288 512 l 1
 288 64 l 1
 288 0 l 1
 32 0 l 1
 32 64 l 1
 224 64 l 1
 224 448 l 1
 32 448 l 1
EndSplineSet
MultipleSubs2: "CCMP cartouches" bracketright cart.hwbody
EndChar

StartChar: glyph192
Encoding: 14 46 192
Width: 320
VWidth: 0
Flags: W
HStem: -8 96<127 193>
VStem: 112 96<7 73>
LayerCount: 2
Fore
SplineSet
112 40 m 0
 112 66 134 88 160 88 c 0
 186 88 208 66 208 40 c 0
 208 14 186 -8 160 -8 c 0
 134 -8 112 14 112 40 c 0
EndSplineSet
MultipleSubs2: "CCMP cartouches" glyph192 cart.hwbody
EndChar

StartChar: colon
Encoding: 26 58 193
Width: 320
Flags: W
HStem: -8 96<127 193> 208 96<127 193>
VStem: 112 96<7 73 223 289>
LayerCount: 2
Fore
SplineSet
112 256 m 0
 112 282 134 304 160 304 c 0
 186 304 208 282 208 256 c 0
 208 230 186 208 160 208 c 0
 134 208 112 230 112 256 c 0
112 40 m 0
 112 66 134 88 160 88 c 0
 186 88 208 66 208 40 c 0
 208 14 186 -8 160 -8 c 0
 134 -8 112 14 112 40 c 0
EndSplineSet
MultipleSubs2: "CCMP cartouches" colon cart.hwbody
EndChar

StartChar: t.namako
Encoding: 221 989560 194
Width: 640
Flags: W
HStem: 0 64<193 280> 499 13G<304 368>
VStem: 176 64<174 288> 304 64<368 512> 432 64<216 288>
LayerCount: 2
Fore
SplineSet
304 368 m 1
 304 512 l 1
 368 512 l 1
 368 368 l 1
 304 368 l 1
404 359 m 1
 471 486 l 1
 528 457 l 1
 461 330 l 1
 404 359 l 1
268 358 m 1
 211 328 l 1
 144 456 l 1
 201 486 l 1
 268 358 l 1
176 288 m 1
 240 288 l 1
 240 211 224 134 193 64 c 1
 208 64 l 2
 332 64 432 164 432 288 c 1
 496 288 l 1
 496 129 367 0 208 0 c 2
 160 0 l 1
 144 0 l 1
 84 0 l 1
 144 84 176 185 176 288 c 1
EndSplineSet
LCarets2: 5 0 0 0 0 0
MultipleSubs2: "CCMP cartouches" t.namako cart.body
Ligature2: "LIGA basics" n a m a k o
EndChar

StartChar: t.kin
Encoding: 222 989561 195
Width: 640
Flags: W
VStem: 288 64<-16 56 168 240 296 528>
LayerCount: 2
Fore
SplineSet
192 149 m 1
 224 204 l 1
 288 168 l 1
 288 240 l 1
 352 240 l 1
 352 168 l 1
 416 204 l 1
 448 149 l 1
 384 112 l 1
 448 75 l 1
 416 20 l 1
 352 56 l 1
 352 -16 l 1
 288 -16 l 1
 288 56 l 1
 224 20 l 1
 192 75 l 1
 256 112 l 1
 192 149 l 1
288 296 m 1
 288 528 l 1
 352 528 l 1
 352 296 l 1
 288 296 l 1
EndSplineSet
LCarets2: 2 -48 -48
MultipleSubs2: "CCMP cartouches" t.kin cart.body
Ligature2: "LIGA basics" k i n
EndChar

StartChar: t.oko
Encoding: 223 989562 196
Width: 640
Flags: W
HStem: 0 13G<503 535> 499 13G<503 535>
VStem: 384 64<215 294> 512 64<192 317>
LayerCount: 2
Fore
SplineSet
557 57 m 1
 528 0 l 1
 32 256 l 1
 528 512 l 1
 557 455 l 1
 512 431 l 1
 552 384 576 323 576 256 c 0
 576 189 552 128 512 81 c 1
 557 57 l 1
502 318 m 1
 471 314 448 287 448 255 c 0
 448 223 471 196 502 191 c 1
 508 211 512 234 512 256 c 0
 512 278 508 298 502 318 c 1
472 378 m 1
 466 386 460 394 453 401 c 1
 172 256 l 1
 453 111 l 1
 460 118 466 126 472 134 c 1
 421 151 384 199 384 256 c 0
 384 313 421 361 472 378 c 1
EndSplineSet
MultipleSubs2: "CCMP cartouches" t.oko cart.body
Ligature2: "LIGA basics" o k o
EndChar

StartChar: t.kipisi
Encoding: 224 989563 197
Width: 640
Flags: W
HStem: 64 96<431 497> 352 96<143 209>
VStem: 128 96<367 433> 416 96<79 145>
LayerCount: 2
Fore
SplineSet
128 400 m 0
 128 426 150 448 176 448 c 0
 202 448 224 426 224 400 c 0
 224 374 202 352 176 352 c 0
 150 352 128 374 128 400 c 0
416 112 m 0
 416 138 438 160 464 160 c 0
 490 160 512 138 512 112 c 0
 512 86 490 64 464 64 c 0
 438 64 416 86 416 112 c 0
128 109 m 1
 467 448 l 1
 512 403 l 1
 173 64 l 1
 128 109 l 1
EndSplineSet
LCarets2: 5 -48 -48 -48 -48 -48
MultipleSubs2: "CCMP cartouches" t.kipisi cart.body
Ligature2: "LIGA basics" k i p i s i
EndChar

StartChar: t.leko
Encoding: 225 989564 198
Width: 640
Flags: W
HStem: 0 64<128 512> 128 64<256 384> 320 64<256 384> 448 64<128 512>
VStem: 64 64<64 448> 192 64<192 320> 384 64<192 320> 512 64<64 448>
LayerCount: 2
Fore
SplineSet
256 320 m 1
 256 192 l 1
 384 192 l 1
 384 320 l 1
 256 320 l 1
192 384 m 1
 448 384 l 1
 448 128 l 1
 192 128 l 1
 192 384 l 1
128 448 m 1
 128 64 l 1
 512 64 l 1
 512 448 l 1
 128 448 l 1
64 512 m 1
 576 512 l 1
 576 0 l 1
 64 0 l 1
 64 512 l 1
EndSplineSet
MultipleSubs2: "CCMP cartouches" t.leko cart.body
Ligature2: "LIGA basics" l e k o
EndChar

StartChar: t.monsuta
Encoding: 226 989565 199
Width: 640
Flags: W
HStem: 339 13G<153 168 472 487>
LayerCount: 2
Fore
SplineSet
320 416 m 1
 355 341 l 1
 407 231 l 1
 480 352 l 1
 576 176 l 1
 520 145 l 1
 477 223 l 1
 400 96 l 1
 320 266 l 1
 240 96 l 1
 163 223 l 1
 120 145 l 1
 64 176 l 1
 160 352 l 1
 233 231 l 1
 285 341 l 1
 320 416 l 1
EndSplineSet
LCarets2: 6 0 0 0 0 0 0
MultipleSubs2: "CCMP cartouches" t.monsuta cart.body
Ligature2: "LIGA basics" m o n s u t a
EndChar

StartChar: t.tonsi
Encoding: 227 989566 200
Width: 640
Flags: W
HStem: 83 61<263 288 352 377> 400 64<262 378>
VStem: 128 64<215 330> 288 64<-32 85> 448 64<215 330>
LayerCount: 2
Fore
SplineSet
320 400 m 0
 250 400 192 342 192 272 c 0
 192 202 250 144 320 144 c 0
 390 144 448 202 448 272 c 0
 448 342 390 400 320 400 c 0
93 528 m 1
 200 422 l 1
 233 448 275 464 320 464 c 0
 365 464 407 448 440 422 c 1
 547 528 l 1
 592 483 l 1
 483 374 l 1
 502 345 512 309 512 272 c 0
 512 177 443 98 352 83 c 1
 352 -32 l 1
 288 -32 l 1
 288 83 l 1
 197 98 128 177 128 272 c 0
 128 309 138 345 157 374 c 1
 48 483 l 1
 93 528 l 1
EndSplineSet
LCarets2: 4 -48 -48 -48 -48
MultipleSubs2: "CCMP cartouches" t.tonsi cart.body
Ligature2: "LIGA basics" t o n s i
EndChar

StartChar: t.jasima
Encoding: 228 989567 201
Width: 640
Flags: W
HStem: 46 64<383 481> 178 64<159 257> 270 64<383 481> 402 64<159 257>
VStem: 48 64<82 129 306 353> 288 64<-16 67 137 151 221 291 361 375 445 528> 528 64<159 206 383 430>
CounterMasks: 1 0e
LayerCount: 2
Fore
SplineSet
112 306 m 1
 48 306 l 1
 48 394 120 466 208 466 c 0
 237 466 264 459 288 445 c 1
 288 528 l 1
 352 528 l 1
 352 377 l 1
 370 350 399 334 432 334 c 0
 485 334 528 377 528 430 c 1
 592 430 l 1
 592 342 520 270 432 270 c 0
 419 270 387 271 352 291 c 1
 352 153 l 1
 370 126 399 110 432 110 c 0
 485 110 528 153 528 206 c 1
 592 206 l 1
 592 118 520 46 432 46 c 0
 403 46 376 53 352 67 c 1
 352 -16 l 1
 288 -16 l 1
 288 135 l 1
 270 162 241 178 208 178 c 0
 155 178 112 135 112 82 c 1
 48 82 l 1
 48 170 120 242 208 242 c 0
 237 242 264 235 288 221 c 1
 288 359 l 1
 270 386 241 402 208 402 c 0
 155 402 112 359 112 306 c 1
EndSplineSet
LCarets2: 5 -48 -48 -48 -48 -48
MultipleSubs2: "CCMP cartouches" t.jasima cart.body
Ligature2: "LIGA basics" j a s i m a
EndChar

StartChar: t.soko
Encoding: 230 989569 202
Width: 640
Flags: W
HStem: 96 64<192 288 352 448> 256 64<131 288 352 509> 480 64<249.141 390.859>
VStem: 288 64<-16 96 160 256>
LayerCount: 2
Fore
SplineSet
64 256 m 1
 64 288 l 2
 64 430 178 544 320 544 c 0
 462 544 576 430 576 288 c 2
 576 256 l 1
 352 256 l 1
 352 160 l 1
 448 160 l 1
 448 96 l 1
 352 96 l 1
 352 -16 l 1
 288 -16 l 1
 288 96 l 1
 192 96 l 1
 192 160 l 1
 288 160 l 1
 288 256 l 1
 64 256 l 1
131 320 m 1
 509 320 l 1
 494 411 415 480 320 480 c 0
 225 480 146 411 131 320 c 1
EndSplineSet
LCarets2: 3 -48 -48 -48
MultipleSubs2: "CCMP cartouches" t.soko cart.body
Ligature2: "LIGA basics" s o k o
EndChar

StartChar: t.kijetesantakalu
Encoding: 229 989568 203
Width: 640
Flags: W
HStem: -32 64<122 160 224 282> 160 64<122 160> 268 72<328 361> 300 72<416 448> 480 64<346 448>
VStem: 32 64<57 135> 160 64<32 160 224 358> 308 72<288 320> 384 64<-32 160> 396 72<320 364> 448 64<448 480> 480 64<-32 256>
LayerCount: 2
Fore
SplineSet
384 160 m 1xcf80
 448 160 l 1
 448 -32 l 1
 384 -32 l 1
 384 160 l 1xcf80
160 160 m 1
 125 160 96 131 96 96 c 0
 96 61 125 32 160 32 c 1
 160 160 l 1
346 340 m 2xef
 359 339 370 332 376 321 c 0
 379 316 380 310 380 304 c 0
 380 290 373 278 361 272 c 0
 356 269 350 268 344 268 c 0
 330 268 318 275 312 287 c 0
 309 292 308 298 308 304 c 0
 308 318 316 330 328 336 c 0
 333 339 338 340 344 340 c 0
 345 340 345 340 346 340 c 2xef
434 372 m 2xdf40
 447 371 458 364 464 353 c 0
 467 348 468 342 468 336 c 0
 468 322 461 310 449 304 c 0
 444 301 438 300 432 300 c 0
 418 300 406 307 400 319 c 0
 397 324 396 330 396 336 c 0
 396 350 403 362 415 368 c 0
 420 371 426 372 432 372 c 0
 433 372 433 372 434 372 c 2xdf40
416 544 m 2
 448 544 l 1
 512 544 l 1
 512 480 l 1
 512 448 l 1xdf20
 569 372 l 1
 608 320 l 1
 544 256 l 1
 544 -32 l 1
 480 -32 l 1
 480 207 l 1
 480 282 l 1xdf10
 524 326 l 1
 448 427 l 1
 448 480 l 1xdf20
 416 480 l 2
 310 480 224 394 224 288 c 2
 224 32 l 1
 282 32 l 1
 272 160 l 1
 336 160 l 1
 352 -32 l 1
 336 -32 l 1
 224 -32 l 1
 160 -32 l 2
 90 -32 32 26 32 96 c 0
 32 166 90 224 160 224 c 1
 160 288 l 2
 160 429 275 544 416 544 c 2
EndSplineSet
LCarets2: 14 -48 -48 -48 -48 -48 -48 -48 -48 -48 -48 -48 -48 -48 -48
MultipleSubs2: "CCMP cartouches" t.kijetesantakalu cart.body
Ligature2: "LIGA basics" k i j e t e s a n t a k a l u
EndChar

StartChar: t.meso
Encoding: 231 989570 204
Width: 640
Flags: W
HStem: 0 21G<128 192 448 512> 208 96<285.875 354.125> 492 20G<128 192 448 512>
VStem: 128 64<0 512> 272 96<221.875 290.125> 448 64<0 512>
CounterMasks: 1 1c
LayerCount: 2
Fore
SplineSet
272 256 m 0
 272 283 293 304 320 304 c 0
 347 304 368 283 368 256 c 0
 368 229 347 208 320 208 c 0
 293 208 272 229 272 256 c 0
128 0 m 1
 128 512 l 1
 192 512 l 1
 192 0 l 1
 128 0 l 1
448 0 m 1
 448 512 l 1
 512 512 l 1
 512 0 l 1
 448 0 l 1
EndSplineSet
LCarets2: 3 -48 -48 -48
MultipleSubs2: "CCMP cartouches" t.meso cart.body
Ligature2: "LIGA basics" m e s o
EndChar

StartChar: t.epiku
Encoding: 232 989571 205
Width: 640
Flags: W
HStem: 16 64<258.402 381.598> 352 21G<288 352>
VStem: 96 64<178.929 240> 288 64<352 496> 480 64<178.929 240>
CounterMasks: 1 38
LayerCount: 2
Fore
SplineSet
288 352 m 1
 288 496 l 1
 352 496 l 1
 352 352 l 1
 288 352 l 1
390 339 m 1
 477 454 l 1
 528 416 l 1
 442 301 l 1
 390 339 l 1
250 339 m 1
 198 301 l 1
 112 416 l 1
 163 454 l 1
 250 339 l 1
320 16 m 0
 197 16 96 117 96 240 c 1
 96 240 103 240 112 240 c 0
 131 240 160 240 160 240 c 1
 160 152 232 80 320 80 c 0
 408 80 480 152 480 240 c 1
 480 240 488 240 497 240 c 0
 516 240 544 240 544 240 c 1
 544 117 443 16 320 16 c 0
EndSplineSet
LCarets2: 4 -48 -48 -48 -48
MultipleSubs2: "CCMP cartouches" t.epiku cart.body
Ligature2: "LIGA basics" e p i k u
EndChar

StartChar: t.kokosila
Encoding: 233 989572 206
Width: 640
Flags: W
HStem: -16 64<263.825 377.744> 304 64<262.256 378.892> 358 21G<179.75 227.129 412.871 460.25>
VStem: 128 64<148.246 233.744> 288 64<400 528> 448 64<118.256 216.363>
CounterMasks: 1 1c
LayerCount: 2
Fore
SplineSet
224 92 m 1x9c
 247 65 282 48 320 48 c 0
 391 48 448 105 448 176 c 0
 448 190 446 205 442 217 c 1
 224 92 l 1x9c
135 40 m 1
 103 96 l 1
 138 116 l 1
 131 135 128 155 128 176 c 0
 128 282 214 368 320 368 c 0xdc
 377 368 428 342 463 303 c 1
 505 328 l 1
 537 272 l 1
 498 249 l 1
 507 227 512 202 512 176 c 0
 512 70 426 -16 320 -16 c 0
 258 -16 203 13 168 59 c 1
 135 40 l 1
288 400 m 1
 288 528 l 1
 352 528 l 1
 352 400 l 1
 288 400 l 1
393 389 m 1
 456 501 l 1
 512 470 l 1
 449 358 l 1xbc
 393 389 l 1
247 389 m 1
 191 358 l 1
 128 470 l 1
 184 501 l 1
 247 389 l 1
320 304 m 0xdc
 249 304 192 247 192 176 c 0
 192 167 193 157 195 148 c 1
 406 271 l 1
 384 292 353 304 320 304 c 0xdc
EndSplineSet
LCarets2: 7 -48 -48 -48 -48 -48 -48 -48
MultipleSubs2: "CCMP cartouches" t.kokosila cart.body
Ligature2: "LIGA basics" k o k o s i l a
EndChar

StartChar: t.lanpan
Encoding: 234 989573 207
Width: 640
Flags: W
HStem: -32 64<153.228 230.772> 48 96<380.875 449.125> 192 64<367.393 464.607> 288 64<280.084 358.272> 480 64<280.823 358.177>
VStem: 64 64<57.2281 191.885> 191 64<390.624 454.772> 256 64<57.8225 143.443> 367 96<61.875 130.125> 383 65<377.228 454.772> 512 64<47.4481 144.607>
LayerCount: 2
Fore
SplineSet
319 544 m 2xff60
 320 544 l 2
 391 544 448 487 448 416 c 0
 448 345 391 288 320 288 c 0
 280 288 244 307 221 335 c 1
 161 270 128 184 128 96 c 0
 128 61 157 32 192 32 c 0
 227 32 256 61 256 96 c 0
 256 184 328 256 416 256 c 0
 504 256 576 184 576 96 c 0
 576 46 552 -2 512 -32 c 1
 473 19 l 1
 497 37 512 66 512 96 c 0
 512 149 469 192 416 192 c 0
 363 192 320 149 320 96 c 0
 320 25 263 -32 192 -32 c 0
 121 -32 64 25 64 96 c 0
 64 210 111 320 193 398 c 1
 191 404 191 409 191 416 c 0
 191 487 248 544 319 544 c 2xff60
319 480 m 0
 284 480 255 451 255 416 c 0
 255 381 284 352 319 352 c 0
 354 352 383 381 383 416 c 0
 383 451 354 480 319 480 c 0
415 144 m 0
 442 144 463 123 463 96 c 0
 463 69 442 48 415 48 c 0
 388 48 367 69 367 96 c 0xffa0
 367 123 388 144 415 144 c 0
EndSplineSet
LCarets2: 5 -48 -48 -48 -48 -48
MultipleSubs2: "CCMP cartouches" t.lanpan cart.body
Ligature2: "LIGA basics" l a n p a n
EndChar

StartChar: t.n
Encoding: 235 989574 208
Width: 640
Flags: W
HStem: 168 64<281.228 358.772>
VStem: 192 64<-16 142.177> 288 64<288 528> 384 64<-16 142.177>
CounterMasks: 1 70
LayerCount: 2
Fore
SplineSet
288 288 m 1
 288 528 l 1
 352 528 l 1
 352 288 l 1
 288 288 l 1
320 232 m 0
 391 232 448 175 448 104 c 2
 448 -16 l 1
 384 -16 l 1
 384 104 l 2
 384 139 355 168 320 168 c 0
 285 168 256 139 256 104 c 2
 256 -16 l 1
 192 -16 l 1
 192 104 l 2
 192 175 249 232 320 232 c 0
EndSplineSet
MultipleSubs2: "CCMP cartouches" t.n cart.body
Ligature2: "LIGA basics" n
EndChar

StartChar: t.misikeke
Encoding: 236 989575 209
Width: 640
Flags: W
HStem: -16 64<276.363 363.637> 224 64<240 400> 464 64<276.363 363.637>
VStem: 176 64<85.3752 224 288 426.625> 400 64<85.3752 224 288 426.625>
CounterMasks: 1 e0
LayerCount: 2
Fore
SplineSet
320 528 m 0
 399 528 464 463 464 384 c 2
 464 128 l 2
 464 49 399 -16 320 -16 c 0
 241 -16 176 49 176 128 c 2
 176 384 l 2
 176 463 241 528 320 528 c 0
320 464 m 0
 276 464 240 428 240 384 c 2
 240 288 l 1
 400 288 l 1
 400 384 l 2
 400 428 364 464 320 464 c 0
240 224 m 1
 240 128 l 2
 240 84 276 48 320 48 c 0
 364 48 400 84 400 128 c 2
 400 224 l 1
 240 224 l 1
EndSplineSet
LCarets2: 7 -48 -48 -48 -48 -48 -48 -48
MultipleSubs2: "CCMP cartouches" t.misikeke cart.body
Ligature2: "LIGA basics" m i s i k e k e
EndChar

StartChar: t.ku
Encoding: 237 989576 210
Width: 640
Flags: W
HStem: 0 64<176 288 354 464> 112 96<365.875 434.125> 448 64<176 328>
VStem: 112 64<64 448> 352 96<125.875 194.125> 464 64<64 240 306 448>
LayerCount: 2
Fore
SplineSet
112 512 m 1
 528 512 l 1
 528 0 l 1
 112 0 l 1
 112 512 l 1
176 448 m 1
 176 64 l 1
 288 64 l 1
 208 384 l 1
 328 448 l 1
 176 448 l 1
464 448 m 1
 282 352 l 1
 464 306 l 1
 464 448 l 1
300 281 m 1
 354 64 l 1
 464 64 l 1
 464 240 l 1
 300 281 l 1
400 208 m 0
 427 208 448 187 448 160 c 0
 448 133 427 112 400 112 c 0
 373 112 352 133 352 160 c 0
 352 187 373 208 400 208 c 0
EndSplineSet
LCarets2: 1 -48
MultipleSubs2: "CCMP cartouches" t.ku cart.body
Ligature2: "LIGA basics" k u
EndChar

StartChar: t.pake
Encoding: 252 989600 211
Width: 640
Flags: W
HStem: 0 21G<288 352> 448 64<96 288 352 544>
VStem: 288 64<0 448>
LayerCount: 2
Fore
SplineSet
96 448 m 1
 96 512 l 1
 544 512 l 1
 544 448 l 1
 352 448 l 1
 352 0 l 1
 288 0 l 1
 288 448 l 1
 96 448 l 1
EndSplineSet
LCarets2: 3 -48 -48 -48
MultipleSubs2: "CCMP cartouches" t.pake cart.body
Ligature2: "LIGA basics" p a k e
EndChar

StartChar: t.apeja
Encoding: 253 989601 212
Width: 640
Flags: W
HStem: -32 64<286.258 353.742> 128 64<286.258 353.742> 320 64<110.258 177.742 462.258 529.742> 332 20G<290.526 349.474> 480 64<110.258 177.742 462.258 529.742>
VStem: 32 64<398.258 465.742> 192 64<398.258 465.742> 208 64<46.2581 113.742> 368 64<46.2581 113.742> 384 64<398.258 465.742> 544 64<398.258 465.742>
LayerCount: 2
Fore
SplineSet
320 352 m 1xdc20
 572 181 l 1
 536 128 l 1
 320 275 l 1
 104 128 l 1
 68 181 l 1
 320 352 l 1xdc20
144 544 m 0
 206 544 256 494 256 432 c 0
 256 370 206 320 144 320 c 0xee20
 82 320 32 370 32 432 c 0
 32 494 82 544 144 544 c 0
144 480 m 0
 117 480 96 459 96 432 c 0
 96 405 117 384 144 384 c 0
 171 384 192 405 192 432 c 0
 192 459 171 480 144 480 c 0
320 192 m 0
 382 192 432 142 432 80 c 0
 432 18 382 -32 320 -32 c 0
 258 -32 208 18 208 80 c 0xcda0
 208 142 258 192 320 192 c 0
320 128 m 0
 293 128 272 107 272 80 c 0
 272 53 293 32 320 32 c 0
 347 32 368 53 368 80 c 0
 368 107 347 128 320 128 c 0
496 544 m 0
 558 544 608 494 608 432 c 0
 608 370 558 320 496 320 c 0
 434 320 384 370 384 432 c 0xec60
 384 494 434 544 496 544 c 0
496 480 m 0
 469 480 448 459 448 432 c 0
 448 405 469 384 496 384 c 0
 523 384 544 405 544 432 c 0
 544 459 523 480 496 480 c 0
EndSplineSet
MultipleSubs2: "CCMP cartouches" t.apeja cart.body
Ligature2: "LIGA basics" a p e j a
EndChar

StartChar: t.majuna
Encoding: 254 989602 213
Width: 640
Flags: W
HStem: 128 64<64 224 416 576>
VStem: 288 64<256 416>
LayerCount: 2
Fore
SplineSet
416 128 m 1
 416 192 l 1
 576 192 l 1
 576 128 l 1
 416 128 l 1
365 251 m 1
 478 363 l 1
 523 318 l 1
 411 205 l 1
 365 251 l 1
275 251 m 1
 229 205 l 1
 117 318 l 1
 162 363 l 1
 275 251 l 1
288 416 m 1
 352 416 l 1
 352 256 l 1
 288 256 l 1
 288 416 l 1
64 128 m 1
 64 192 l 1
 224 192 l 1
 224 128 l 1
 64 128 l 1
EndSplineSet
LCarets2: 5 -48 -48 -48 -48 -48
MultipleSubs2: "CCMP cartouches" t.majuna cart.body
Ligature2: "LIGA basics" m a j u n a
EndChar

StartChar: t.powe
Encoding: 255 989603 214
Width: 640
Flags: W
HStem: 96 64<64 576>
LayerCount: 2
Fore
SplineSet
64 96 m 1
 64 160 l 1
 576 160 l 1
 576 96 l 1
 64 96 l 1
252 433 m 1
 320 365 l 1
 388 433 l 1
 433 388 l 1
 365 320 l 1
 433 252 l 1
 388 207 l 1
 320 275 l 1
 252 207 l 1
 207 252 l 1
 275 320 l 1
 207 388 l 1
 252 433 l 1
EndSplineSet
LCarets2: 3 -48 -48 -48
MultipleSubs2: "CCMP cartouches" t.powe cart.body
Ligature2: "LIGA basics" p o w e
EndChar

StartChar: morae.dotdot
Encoding: 280 -1 215
Width: 640
Flags: W
HStem: 192 128<169 247 393 471>
VStem: 144 128<217 295> 368 128<217 295>
LayerCount: 2
Fore
SplineSet
432 320 m 0
 467 320 496 291 496 256 c 0
 496 221 467 192 432 192 c 0
 397 192 368 221 368 256 c 0
 368 291 397 320 432 320 c 0
208 320 m 0
 243 320 272 291 272 256 c 0
 272 221 243 192 208 192 c 0
 173 192 144 221 144 256 c 0
 144 291 173 320 208 320 c 0
EndSplineSet
Ligature2: "LIGA basics" morae.dot morae.dot
LCarets2: 1 0
MultipleSubs2: "CCMP cartouches" morae.dotdot cart.body
Ligature2: "LIGA basics" glyph192 glyph192
EndChar

StartChar: morae.dotdotdot
Encoding: 281 -1 216
Width: 640
Flags: W
HStem: 192 128<89 167 281 359 473 551>
VStem: 64 128<217 295> 256 128<217 295> 448 128<217 295>
CounterMasks: 1 70
LayerCount: 2
Fore
SplineSet
128 320 m 0
 163 320 192 291 192 256 c 0
 192 221 163 192 128 192 c 0
 93 192 64 221 64 256 c 0
 64 291 93 320 128 320 c 0
512 320 m 0
 547 320 576 291 576 256 c 0
 576 221 547 192 512 192 c 0
 477 192 448 221 448 256 c 0
 448 291 477 320 512 320 c 0
320 320 m 0
 355 320 384 291 384 256 c 0
 384 221 355 192 320 192 c 0
 285 192 256 221 256 256 c 0
 256 291 285 320 320 320 c 0
EndSplineSet
Ligature2: "LIGA basics" morae.dot morae.dot morae.dot
LCarets2: 2 0 0
MultipleSubs2: "CCMP cartouches" morae.dotdotdot cart.body
Ligature2: "LIGA basics" glyph192 glyph192 glyph192
EndChar

StartChar: exclam
Encoding: 1 33 217
Width: 320
Flags: W
HStem: 0 96<127 193>
VStem: 112 96<15 81> 128 64<136 520>
LayerCount: 2
Fore
SplineSet
112 48 m 0xc0
 112 74 134 96 160 96 c 0
 186 96 208 74 208 48 c 0
 208 22 186 0 160 0 c 0
 134 0 112 22 112 48 c 0xc0
128 136 m 1xa0
 128 520 l 1
 192 520 l 1
 192 136 l 1
 128 136 l 1xa0
EndSplineSet
MultipleSubs2: "CCMP cartouches" exclam cart.hwbody
EndChar

StartChar: quotedbl
Encoding: 2 34 218
Width: 320
Flags: W
HStem: 392 128<64 128 192 256>
VStem: 64 64<392 520> 192 64<392 520>
LayerCount: 2
Fore
SplineSet
64 392 m 1
 64 520 l 1
 128 520 l 1
 128 392 l 1
 64 392 l 1
192 392 m 1
 192 520 l 1
 256 520 l 1
 256 392 l 1
 192 392 l 1
EndSplineSet
MultipleSubs2: "CCMP cartouches" quotedbl cart.hwbody
EndChar

StartChar: numbersign
Encoding: 3 35 219
Width: 320
Flags: W
HStem: 136 64<24 64 128 192 256 296> 328 64<24 64 128 192 256 296>
VStem: 64 64<8 136 200 328 392 520> 192 64<8 136 200 328 392 520>
LayerCount: 2
Fore
SplineSet
128 200 m 1
 192 200 l 1
 192 328 l 1
 128 328 l 1
 128 200 l 1
64 136 m 1
 24 136 l 1
 24 200 l 1
 64 200 l 1
 64 328 l 1
 24 328 l 1
 24 392 l 1
 64 392 l 1
 64 520 l 1
 128 520 l 1
 128 392 l 1
 192 392 l 1
 192 520 l 1
 256 520 l 1
 256 392 l 1
 296 392 l 1
 296 328 l 1
 256 328 l 1
 256 200 l 1
 296 200 l 1
 296 136 l 1
 256 136 l 1
 256 8 l 1
 192 8 l 1
 192 136 l 1
 128 136 l 1
 128 8 l 1
 64 8 l 1
 64 136 l 1
EndSplineSet
MultipleSubs2: "CCMP cartouches" numbersign cart.hwbody
EndChar

StartChar: dollar
Encoding: 4 36 220
Width: 320
Flags: W
HStem: 0 13G<128 192> 360 13G<224 288>
VStem: 32 64<128 168 321 400> 128 64<0 48 113 223 305 415 480 528> 224 64<128 207 360 400>
CounterMasks: 1 70
LayerCount: 2
Fore
SplineSet
128 305 m 1
 128 415 l 1
 109 404 96 384 96 360 c 0
 96 336 109 316 128 305 c 1
192 223 m 1
 192 113 l 1
 211 124 224 144 224 168 c 0
 224 192 211 212 192 223 c 1
128 484 m 1
 128 528 l 1
 192 528 l 1
 192 484 l 1
 247 470 288 420 288 360 c 1
 224 360 l 1
 224 384 211 404 192 415 c 1
 192 292 l 1
 247 278 288 228 288 168 c 0
 288 108 247 58 192 44 c 1
 192 0 l 1
 128 0 l 1
 128 44 l 1
 73 58 32 108 32 168 c 1
 96 168 l 1
 96 144 109 124 128 113 c 1
 128 236 l 1
 73 250 32 300 32 360 c 0
 32 420 73 470 128 484 c 1
EndSplineSet
MultipleSubs2: "CCMP cartouches" dollar cart.hwbody
EndChar

StartChar: percent
Encoding: 5 37 221
Width: 320
Flags: W
HStem: 0 120<198 274> 408 120<46 122>
VStem: 24 120<430 506> 176 120<22 98>
LayerCount: 2
Fore
SplineSet
227 520 m 1
 296 520 l 1
 93 8 l 1
 24 8 l 1
 227 520 l 1
24 468 m 0
 24 501 51 528 84 528 c 0
 117 528 144 501 144 468 c 0
 144 435 117 408 84 408 c 0
 51 408 24 435 24 468 c 0
176 60 m 0
 176 93 203 120 236 120 c 0
 269 120 296 93 296 60 c 0
 296 27 269 0 236 0 c 0
 203 0 176 27 176 60 c 0
EndSplineSet
MultipleSubs2: "CCMP cartouches" percent cart.hwbody
EndChar

StartChar: ampersand
Encoding: 6 38 222
Width: 320
Flags: W
HStem: 0 64<119 186> 464 64<96 152>
VStem: 24 64<95 181 391 456> 160 64<394 456> 232 63<125 272>
LayerCount: 2
Fore
SplineSet
124 528 m 0
 179 528 224 483 224 428 c 0
 224 411 220 395 212 380 c 2
 156 279 l 1
 231 125 l 1
 232 129 232 132 232 136 c 2
 232 272 l 1
 296 272 l 1
 296 136 l 2
 296 104 286 75 267 52 c 1
 288 8 l 1
 217 8 l 1
 215 12 l 1
 198 4 180 0 160 0 c 0
 85 0 24 61 24 136 c 0
 24 159 30 182 41 202 c 2
 84 281 l 1
 34 384 l 2
 28 397 24 413 24 428 c 0
 24 483 69 528 124 528 c 0
124 464 m 0
 104 464 88 448 88 428 c 0
 88 422 89 417 92 412 c 2
 122 349 l 1
 156 411 l 2
 159 416 160 422 160 428 c 0
 160 448 144 464 124 464 c 0
118 211 m 1
 97 171 l 2
 91 160 88 148 88 136 c 0
 88 96 120 64 160 64 c 0
 170 64 179 66 187 69 c 1
 118 211 l 1
EndSplineSet
MultipleSubs2: "CCMP cartouches" ampersand cart.hwbody
EndChar

StartChar: quotesingle
Encoding: 7 39 223
Width: 320
Flags: W
HStem: 392 128<128 192>
VStem: 128 64<392 520>
LayerCount: 2
Fore
SplineSet
128 392 m 1
 128 520 l 1
 192 520 l 1
 192 392 l 1
 128 392 l 1
EndSplineSet
MultipleSubs2: "CCMP cartouches" quotesingle cart.hwbody
EndChar

StartChar: parenleft
Encoding: 8 40 224
Width: 320
Flags: W
HStem: -8 13G<171 216>
VStem: 64 64<182 347>
LayerCount: 2
Fore
SplineSet
216 536 m 1
 250 482 l 1
 177 437 128 356 128 264 c 0
 128 111 250 49 250 46 c 0
 250 45 216 -8 216 -8 c 1
 124 48 64 149 64 264 c 0
 64 379 124 480 216 536 c 1
EndSplineSet
MultipleSubs2: "CCMP cartouches" parenleft cart.hwbody
EndChar

StartChar: parenright
Encoding: 9 41 225
Width: 320
Flags: W
HStem: -8 13G<104 158>
VStem: 200 64<181 347>
LayerCount: 2
Fore
SplineSet
112 536 m 1
 204 480 264 379 264 264 c 0
 264 149 204 48 112 -8 c 1
 78 46 l 1
 151 91 200 172 200 264 c 0
 200 356 151 437 78 482 c 1
 112 536 l 1
EndSplineSet
MultipleSubs2: "CCMP cartouches" parenright cart.hwbody
EndChar

StartChar: asterisk
Encoding: 10 42 226
Width: 320
Flags: W
VStem: 128 64<264 344 440 520>
LayerCount: 2
Fore
SplineSet
128 520 m 1
 192 520 l 1
 192 440 l 1
 255 484 l 1
 287 428 l 1
 216 392 l 1
 287 356 l 1
 255 300 l 1
 192 344 l 1
 192 264 l 1
 128 264 l 1
 128 344 l 1
 65 300 l 1
 33 356 l 1
 104 392 l 1
 33 428 l 1
 65 484 l 1
 128 440 l 1
 128 520 l 1
EndSplineSet
MultipleSubs2: "CCMP cartouches" asterisk cart.hwbody
EndChar

StartChar: plus
Encoding: 11 43 227
Width: 320
Flags: W
HStem: 232 65<32 128 192 288>
VStem: 128 64<136 232 296 392>
LayerCount: 2
Fore
SplineSet
128 392 m 1
 192 392 l 1
 192 296 l 1
 288 296 l 1
 288 232 l 1
 192 232 l 1
 192 136 l 1
 128 136 l 1
 128 232 l 1
 32 232 l 1
 32 296 l 1
 128 296 l 1
 128 392 l 1
EndSplineSet
MultipleSubs2: "CCMP cartouches" plus cart.hwbody
EndChar

StartChar: comma
Encoding: 12 44 228
Width: 320
Flags: W
HStem: -24 113<120 152>
VStem: 120 80<-35 -24>
LayerCount: 2
Fore
SplineSet
120 88 m 1
 200 88 l 1
 152 -24 l 1
 120 -24 l 1
 120 88 l 1
EndSplineSet
MultipleSubs2: "CCMP cartouches" comma cart.hwbody
EndChar

StartChar: hyphen
Encoding: 13 45 229
Width: 320
Flags: W
HStem: 232 64<32 288>
LayerCount: 2
Fore
SplineSet
32 232 m 1
 32 296 l 1
 288 296 l 1
 288 232 l 1
 32 232 l 1
EndSplineSet
MultipleSubs2: "CCMP cartouches" hyphen cart.hwbody
EndChar

StartChar: slash
Encoding: 15 47 230
Width: 320
Flags: W
HStem: 0 13G<24 98> 499 13G<222 296>
LayerCount: 2
Fore
SplineSet
227 512 m 1
 296 512 l 1
 93 0 l 1
 24 0 l 1
 227 512 l 1
EndSplineSet
MultipleSubs2: "CCMP cartouches" slash cart.hwbody
EndChar

StartChar: less
Encoding: 28 60 231
Width: 320
Flags: W
LayerCount: 2
Fore
SplineSet
288 394 m 1
 288 326 l 1
 122 264 l 1
 288 202 l 1
 288 134 l 1
 32 230 l 1
 32 298 l 1
 288 394 l 1
EndSplineSet
MultipleSubs2: "CCMP cartouches" less cart.hwbody
EndChar

StartChar: equal
Encoding: 29 61 232
Width: 320
VWidth: 576
Flags: W
HStem: 160 64<32 288> 288 64<32 288>
LayerCount: 2
Fore
SplineSet
32 288 m 1
 32 352 l 1
 288 352 l 1
 288 288 l 1
 32 288 l 1
32 160 m 1
 32 224 l 1
 288 224 l 1
 288 160 l 1
 32 160 l 1
EndSplineSet
MultipleSubs2: "CCMP cartouches" equal cart.hwbody
EndChar

StartChar: greater
Encoding: 30 62 233
Width: 320
VWidth: 576
Flags: W
LayerCount: 2
Fore
SplineSet
32 387 m 1
 288 291 l 1
 288 221 l 1
 32 125 l 1
 32 126 l 1
 32 194 l 1
 198 256 l 1
 32 318 l 1
 32 387 l 1
EndSplineSet
MultipleSubs2: "CCMP cartouches" greater cart.hwbody
EndChar

StartChar: question
Encoding: 31 63 234
Width: 320
VWidth: 592
Flags: W
HStem: 0 96<119 185> 464 64<111 193>
VStem: 16 64<392 432> 104 96<15 81> 120 64<136 240> 224 64<328 432>
LayerCount: 2
Fore
SplineSet
152 528 m 0xec
 227 528 288 467 288 392 c 2
 288 368 l 2
 288 304 244 250 184 236 c 1
 184 136 l 1
 120 136 l 1
 120 296 l 1
 152 296 l 2
 192 296 224 328 224 368 c 2
 224 392 l 2
 224 432 192 464 152 464 c 0
 112 464 80 432 80 392 c 1
 16 392 l 1
 16 467 77 528 152 528 c 0xec
152 96 m 0
 178 96 200 74 200 48 c 0
 200 22 178 0 152 0 c 0
 126 0 104 21 104 48 c 0xf4
 104 74 126 96 152 96 c 0
EndSplineSet
MultipleSubs2: "CCMP cartouches" question cart.hwbody
EndChar

StartChar: at
Encoding: 32 64 235
Width: 320
VWidth: 583
Flags: W
HStem: -8 392<57 135> -8 47<166 218> 456 64<37 154>
VStem: 32 128<45 359> 224 64<46 385>
LayerCount: 2
Fore
SplineSet
96 520 m 0x78
 202 520 288 434 288 328 c 2
 288 72 l 2
 288 28 252 -8 208 -8 c 0x78
 184 -8 163 2 148 19 c 1
 136 3 118 -8 96 -8 c 0
 61 -8 32 21 32 56 c 2
 32 320 l 2
 32 355 61 384 96 384 c 0xb8
 131 384 160 355 160 320 c 2
 160 72 l 2
 160 54 174 40 192 40 c 0
 210 40 224 54 224 72 c 2
 224 72 224 186 224 262 c 0
 224 300 224 328 224 328 c 1
 224 398 166 456 96 456 c 0
 73 456 51 450 32 439 c 1
 32 509 l 1
 52 516 74 520 96 520 c 0x78
EndSplineSet
MultipleSubs2: "CCMP cartouches" at cart.hwbody
EndChar

StartChar: semicolon
Encoding: 27 59 236
Width: 320
VWidth: 576
Flags: W
HStem: 208 96<127 193>
VStem: 112 96<223 289>
LayerCount: 2
Fore
SplineSet
112 256 m 0
 112 282 134 304 160 304 c 0
 186 304 208 282 208 256 c 0
 208 230 186 208 160 208 c 0
 134 208 112 230 112 256 c 0
120 80 m 1
 200 80 l 1
 152 -32 l 1
 120 -32 l 1
 120 80 l 1
EndSplineSet
MultipleSubs2: "CCMP cartouches" semicolon cart.hwbody
EndChar

StartChar: backslash
Encoding: 60 92 237
Width: 320
Flags: W
HStem: 0 13G<222 296> 499 13G<24 98>
LayerCount: 2
Fore
SplineSet
93 512 m 1
 296 0 l 1
 227 0 l 1
 24 512 l 1
 93 512 l 1
EndSplineSet
MultipleSubs2: "CCMP cartouches" backslash cart.hwbody
EndChar

StartChar: asciicircum
Encoding: 62 94 238
Width: 320
VWidth: 576
Flags: W
HStem: 499 13G<123 202>
LayerCount: 2
Fore
SplineSet
293 256 m 1
 225 256 l 1
 163 422 l 1
 100 256 l 1
 33 256 l 1
 32 256 l 1
 128 512 l 1
 197 512 l 1
 293 256 l 1
EndSplineSet
MultipleSubs2: "CCMP cartouches" asciicircum cart.hwbody
EndChar

StartChar: underscore
Encoding: 63 95 239
Width: 320
VWidth: 576
Flags: W
HStem: 0 64<32 288>
LayerCount: 2
Fore
SplineSet
32 0 m 1
 32 64 l 1
 288 64 l 1
 288 0 l 1
 32 0 l 1
EndSplineSet
MultipleSubs2: "CCMP cartouches" underscore cart.hwbody
EndChar

StartChar: grave
Encoding: 64 96 240
Width: 320
VWidth: 583
Flags: W
HStem: 339 180
VStem: 70 180
LayerCount: 2
Fore
SplineSet
250 384 m 1
 205 339 l 1
 70 475 l 1
 115 520 l 1
 250 384 l 1
EndSplineSet
MultipleSubs2: "CCMP cartouches" grave cart.hwbody
EndChar

StartChar: braceleft
Encoding: 91 123 241
Width: 320
VWidth: 576
Flags: W
HStem: 0 64<182 288> 224 64<32 139> 448 64<182 288>
VStem: 112 64<70 133 379 442> 144 64<155 218 294 357>
LayerCount: 2
Fore
SplineSet
208 512 m 2xe8
 288 512 l 1
 288 448 l 1
 208 448 l 2xe8
 190 448 176 434 176 416 c 0xf0
 176 412 177 406 179 402 c 2
 198 362 l 2
 204 349 208 334 208 320 c 0
 208 296 199 273 184 256 c 1
 199 239 208 216 208 192 c 0xe8
 208 178 204 163 198 150 c 2
 179 110 l 2
 177 106 176 100 176 96 c 0xf0
 176 78 190 64 208 64 c 2
 288 64 l 1
 288 0 l 1
 208 0 l 2xe8
 155 0 112 43 112 96 c 0xf0
 112 110 116 125 122 138 c 2
 141 178 l 2
 143 182 144 188 144 192 c 0xe8
 144 210 130 224 112 224 c 0
 32 224 l 1
 32 288 l 1
 112 288 l 2xf0
 130 288 144 302 144 320 c 0xe8
 144 324 143 330 141 334 c 2
 122 374 l 2
 116 387 112 402 112 416 c 0xf0
 112 469 155 512 208 512 c 2xe8
EndSplineSet
MultipleSubs2: "CCMP cartouches" braceleft cart.hwbody
EndChar

StartChar: bar
Encoding: 92 124 242
Width: 320
VWidth: 576
Flags: W
HStem: 0 13G<128 192> 499 13G<128 192>
VStem: 128 64<0 512>
LayerCount: 2
Fore
SplineSet
128 0 m 1
 128 512 l 1
 192 512 l 1
 192 0 l 1
 128 0 l 1
EndSplineSet
MultipleSubs2: "CCMP cartouches" bar cart.hwbody
EndChar

StartChar: braceright
Encoding: 93 125 243
Width: 320
VWidth: 576
Flags: W
HStem: 0 64<32 138> 224 64<181 288> 448 64<32 138>
VStem: 112 64<155 218 294 357> 144 64<70 133 379 442>
LayerCount: 2
Fore
SplineSet
112 512 m 2xf0
 165 512 208 469 208 416 c 0xe8
 208 402 204 387 198 374 c 2
 179 334 l 2
 177 330 176 324 176 320 c 0xf0
 176 302 190 288 208 288 c 2
 288 288 l 1
 288 224 l 1
 208 224 l 2xe8
 190 224 176 210 176 192 c 0xf0
 176 188 177 182 179 178 c 2
 198 138 l 2
 204 125 208 110 208 96 c 0xe8
 208 43 165 0 112 0 c 2
 32 0 l 1
 32 64 l 1
 112 64 l 2xf0
 130 64 144 78 144 96 c 0xe8
 144 100 143 106 141 110 c 2
 122 150 l 2
 116 163 112 178 112 192 c 0
 112 216 121 239 136 256 c 1
 121 273 112 296 112 320 c 0xf0
 112 334 116 349 122 362 c 2
 141 402 l 2
 143 406 144 412 144 416 c 0xe8
 144 434 130 448 112 448 c 2
 32 448 l 1
 32 512 l 1
 112 512 l 2xf0
EndSplineSet
MultipleSubs2: "CCMP cartouches" braceright cart.hwbody
EndChar

StartChar: asciitilde
Encoding: 94 126 244
Width: 320
VWidth: 576
Flags: W
HStem: 178 64<201 239> 254 64<97 135>
VStem: 32 64<194 253> 240 64<243 298>
LayerCount: 2
Fore
SplineSet
116 318 m 0
 144 318 171 304 186 281 c 2
 204 251 l 2
 208 245 214 242 220 242 c 0
 231 242 240 251 240 262 c 2
 240 298 l 1
 304 298 l 1
 304 262 l 2
 304 216 266 178 220 178 c 0
 192 178 165 192 150 215 c 2
 132 245 l 2
 128 251 122 254 116 254 c 0
 105 254 96 245 96 234 c 2
 96 194 l 1
 32 194 l 1
 32 234 l 2
 32 280 70 318 116 318 c 0
EndSplineSet
MultipleSubs2: "CCMP cartouches" asciitilde cart.hwbody
EndChar

StartChar: font.version
Encoding: 282 -1 245
Width: 640
Flags: HW
HStem: -64 21G<128 640> 416 32<160 192 288 320 416 448 480 512>
VStem: 128 32<256 416> 192 32<256 288> 256 32<256 288> 320 96<320 416> 320 32<256 288> 448 32<352 416> 512 128<256 416>
LayerCount: 2
Fore
SplineSet
64 512 m 1
 64 0.001953125 l 1
 575.998046875 0.001953125 l 1
 575.998046875 512 l 1
 64 512 l 1
96 480 m 1
 128 480 l 1
 128 320 l 1
 96 320 l 1
 96 480 l 1
224.000976562 320 m 1
 224.000976562 416 l 1
 288.000976562 416 l 1
 288.000976562 448 l 1
 224.000976562 448 l 1
 224 480 l 1
 320.000976562 480 l 1
 320.000976562 384 l 1
 256.000976562 384 l 1
 256.000976562 352 l 1
 320.000976562 352 l 1
 320.000976562 320 l 1
 224.000976562 320 l 1
160 352 m 1
 192 352 l 1
 192 320 l 1
 160 320 l 1
 160 352 l 1
EndSplineSet
LCarets2: 10 448 448 448 448 448 448 448 448 448 448
Ligature2: "LIGA basics" f o n t v e r s i o n
EndChar

StartChar: cart.hwbody
Encoding: 284 -1 248
Width: 0
Flags: W
HStem: -160 64<-320 0> 608 64<-320 0>
LayerCount: 2
Fore
SplineSet
-320 -96 m 1
 0 -96 l 1
 0 -160 l 1
 -320 -160 l 1
 -384 -128 l 1
 -320 -96 l 1
-320 672 m 1
 0 672 l 1
 0 608 l 1
 -320 608 l 1
 -384 640 l 1
 -320 672 l 1
EndSplineSet
EndChar

StartChar: cart.4ticks
Encoding: 285 -1 250
Width: 0
Flags: W
HStem: -288 160<-568 -504 -424 -360 -280 -216 -136 -72>
VStem: -568 64<-288 -128> -424 64<-288 -128> -280 64<-288 -128> -136 64<-288 -128>
LayerCount: 2
Fore
SplineSet
-136 -128 m 1
 -72 -128 l 1
 -72 -288 l 1
 -136 -288 l 1
 -136 -128 l 1
-280 -128 m 1
 -216 -128 l 1
 -216 -288 l 1
 -280 -288 l 1
 -280 -128 l 1
-424 -128 m 1
 -360 -128 l 1
 -360 -288 l 1
 -424 -288 l 1
 -424 -128 l 1
-568 -128 m 1
 -504 -128 l 1
 -504 -288 l 1
 -568 -288 l 1
 -568 -128 l 1
EndSplineSet
Substitution2: "SS02 small text tickmarks-1" cart.4ticks.small
Ligature2: "LIGA tick stacker" cart.1tick cart.1tick cart.1tick cart.1tick 
LCarets2: 4 -640 -640 -640 -640
EndChar

StartChar: cart.3ticks
Encoding: 286 -1 251
Width: 0
Flags: W
HStem: -288 160<-496 -432 -352 -288 -208 -144>
VStem: -496 64<-288 -128> -352 64<-288 -128> -208 64<-288 -128>
CounterMasks: 1 70
LayerCount: 2
Fore
SplineSet
-208 -128 m 1
 -144 -128 l 1
 -144 -288 l 1
 -208 -288 l 1
 -208 -128 l 1
-352 -128 m 1
 -288 -128 l 1
 -288 -288 l 1
 -352 -288 l 1
 -352 -128 l 1
-496 -128 m 1
 -432 -128 l 1
 -432 -288 l 1
 -496 -288 l 1
 -496 -128 l 1
EndSplineSet
Substitution2: "SS02 small text tickmarks-1" cart.3ticks.small
LCarets2: 3 -640 -640 -640
Ligature2: "LIGA tick stacker" cart.1tick cart.1tick cart.1tick 
EndChar

StartChar: cart.2ticks
Encoding: 287 -1 252
Width: 0
Flags: W
HStem: -288 160<-432 -368 -272 -208>
VStem: -432 64<-288 -128> -272 64<-288 -128>
LayerCount: 2
Fore
SplineSet
-272 -288 m 1
 -272 -128 l 1
 -208 -128 l 1
 -208 -288 l 1
 -272 -288 l 1
-432 -288 m 1
 -432 -128 l 1
 -368 -128 l 1
 -368 -288 l 1
 -432 -288 l 1
EndSplineSet
Substitution2: "SS02 small text tickmarks-1" cart.2ticks.small
Ligature2: "LIGA tick stacker" cart.1tick cart.1tick 
LCarets2: 2 -640 -640
EndChar

StartChar: periodcentered
Encoding: 95 183 253
Width: 640
Flags: W
HStem: 192 128<281 359>
VStem: 256 128<217 295>
LayerCount: 2
Fore
SplineSet
320 320 m 0
 355 320 384 291 384 256 c 0
 384 221 355 192 320 192 c 0
 285 192 256 221 256 256 c 0
 256 291 285 320 320 320 c 0
EndSplineSet
Ligature2: "LIGA basics" morae.dot
MultipleSubs2: "CCMP cartouches" morae.dot cart.hwbody
Ligature2: "LIGA basics" glyph192
EndChar

StartChar: t.ni.left
Encoding: 238 989577 254
Width: 640
Flags: W
HStem: 224 64<176 576>
LayerCount: 2
Fore
SplineSet
576 288 m 1
 576 224 l 1
 176 224 l 1
 312 96 l 1
 264 48 l 1
 56 256 l 1
 264 464 l 1
 312 416 l 1
 176 288 l 1
 576 288 l 1
EndSplineSet
MultipleSubs2: "CCMP cartouches" t.ni.left cart.body
Ligature2: "LIGA alternates" t.ni zero four
Ligature2: "LIGA ni directions-1" t.ni less
EndChar

StartChar: t.ni.up
Encoding: 239 989578 255
Width: 640
Flags: W
HStem: 0 21G<288 352>
VStem: 288 64<0 400>
LayerCount: 2
Fore
SplineSet
352 0 m 1
 288 0 l 1
 288 400 l 1
 160 264 l 1
 112 312 l 1
 320 520 l 1
 528 312 l 1
 480 264 l 1
 352 400 l 1
 352 0 l 1
EndSplineSet
MultipleSubs2: "CCMP cartouches" t.ni.up cart.body
Ligature2: "LIGA alternates" t.ni zero three
Ligature2: "LIGA ni directions-1" t.ni asciicircum
EndChar

StartChar: t.ni.right
Encoding: 240 989579 256
Width: 640
Flags: W
HStem: 224 64<64 464>
LayerCount: 2
Fore
SplineSet
64 224 m 1
 64 288 l 1
 464 288 l 1
 328 416 l 1
 376 464 l 1
 584 256 l 1
 376 48 l 1
 328 96 l 1
 464 224 l 1
 64 224 l 1
EndSplineSet
MultipleSubs2: "CCMP cartouches" t.ni.right cart.body
Ligature2: "LIGA alternates" t.ni zero two
Ligature2: "LIGA ni directions-1" t.ni greater
EndChar

StartChar: t.sewi.secular
Encoding: 241 989580 257
Width: 640
Flags: W
HStem: 256 64<128 512> 368 96<285.875 354.125>
VStem: 64 64<96 256> 272 96<381.875 450.125> 512 64<96 256>
CounterMasks: 1 38
LayerCount: 2
Fore
SplineSet
64 96 m 1
 64 320 l 1
 576 320 l 1
 576 96 l 1
 512 96 l 1
 512 256 l 1
 128 256 l 1
 128 96 l 1
 64 96 l 1
272 416 m 0
 272 443 293 464 320 464 c 0
 347 464 368 443 368 416 c 0
 368 389 347 368 320 368 c 0
 293 368 272 389 272 416 c 0
EndSplineSet
MultipleSubs2: "CCMP cartouches" t.sewi.secular cart.body
Ligature2: "LIGA alternates" t.sewi zero two
EndChar

StartChar: t.linluwi
Encoding: 256 989604 258
Width: 640
Flags: W
HStem: -16 64<115.87 187.838 452.162 524.13> 64 64<266.462 373.538> 160 64<115.87 184.128 455.872 524.13> 288 64<287.872 352.128> 464 64<283.87 356.13>
VStem: 32 64<67.8702 140.13> 200 64<371.705 444.13> 208 224<67.3229 127.077> 376 64<371.705 444.13> 544 64<67.8702 140.13>
LayerCount: 2
Fore
SplineSet
404 190 m 1xfc40
 348 292 l 1
 339 290 330 288 320 288 c 0
 310 288 301 290 292 292 c 1
 236 190 l 1
 253 173 265 152 270 128 c 1
 370 128 l 1
 375 152 387 173 404 190 c 1xfc40
320 464 m 0
 289 464 264 439 264 408 c 0
 264 377 289 352 320 352 c 0
 351 352 376 377 376 408 c 0xfec0
 376 439 351 464 320 464 c 0
152 160 m 0
 121 160 96 135 96 104 c 0
 96 73 121 48 152 48 c 0
 183 48 208 73 208 104 c 0xfd40
 208 135 183 160 152 160 c 0
488 224 m 0
 554 224 608 170 608 104 c 0
 608 38 554 -16 488 -16 c 0
 436 -16 392 17 375 64 c 1
 265 64 l 1
 248 17 204 -16 152 -16 c 0
 86 -16 32 38 32 104 c 0
 32 170 86 224 152 224 c 0
 162 224 171 223 180 221 c 1
 236 322 l 1
 214 344 200 375 200 408 c 0
 200 474 254 528 320 528 c 0
 386 528 440 474 440 408 c 0xfec0
 440 375 426 344 404 322 c 1
 460 221 l 1
 469 223 478 224 488 224 c 0
488 160 m 0
 457 160 432 135 432 104 c 0xfd40
 432 73 457 48 488 48 c 0
 519 48 544 73 544 104 c 0
 544 135 519 160 488 160 c 0
EndSplineSet
LCarets2: 6 0 0 0 0 0 0
MultipleSubs2: "CCMP cartouches" t.linluwi cart.body
Ligature2: "LIGA basics" l i n l u w i
EndChar

StartChar: t.kiki
Encoding: 257 989605 259
Width: 640
Flags: W
HStem: 0 64<138 502> 96 48<280 360>
LayerCount: 2
Fore
SplineSet
320 544 m 1
 608 0 l 1
 32 0 l 1
 320 544 l 1
320 408 m 1
 138 64 l 1
 502 64 l 1
 320 408 l 1
200 96 m 1
 320 322 l 1
 440 96 l 1
 200 96 l 1
320 220 m 1
 280 144 l 1
 360 144 l 1
 320 220 l 1
EndSplineSet
MultipleSubs2: "CCMP cartouches" t.kiki cart.body
Ligature2: "LIGA basics" k i k i
EndChar

StartChar: t.su
Encoding: 258 989606 260
Width: 640
Flags: W
HStem: 0 64<176 365 429.547 464> 320 64<239.764 403.824> 448 64<176 464>
VStem: 112 64<64 219 350 448> 464 64<64 284.752 350 448>
LayerCount: 2
Fore
SplineSet
365 64 m 1
 333 143 262 202 176 219 c 1
 176 64 l 1
 365 64 l 1
464 350 m 1
 464 448 l 1
 176 448 l 1
 176 350 l 1
 219 372 268 384 320 384 c 0
 372 384 421 372 464 350 c 1
187 282 m 1
 304 260 398 176 433 64 c 1
 464 64 l 1
 464 276 l 1
 423 304 373 320 320 320 c 0
 271 320 226 305 187 282 c 1
112 512 m 1
 528 512 l 1
 528 0 l 1
 112 0 l 1
 112 512 l 1
EndSplineSet
MultipleSubs2: "CCMP cartouches" t.su cart.body
Ligature2: "LIGA basics" s u
EndChar

StartChar: t.isipin
Encoding: 259 989607 261
Width: 640
Flags: W
HStem: -16 64<246.256 361.744> 192 64<204 404 495 576> 304 64<246.473 360.925>
VStem: 112 64<118.256 191.267> 272 64<416 544> 432 64<118.256 192>
CounterMasks: 1 1c
LayerCount: 2
Fore
SplineSet
478 256 m 1
 576 256 l 1
 576 192 l 1
 495 192 l 1
 496 187 496 181 496 176 c 0
 496 70 410 -16 304 -16 c 0
 198 -16 112 70 112 176 c 0
 112 282 198 368 304 368 c 0
 382 368 448 322 478 256 c 1
431 192 m 1
 177 192 l 1
 176 187 176 182 176 176 c 0
 176 105 233 48 304 48 c 0
 375 48 432 105 432 176 c 0
 432 182 432 187 431 192 c 1
404 256 m 1
 381 285 344 304 304 304 c 0
 264 304 227 285 204 256 c 1
 404 256 l 1
272 416 m 1
 272 544 l 1
 336 544 l 1
 336 416 l 1
 272 416 l 1
378 405 m 1
 440 517 l 1
 496 486 l 1
 433 374 l 1
 378 405 l 1
230 405 m 1
 174 374 l 1
 112 486 l 1
 168 517 l 1
 230 405 l 1
EndSplineSet
LCarets2: 5 0 0 0 0 0
MultipleSubs2: "CCMP cartouches" t.isipin cart.body
Ligature2: "LIGA basics" i s i p i n
EndChar

StartChar: t.kamalawala
Encoding: 260 989608 262
Width: 640
Flags: W
HStem: -16 64<248.521 391.479> 192 64<32 65.0233 134 196 286 354 444 506 574.977 608>
VStem: 64 64<256 308.376> 512 64<256 308.376>
LayerCount: 2
Fore
SplineSet
263 192 m 1
 222 75 l 1
 250 58 284 48 320 48 c 0
 356 48 390 58 418 75 c 1
 377 192 l 1
 263 192 l 1
286 256 m 1
 354 256 l 1
 320 352 l 1
 286 256 l 1
512 256 m 1
 505 341 442 410 361 428 c 1
 422 256 l 1
 512 256 l 1
128 256 m 1
 218 256 l 1
 279 428 l 1
 198 410 135 341 128 256 c 1
506 192 m 1
 444 192 l 1
 470 120 l 1
 487 141 499 165 506 192 c 1
134 192 m 1
 141 165 153 141 170 120 c 1
 196 192 l 1
 134 192 l 1
32 192 m 1
 32 256 l 1
 64 256 l 1
 72 384 174 488 302 496 c 1
 320 544 l 1
 338 496 l 1
 466 488 568 384 576 256 c 1
 608 256 l 1
 608 192 l 1
 572 192 l 1
 561 137 532 89 493 52 c 1
 512 0 l 1
 452 -22 l 1
 439 13 l 1
 403 -6 363 -16 320 -16 c 0
 277 -16 237 -6 201 13 c 1
 188 -22 l 1
 128 0 l 1
 147 52 l 1
 108 89 79 137 68 192 c 1
 32 192 l 1
EndSplineSet
MultipleSubs2: "CCMP cartouches" t.kamalawala cart.body
Ligature2: "LIGA basics" k a m a l a w a l a
EndChar

StartChar: t.kapesi
Encoding: 261 989609 263
Width: 640
Flags: W
HStem: 0 64<241 399> 320 64<212 288 352 428>
VStem: 288 64<245 320 384 459>
LayerCount: 2
Fore
SplineSet
308 177 m 1
 241 64 l 1
 399 64 l 1
 332 177 l 1
 328 177 324 176 320 176 c 0
 316 176 312 177 308 177 c 1
352 384 m 1
 428 384 l 1
 417 420 388 448 352 459 c 1
 352 384 l 1
288 384 m 1
 288 459 l 1
 252 448 223 420 212 384 c 1
 288 384 l 1
352 320 m 1
 352 245 l 1
 388 256 417 284 428 320 c 1
 352 320 l 1
288 320 m 1
 212 320 l 1
 223 284 252 256 288 245 c 1
 288 320 l 1
320 528 m 0
 418 528 496 450 496 352 c 0
 496 282 455 221 396 193 c 1
 512 0 l 1
 128 0 l 1
 244 193 l 1
 185 221 144 282 144 352 c 0
 144 450 222 528 320 528 c 0
EndSplineSet
LCarets2: 5 0 0 0 0 0
MultipleSubs2: "CCMP cartouches" t.kapesi cart.body
Ligature2: "LIGA basics" k a p e s i
EndChar

StartChar: t.melome
Encoding: 262 989610 264
Width: 640
Flags: W
HStem: 200 64<219.447 286.308 353.692 420.553> 336 64<216.691 286.308 353.692 423.309> 480 64<247.024 392.976>
VStem: 48 64<-32 343.567> 144 64<125.357 191.51 261.412 327.309> 432 64<125.408 191.51 261.366 327.309> 528 64<-32 343.567>
LayerCount: 2
Fore
SplineSet
320 544 m 0
 470 544 592 422 592 272 c 2
 592 -32 l 1
 528 -32 l 1
 528 272 l 2
 528 387 435 480 320 480 c 0
 205 480 112 387 112 272 c 2
 112 -32 l 1
 48 -32 l 1
 48 272 l 2
 48 422 170 544 320 544 c 0
248 400 m 0
 276 400 304 384 320 360 c 1
 336 384 364 400 392 400 c 0
 450 400 496 354 496 296 c 0
 496 270 487 246 471 228 c 1
 487 210 496 186 496 160 c 0
 496 128 481 98 458 79 c 2
 320 -32 l 1
 182 79 l 2
 159 98 144 128 144 160 c 0
 144 186 153 210 169 228 c 1
 153 246 144 270 144 296 c 0
 144 354 190 400 248 400 c 0
248 336 m 0
 224 336 208 320 208 296 c 0
 208 289 209 275 222 261 c 1
 230 263 240 264 248 264 c 0
 276 264 304 248 320 224 c 1
 336 248 364 264 392 264 c 0
 400 264 410 263 418 261 c 1
 430 273 432 286 432 296 c 0
 432 320 416 336 392 336 c 0
 352 336 336 304 320 272 c 1
 304 304 288 336 248 336 c 0
248 200 m 0
 224 200 208 184 208 160 c 0
 208 154 209 136 228 119 c 2
 320 40 l 1
 412 119 l 2
 424 130 432 144 432 160 c 0
 432 184 416 200 392 200 c 0
 352 200 336 168 320 136 c 1
 304 168 288 200 248 200 c 0
EndSplineSet
MultipleSubs2: "CCMP cartouches" t.melome cart.body
Ligature2: "LIGA basics" m e l o m e
EndChar

StartChar: t.mijomi
Encoding: 263 989611 265
Width: 640
Flags: W
HStem: 0 160<64 128 512 576> 96 64<128 241 399 512> 328 64<219.447 286.308 353.692 420.553> 464 64<216.691 286.308 353.692 423.309>
VStem: 64 64<0 96> 144 64<254.67 319.51 389.412 455.309> 432 64<254.696 319.51 389.319 455.309> 512 64<0 96>
LayerCount: 2
Fore
SplineSet
248 528 m 0x7f
 276 528 304 512 320 488 c 1
 336 512 364 528 392 528 c 0
 450 528 496 482 496 424 c 0
 496 398 487 374 471 356 c 1
 487 338 496 314 496 288 c 0
 496 256 481 227 458 208 c 2
 399 160 l 1x7f
 576 160 l 1
 576 128 l 1
 576 0 l 1
 512 0 l 1xbf
 512 96 l 1
 128 96 l 1x7f
 128 0 l 1
 64 0 l 1xbf
 64 96 l 1x7f
 64 160 l 1xbf
 241 160 l 1
 182 208 l 2
 159 227 144 256 144 288 c 0
 144 314 153 338 169 356 c 1
 153 374 144 398 144 424 c 0
 144 482 190 528 248 528 c 0x7f
248 464 m 0
 224 464 208 448 208 424 c 0
 208 417 209 403 222 389 c 1
 230 391 240 392 248 392 c 0
 276 392 304 376 320 352 c 1
 336 376 364 392 392 392 c 0
 400 392 410 391 418 389 c 1
 427 399 432 411 432 424 c 0
 432 448 416 464 392 464 c 0
 352 464 336 432 320 400 c 1
 304 432 288 464 248 464 c 0
248 328 m 0
 224 328 208 312 208 288 c 0
 208 282 209 265 228 248 c 2
 320 168 l 1
 412 248 l 2
 424 259 432 272 432 288 c 0
 432 312 416 328 392 328 c 0
 352 328 336 296 320 264 c 1
 304 296 288 328 248 328 c 0
EndSplineSet
MultipleSubs2: "CCMP cartouches" t.mijomi cart.body
Ligature2: "LIGA basics" m i j o m i
EndChar

StartChar: t.misa
Encoding: 264 989612 266
Width: 640
Flags: W
HStem: 0 64<159.393 265.519> 128 64<245.915 361.651> 296 80<273.785 334.215> 328 80<369.785 430.215> 448 64<246.919 502.177>
VStem: 48 64<111.393 208.558> 112 64<284.648 377.744> 264 80<305.785 366.215> 360 80<337.785 398.215> 528 64<345.088 422.772>
LayerCount: 2
Fore
SplineSet
304 512 m 2xebc0
 464 512 l 2
 535 512 592 455 592 384 c 0
 592 352 579 320 557 296 c 2
 443 188 l 2
 407 150 356 128 304 128 c 0
 232 128 171 167 138 225 c 1
 122 208 112 185 112 160 c 0
 112 107 155 64 208 64 c 0
 226 64 244 70 258 78 c 1
 290 22 l 1
 266 8 238 0 208 0 c 0
 120 0 48 72 48 160 c 0xedc0
 48 213 74 261 114 290 c 1
 112 300 112 310 112 320 c 0
 112 426 198 512 304 512 c 2xebc0
304 448 m 2
 233 448 176 391 176 320 c 0xcbc0
 176 249 233 192 304 192 c 0
 339 192 373 207 397 232 c 2
 510 340 l 2
 522 352 528 367 528 384 c 0
 528 419 499 448 464 448 c 2
 304 448 l 2
400 408 m 0xd9c0
 422 408 440 390 440 368 c 0
 440 346 422 328 400 328 c 0
 378 328 360 346 360 368 c 0
 360 390 378 408 400 408 c 0xd9c0
304 376 m 0xe9c0
 326 376 344 358 344 336 c 0
 344 314 326 296 304 296 c 0
 282 296 264 314 264 336 c 0
 264 358 282 376 304 376 c 0xe9c0
EndSplineSet
MultipleSubs2: "CCMP cartouches" t.misa cart.body
Ligature2: "LIGA basics" m i s a
EndChar

StartChar: t.nimisin
Encoding: 265 989613 267
Width: 640
Flags: W
HStem: 128 64<209.886 430.114> 192 64<32 112 528 608> 256 64<209.886 430.114> 352 96<288 352>
VStem: 32 80<192 256> 144 64<193.886 254.114> 288 64<352 448> 432 64<193.886 254.114> 528 80<192 256>
LayerCount: 2
Fore
SplineSet
224 320 m 2xbf80
 416 320 l 2
 460 320 496 284 496 240 c 2
 496 208 l 2
 496 164 460 128 416 128 c 2
 224 128 l 2
 180 128 144 164 144 208 c 2
 144 240 l 2
 144 284 180 320 224 320 c 2xbf80
224 256 m 2
 215 256 208 249 208 240 c 2
 208 208 l 2
 208 199 215 192 224 192 c 2
 416 192 l 2
 425 192 432 199 432 208 c 2
 432 240 l 2
 432 249 425 256 416 256 c 2
 224 256 l 2
32 192 m 1x5f80
 32 256 l 1
 112 256 l 1
 112 192 l 1
 32 192 l 1x5f80
528 192 m 1
 528 256 l 1
 608 256 l 1
 608 192 l 1
 528 192 l 1
288 352 m 1
 288 448 l 1
 352 448 l 1
 352 352 l 1
 288 352 l 1
EndSplineSet
MultipleSubs2: "CCMP cartouches" t.nimisin cart.body
Ligature2: "LIGA basics" n i m i s i n
EndChar

StartChar: t.nja
Encoding: 266 989614 268
Width: 640
Flags: W
HStem: -24 64<261.99 378.01> 88 48<250.456 293.563 346.437 389.544> 328 64<261.99 378.01>
VStem: 64 48<344 447> 112 64<125.99 242.01> 200 48<138.456 176.45> 296 48<138.41 168> 392 48<138.456 176.45> 464 64<125.99 242.01> 528 48<344 447>
LayerCount: 2
Fore
SplineSet
64 536 m 1xf7
 232 424 l 1
 205 384 l 1
 112 447 l 1
 112 344 l 1
 64 344 l 1
 64 536 l 1xf7
576 536 m 1xe740
 576 344 l 1
 528 344 l 1
 528 447 l 1
 435 384 l 1
 408 424 l 1
 576 536 l 1xe740
320 392 m 0
 435 392 528 299 528 184 c 0
 528 69 435 -24 320 -24 c 0
 205 -24 112 69 112 184 c 0xef80
 112 299 205 392 320 392 c 0
320 328 m 0
 241 328 176 263 176 184 c 0
 176 105 241 40 320 40 c 0
 399 40 464 105 464 184 c 0
 464 263 399 328 320 328 c 0
209 195 m 1
 251 172 l 1
 249 169 248 164 248 160 c 0
 248 147 259 136 272 136 c 0
 285 136 296 147 296 160 c 2
 296 168 l 1
 344 168 l 1
 344 160 l 2
 344 147 355 136 368 136 c 0
 381 136 392 147 392 160 c 0
 392 164 391 169 389 172 c 1
 431 195 l 1
 437 185 440 172 440 160 c 0
 440 120 408 88 368 88 c 0
 350 88 332 95 320 107 c 1
 308 95 290 88 272 88 c 0
 232 88 200 120 200 160 c 0
 200 172 203 185 209 195 c 1
EndSplineSet
MultipleSubs2: "CCMP cartouches" t.nja cart.body
Ligature2: "LIGA basics" n j a
EndChar

StartChar: t.oke
Encoding: 267 989615 269
Width: 640
Flags: W
LayerCount: 2
Fore
SplineSet
543 441 m 1
 584 392 l 1
 192 64 l 1
 56 256 l 1
 108 293 l 1
 204 158 l 1
 543 441 l 1
EndSplineSet
MultipleSubs2: "CCMP cartouches" t.oke cart.body
Ligature2: "LIGA basics" o k e
EndChar

StartChar: t.omekapo
Encoding: 268 989616 270
Width: 640
Flags: W
HStem: -16 64<322.876 466.163> 272 64<322.876 466.163>
VStem: 368 64<384 528> 528 64<106.958 213.042>
LayerCount: 2
Fore
SplineSet
96 342 m 1
 100 297 113 253 135 214 c 1
 142 222 148 228 156 235 c 0
 226 299 320 336 417 336 c 0
 514 336 592 258 592 160 c 0
 592 62 514 -16 417 -16 c 0
 320 -16 226 21 156 85 c 0
 148 92 142 98 135 106 c 1
 113 67 100 23 96 -22 c 1
 32 -16 l 1
 38 46 58 108 92 160 c 1
 58 212 38 274 32 336 c 1
 96 342 l 1
408 272 m 0
 337 272 257 241 199 188 c 0
 190 180 180 170 172 160 c 1
 180 150 190 140 199 132 c 0
 257 79 337 48 408 48 c 0
 479 48 528 98 528 160 c 0
 528 222 479 272 408 272 c 0
368 384 m 1
 368 528 l 1
 432 528 l 1
 432 384 l 1
 368 384 l 1
468 375 m 1
 535 502 l 1
 592 472 l 1
 525 345 l 1
 468 375 l 1
332 374 m 1
 275 344 l 1
 208 472 l 1
 265 502 l 1
 332 374 l 1
EndSplineSet
MultipleSubs2: "CCMP cartouches" t.omekapo cart.body
Ligature2: "LIGA basics" o m e k a p o
EndChar

StartChar: t.puwa
Encoding: 269 989617 271
Width: 640
Flags: W
HStem: 32 64<149.375 496.401> 448 64<271.393 368.607>
VStem: 48 64<132.363 220.32> 160 64<316.539 400.607> 416 64<303.03 400.607> 528 64<126.908 209.07>
LayerCount: 2
Fore
SplineSet
320 512 m 0
 408 512 480 440 480 352 c 0
 480 335 477 319 472 303 c 1
 540 295 592 237 592 168 c 0
 592 93 531 32 456 32 c 2
 192 32 l 2
 113 32 48 97 48 176 c 0
 48 246 98 305 164 318 c 1
 162 329 160 340 160 352 c 0
 160 440 232 512 320 512 c 0
320 448 m 0
 267 448 224 405 224 352 c 0
 224 339 227 326 232 314 c 1
 256 307 277 295 294 278 c 1
 248 232 l 1
 234 246 214 256 192 256 c 0
 148 256 112 220 112 176 c 0
 112 132 148 96 192 96 c 2
 456 96 l 2
 496 96 528 128 528 168 c 0
 528 208 496 240 456 240 c 2
 456 240 447 240 440 240 c 0
 437 240 434 240 434 240 c 1
 433 239 l 1
 432 240 l 1
 388 284 l 1
 406 302 416 325 416 352 c 0
 416 405 373 448 320 448 c 0
EndSplineSet
MultipleSubs2: "CCMP cartouches" t.puwa cart.body
Ligature2: "LIGA basics" p u w a
EndChar

StartChar: t.san
Encoding: 270 989618 272
Width: 640
Flags: W
HStem: 64 64<64 576> 224 64<64 576> 384 64<64 576>
CounterMasks: 1 e0
LayerCount: 2
Fore
SplineSet
64 384 m 1
 64 448 l 1
 576 448 l 1
 576 384 l 1
 64 384 l 1
64 64 m 1
 64 128 l 1
 576 128 l 1
 576 64 l 1
 64 64 l 1
64 224 m 1
 64 288 l 1
 576 288 l 1
 576 224 l 1
 64 224 l 1
EndSplineSet
MultipleSubs2: "CCMP cartouches" t.san cart.body
Ligature2: "LIGA basics" s a n
EndChar

StartChar: t.taki
Encoding: 271 989619 273
Width: 640
Flags: W
HStem: -16 64<248.433 361.372> 224 64<274.78 365.22> 464 64<273.934 391.567>
VStem: 48 64<183.024 328.637> 168 64<329.808 398.962> 408 64<113.038 182.192> 528 64<181.719 328.976>
CounterMasks: 1 e0
LayerCount: 2
Fore
SplineSet
320 528 m 0
 470 528 592 406 592 256 c 0
 592 106 470 -16 320 -16 c 0
 170 -16 48 106 48 256 c 0
 48 399 159 517 300 527 c 0
 307 528 313 528 320 528 c 0
320 464 m 0
 316 464 312 464 308 463 c 0
 265 457 232 421 232 376 c 0
 232 328 272 288 320 288 c 0
 404 288 472 220 472 136 c 0
 472 128 472 120 470 112 c 1
 506 150 528 200 528 256 c 0
 528 371 435 464 320 464 c 0
170 400 m 1
 134 362 112 312 112 256 c 0
 112 141 205 48 320 48 c 0
 324 48 328 49 332 49 c 0
 375 55 408 91 408 136 c 0
 408 184 368 224 320 224 c 0
 236 224 168 292 168 376 c 0
 168 384 168 392 170 400 c 1
EndSplineSet
MultipleSubs2: "CCMP cartouches" t.taki cart.body
Ligature2: "LIGA basics" t a k i
EndChar

StartChar: t.te
Encoding: 272 989620 274
Width: 640
Flags: W
HStem: 512 64<384 640>
VStem: 320 64<128 512>
LayerCount: 2
Fore
SplineSet
320 576 m 1
 640 576 l 1
 640 512 l 1
 384 512 l 1
 384 128 l 1
 320 128 l 1
 320 576 l 1
EndSplineSet
LCarets2: 1 0
MultipleSubs2: "CCMP cartouches" t.te.fw cart.body
Ligature2: "LIGA basics" t e
EndChar

StartChar: t.to
Encoding: 273 989621 275
Width: 640
Flags: W
HStem: -64 64<0 256>
VStem: 256 64<0 384>
LayerCount: 2
Fore
SplineSet
320 -64 m 1
 0 -64 l 1
 0 0 l 1
 256 0 l 1
 256 384 l 1
 320 384 l 1
 320 -64 l 1
EndSplineSet
LCarets2: 1 0
MultipleSubs2: "CCMP cartouches" t.to.fw cart.body
Ligature2: "LIGA basics" t o
EndChar

StartChar: t.unu
Encoding: 274 989622 276
Width: 640
Flags: W
HStem: 0 64<241 399> 480 64<272.043 373.042>
VStem: 256 64<328.932 407.068> 432 64<314.086 421.042>
LayerCount: 2
Fore
SplineSet
320 544 m 0
 418 544 496 466 496 368 c 0
 496 297 453 234 388 206 c 1
 512 0 l 1
 128 0 l 1
 252 206 l 1
 233 214 214 226 199 240 c 0
 177 262 159 289 151 319 c 1
 163 309 177 304 192 304 c 0
 203 304 214 307 223 312 c 0
 243 324 256 345 256 368 c 0
 256 391 243 412 223 424 c 0
 214 429 203 432 192 432 c 0
 177 432 163 428 151 418 c 1
 159 448 177 474 199 496 c 0
 231 527 275 544 320 544 c 0
320 480 m 0
 303 480 286 476 271 468 c 1
 302 444 320 407 320 368 c 0
 320 329 302 292 271 268 c 1
 286 260 303 256 320 256 c 0
 382 256 432 306 432 368 c 0
 432 430 382 480 320 480 c 0
318 192 m 2
 241 64 l 1
 399 64 l 1
 322 192 l 2
 321 192 321 192 320 192 c 0
 319 192 319 192 318 192 c 2
EndSplineSet
MultipleSubs2: "CCMP cartouches" t.unu cart.body
Ligature2: "LIGA basics" u n u
EndChar

StartChar: t.usawi
Encoding: 275 989623 277
Width: 640
Flags: W
HStem: 24 64<217.808 310.192> 208 64<293.552 346.448> 320 64<261.99 378.01>
VStem: 112 64<129.808 234.01> 224 64<157.782 202.448> 288 64<416 544> 352 64<129.808 202.448> 464 64<102.862 234.01>
LayerCount: 2
Fore
SplineSet
288 416 m 1xf5
 288 544 l 1
 352 544 l 1
 352 416 l 1
 288 416 l 1xf5
393 405 m 1
 456 517 l 1
 512 486 l 1
 449 374 l 1
 393 405 l 1
247 405 m 1
 191 374 l 1
 128 486 l 1
 184 517 l 1
 247 405 l 1
320 384 m 0
 435 384 528 291 528 176 c 0
 528 91 488 16 426 -32 c 1
 387 18 l 1
 434 55 464 112 464 176 c 0
 464 255 399 320 320 320 c 0
 241 320 176 255 176 176 c 0
 176 128 216 88 264 88 c 0
 312 88 352 128 352 176 c 0
 352 194 338 208 320 208 c 0
 302 208 288 194 288 176 c 0
 288 171 290 166 292 162 c 1
 234 133 l 1
 227 145 224 161 224 176 c 0
 224 229 267 272 320 272 c 0
 373 272 416 229 416 176 c 0xfb
 416 92 348 24 264 24 c 0
 180 24 112 92 112 176 c 0
 112 291 205 384 320 384 c 0
EndSplineSet
MultipleSubs2: "CCMP cartouches" t.usawi cart.body
Ligature2: "LIGA basics" u s a w i
EndChar

StartChar: t.wa
Encoding: 276 989624 278
Width: 640
Flags: W
HStem: -16 56<229.908 282.424 357.576 410.092>
VStem: 160 64<46.0547 160> 288 64<45.3789 144 208 528> 416 64<46.0547 160>
CounterMasks: 1 70
LayerCount: 2
Fore
SplineSet
288 208 m 1
 288 528 l 1
 352 528 l 1
 352 208 l 1
 288 208 l 1
160 160 m 1
 224 160 l 1
 224 72 l 2
 224 54 238 40 256 40 c 0
 274 40 288 54 288 72 c 2
 288 144 l 1
 352 144 l 1
 352 72 l 2
 352 54 366 40 384 40 c 0
 402 40 416 54 416 72 c 2
 416 160 l 1
 480 160 l 1
 480 72 l 2
 480 24 440 -16 392 -16 c 0
 364 -16 337 -1 320 22 c 1
 303 -1 276 -16 248 -16 c 0
 200 -16 160 24 160 72 c 2
 160 160 l 1
EndSplineSet
MultipleSubs2: "CCMP cartouches" t.wa cart.body
Ligature2: "LIGA basics" w a
EndChar

StartChar: t.wuwojiti
Encoding: 277 989625 279
Width: 640
Flags: W
HStem: 0 21G<89 129 511 551> 492 20G<89 129.165 510.835 551>
LayerCount: 2
Fore
SplineSet
109 512 m 1
 231 391 l 1
 320 480 l 1
 409 391 l 1
 531 512 l 1
 576 467 l 1
 455 345 l 1
 544 256 l 1
 455 167 l 1
 576 45 l 1
 531 0 l 1
 409 122 l 1
 320 32 l 1
 231 122 l 1
 109 0 l 1
 64 45 l 1
 185 167 l 1
 96 256 l 1
 185 345 l 1
 64 467 l 1
 109 512 l 1
320 389 m 1
 187 256 l 1
 320 122 l 1
 453 256 l 1
 320 389 l 1
EndSplineSet
MultipleSubs2: "CCMP cartouches" t.wuwojiti cart.body
Ligature2: "LIGA basics" w u w o j i t i
EndChar

StartChar: t.yupekosi
Encoding: 278 989626 280
Width: 640
Flags: W
HStem: 198 65<286.001 293 302.001 313 313.002 340 340.031 376.952> 201 67<286.001 293 340.031 376.952> 212 65<233 253.997 254.003 268.906> 492 20G<448 511>
VStem: 122 65<438.001 448 457.001 498 498.001 502> 128 64<342.001 371 371.002 397 411 411.999 412 431.998> 428 87<337 341.999 342 399.281> 443 62<115.533 118 121.001 125.999 126.001 128 138 251.937> 448 64<429 482.999 487 487.999 489 490.999 491 512> 448 64<429 482.999 487 487.999 489 490.999 491 502>
LayerCount: 2
Fore
SplineSet
285 -13 m 1x52
 285 -13 287 -14 282 -13 c 0
 276 -11 278 -12 278 -12 c 1
 278 -12 276 -11 272 -9 c 0
 268 -7 268 -8 268 -8 c 1
 268 -8 265 -7 262 -5 c 0
 260 -4 260 -3 260 -3 c 1
 260 -3 260 -3 258 -2 c 0
 257 -2 257 -2 257 -2 c 2
 256 -2 255 -3 253 -2 c 0
 245 0 247 2 247 2 c 1
 247 2 245 2 244 2 c 0
 243 2 242 4 236 6 c 0
 230 8 226 12 226 12 c 1
 226 12 225 12 223 13 c 0
 221 14 218 16 214 19 c 0
 211 21 209 23 208 24 c 2
 208 24 208 25 207 26 c 0
 206 27 205 27 205 27 c 1
 205 27 204 26 200 28 c 0
 195 30 194 31 194 31 c 1
 194 31 193 31 187 34 c 0x5a
 183 36 182 37 182 37 c 2
 181 37 179 39 174 41 c 0
 167 44 163 47 163 47 c 1
 163 47 161 48 156 52 c 0
 152 55 150 58 149 59 c 2
 148 60 l 1
 148 61 l 2
 146 62 144 62 142 64 c 0
 138 66 138 68 138 68 c 1
 138 68 137 67 134 69 c 0
 133 70 l 1
 132 70 l 1
 132 71 l 2
 131 71 l 0
 130 71 131 70 134 69 c 1
 133 70 l 1
 132 70 133 71 132 71 c 0
 131 71 l 0
 130 71 129 71 128 72 c 0x54
 123 75 123 77 122 78 c 1
 168 123 l 1
 169 122 169 123 169 123 c 2
 170 122 170 121 171 121 c 1
 172 121 l 1
 171 121 171 121 171 121 c 1
 172 121 l 2
 172 121 173 120 175 119 c 0
 179 117 181 116 181 116 c 1
 181 116 182 114 185 112 c 0
 188 110 188 110 188 110 c 1
 188 110 191 108 194 105 c 0
 196 103 197 102 197 102 c 1
 197 102 198 101 202 99 c 0
 203 98 203 98 203 98 c 2
 204 98 206 97 209 95 c 0
 214 93 215 92 215 92 c 1
 215 92 216 92 219 90 c 0
 223 88 224 88 224 88 c 1
 224 88 225 88 230 86 c 0
 235 84 238 82 241 80 c 0
 244 78 245 77 245 77 c 1
 245 77 246 75 249 73 c 0
 251 71 252 71 252 71 c 1
 252 71 255 70 257 68 c 0
 259 66 261 65 263 63 c 0
 264 63 264 63 266 62 c 0
 269 61 273 61 275 59 c 2
 275 59 275 59 276 59 c 0
 281 57 280 57 280 57 c 1
 280 57 282 57 286 55 c 0
 290 53 291 52 291 52 c 1
 291 52 294 52 297 50 c 0
 299 49 297 50 298 49 c 2
 298 49 299 49 303 48 c 0
 308 47 306 48 307 48 c 2
 307 48 309 48 311 48 c 2
 311 48 312 48 314 48 c 2
 314 48 314 48 315 48 c 2
 315 48 316 48 320 50 c 0
 324 51 325 52 325 52 c 1
 325 52 326 51 328 52 c 0
 332 53 331 53 333 53 c 0
 335 53 340 56 346 57 c 0
 351 58 353 58 353 58 c 2
 354 58 353 58 354 58 c 0
 359 59 360 59 362 59 c 0
 364 59 367 61 370 62 c 0
 373 63 374 62 374 62 c 1
 374 62 375 63 379 64 c 0
 382 65 383 65 384 65 c 2
 384 65 386 65 387 65 c 0
 389 66 392 67 392 67 c 1
 392 67 393 66 396 68 c 0
 400 70 402 70 402 70 c 1
 402 70 404 72 412 74 c 0
 414 75 412 74 414 74 c 2
 414 74 415 76 418 80 c 0
 421 84 424 86 424 86 c 1
 426 89 l 2
 428 92 428 92 428 92 c 1x5a
 428 92 429 93 431 96 c 2
 432 97 l 2
 433 100 434 101 434 101 c 0
 434 101 435 102 436 106 c 0
 436 107 437 107 437 108 c 0
 438 110 438 110 438 110 c 1
 438 110 437 110 438 115 c 0
 439 118 439 120 439 121 c 2
 439 121 439 121 439 122 c 0
 439 124 440 126 440 126 c 1
 440 126 440 127 441 130 c 0
 441 132 441 133 441 133 c 2
 441 134 440 136 442 142 c 0
 443 144 443 144 443 145 c 2
 443 145 443 146 443 147 c 0
 444 151 444 149 444 149 c 2
 444 150 444 153 444 156 c 2
 444 174 l 1
 444 202 l 2
 444 210 444 215 444 217 c 0
 444 219 443 219 443 224 c 0
 443 229 443 234 443 238 c 2
 443 250 l 2
 443 251 443 251 443 252 c 1x51
 442 250 441 250 439 247 c 0
 437 244 437 244 436 243 c 2
 436 243 434 241 432 239 c 0
 430 237 430 236 429 235 c 0
 428 233 430 235 428 233 c 0
 424 228 422 228 421 227 c 0
 420 226 415 221 410 218 c 0
 405 215 401 213 399 212 c 0x32
 397 211 397 211 392 209 c 0
 390 208 390 208 389 208 c 2
 389 208 387 207 384 206 c 0
 377 204 377 204 377 204 c 1
 377 204 375 204 372 203 c 0
 369 202 365 202 362 201 c 2
 361 201 l 2x52
 360 201 358 199 352 198 c 0
 345 196 340 197 336 197 c 0
 332 197 325 198 320 198 c 0
 315 198 313 198 313 198 c 1
 313 198 312 198 308 198 c 0x92
 304 198 302 199 302 199 c 1
 302 199 304 199 298 200 c 0
 296 201 293 200 293 200 c 1
 293 200 293 201 292 201 c 0x52
 288 202 286 201 284 202 c 0
 282 203 278 204 275 205 c 0
 272 206 268 206 263 208 c 0
 259 210 257 211 256 212 c 0x32
 255 212 252 211 250 213 c 0
 248 213 246 214 242 215 c 0
 236 216 238 216 238 216 c 1
 238 216 233 216 228 216 c 0
 223 216 219 217 219 217 c 1
 219 217 216 216 207 220 c 0
 198 224 194 228 192 230 c 2
 183 239 l 2
 179 243 175 248 170 253 c 0
 166 258 162 265 162 265 c 1
 162 265 162 266 160 268 c 0
 158 270 160 269 158 271 c 0
 156 273 152 277 148 282 c 0
 144 287 142 293 140 298 c 0
 139 299 139 296 139 298 c 2
 139 298 139 300 138 303 c 0
 136 308 137 308 137 308 c 2
 137 309 136 309 136 311 c 0
 135 314 135 315 135 315 c 2
 135 316 135 316 135 318 c 0
 135 319 134 318 134 318 c 1
 134 318 133 320 132 324 c 0
 130 329 131 331 131 332 c 0
 131 333 129 340 128 348 c 0
 127 353 128 356 128 360 c 0
 128 362 128 366 128 368 c 0
 128 374 128 378 128 378 c 1
 128 379 l 2
 128 382 129 382 129 383 c 0
 129 384 129 388 129 391 c 0
 129 394 129 397 129 397 c 1
 129 397 129 396 128 402 c 0x56
 127 408 127 411 127 411 c 1
 127 411 127 413 127 418 c 0
 127 423 126 427 126 428 c 0
 126 429 125 432 125 432 c 2
 124 437 125 438 125 438 c 1
 125 438 124 440 124 444 c 0
 124 447 124 450 124 450 c 1
 124 450 124 449 123 453 c 0
 122 457 123 457 123 457 c 1
 123 457 122 459 122 464 c 0
 122 469 122 475 122 481 c 0
 122 487 122 493 122 498 c 0x58
 122 503 123 504 123 504 c 1
 123 504 122 506 123 512 c 0
 124 518 127 524 128 526 c 2x54
 187 502 l 1
 186 500 187 498 187 498 c 2
 186 493 187 496 187 494 c 0
 187 492 186 486 186 480 c 0
 186 475 187 470 187 468 c 0
 187 467 187 468 187 466 c 2x58
 188 461 l 1
 188 461 188 460 188 456 c 0
 189 451 188 449 188 448 c 0
 188 447 189 445 189 442 c 0
 189 439 189 438 189 438 c 1
 189 438 190 436 190 431 c 0
 190 426 190 422 190 421 c 0
 190 420 191 420 191 416 c 0
 191 412 191 412 191 412 c 1
 191 412 191 410 192 404 c 0
 193 398 193 394 193 391 c 0
 193 388 193 382 193 378 c 0
 193 374 192 371 192 371 c 1
 192 371 193 371 192 367 c 0
 192 366 191 365 191 364 c 1
 192 364 l 1
 192 362 192 356 192 354 c 0
 192 352 191 352 192 348 c 0
 193 344 194 342 194 342 c 1
 194 342 195 340 197 336 c 0
 199 331 198 328 198 328 c 1
 198 328 198 329 198 325 c 0
 198 324 199 323 199 323 c 1
 199 322 l 2
 199 320 200 321 200 320 c 2
 200 320 199 321 200 319 c 0
 201 318 204 315 206 312 c 0
 208 309 210 307 211 306 c 0
 212 305 214 302 216 299 c 0
 218 296 216 297 218 295 c 0
 220 293 225 288 229 284 c 2
 233 280 l 2
 235 280 238 280 243 279 c 0
 250 278 254 278 254 278 c 1
 254 278 258 278 262 277 c 0x34
 264 277 267 276 269 275 c 2
 270 274 l 2
 271 274 271 274 271 274 c 2
 273 273 275 273 277 272 c 0
 279 271 281 270 283 269 c 2
 286 268 l 1x54
 286 268 288 268 291 267 c 0
 294 266 298 265 301 264 c 0
 302 264 302 263 302 263 c 1
 302 263 304 264 306 263 c 0
 307 263 307 262 308 262 c 2
 308 262 309 262 310 262 c 0
 312 262 313 262 313 262 c 1
 313 262 316 263 321 262 c 0
 327 261 322 261 323 261 c 0
 324 261 332 261 336 261 c 2
 340 261 l 1
 340 261 340 261 342 262 c 0
 346 264 350 263 351 263 c 0x94
 352 263 354 264 356 265 c 0
 358 266 360 266 364 267 c 0
 365 267 364 268 365 268 c 0
 367 269 367 268 368 268 c 0x54
 369 268 369 269 371 270 c 0
 373 272 376 271 377 272 c 2
 377 272 377 273 378 273 c 2
 379 275 l 2
 380 276 380 275 381 277 c 0
 383 279 384 281 384 281 c 2
 385 282 386 284 388 286 c 0
 390 288 389 287 390 288 c 2
 390 288 390 288 392 291 c 0
 394 295 397 299 399 301 c 0
 401 303 403 307 405 310 c 0
 407 313 409 315 409 315 c 1
 409 315 406 313 412 319 c 2
 412 319 412 319 413 320 c 0
 414 322 415 322 415 322 c 1
 415 322 415 322 417 324 c 0
 417 325 417 326 419 328 c 0
 421 332 423 333 423 333 c 2
 424 334 425 335 426 336 c 1
 426 336 426 336 426 337 c 0
 426 336 l 1
 426 337 l 0
 428 340 428 342 428 342 c 1
 428 345 l 2x36
 429 348 429 348 430 350 c 0
 431 352 431 357 433 363 c 0
 435 369 436 376 438 382 c 0
 440 388 440 392 441 396 c 0
 442 398 442 400 443 402 c 0x31
 443 403 443 406 445 411 c 0
 447 416 448 417 448 417 c 1
 448 417 447 419 448 422 c 0
 449 426 450 429 450 429 c 1
 450 429 450 430 450 432 c 0
 450 437 450 445 450 448 c 0
 450 451 449 454 449 460 c 0
 449 466 449 473 449 478 c 0
 449 483 449 485 449 486 c 0
 449 487 448 488 448 488 c 2x3040
 447 495 448 489 448 489 c 2
 448 491 448 492 448 494 c 0
 448 496 448 495 448 497 c 0
 448 501 448 504 448 506 c 2
 448 507 l 1
 448 508 l 1
 448 511 l 1
 448 512 l 1
 511 512 l 1
 511 511 l 1
 511 508 l 1
 511 507 l 2
 511 505 511 503 511 502 c 1
 512 502 l 1
 512 501 l 2
 513 494 512 498 512 498 c 2
 512 497 512 497 512 496 c 2
 512 496 511 497 512 494 c 0
 512 492 512 491 512 491 c 1x3080
 512 491 513 490 513 488 c 0
 513 487 513 487 513 487 c 1
 514 486 l 2
 516 480 514 483 514 483 c 1
 514 483 514 482 515 480 c 0
 516 478 516 474 516 472 c 0
 516 466 516 459 516 453 c 0
 516 447 515 446 515 444 c 0
 515 442 515 437 515 432 c 0
 515 431 515 432 515 431 c 0
 515 430 515 430 515 429 c 0
 515 425 515 421 515 418 c 2
 515 401 l 1
 515 366 l 2
 515 364 515 360 515 358 c 0
 515 350 515 346 515 342 c 0x32
 515 337 514 333 514 332 c 2
 514 332 513 330 513 327 c 0
 513 323 513 322 513 322 c 1
 513 322 512 321 512 318 c 0
 512 315 512 313 512 312 c 0
 512 311 513 308 512 302 c 0x3040
 511 297 510 293 510 292 c 2
 510 292 510 293 510 291 c 0
 510 288 509 284 508 282 c 0
 508 279 508 271 508 265 c 0
 508 259 508 256 508 256 c 1
 508 256 507 253 507 250 c 2
 507 238 l 2
 507 234 508 229 508 228 c 0
 508 227 508 224 508 219 c 0
 508 214 508 209 508 201 c 2
 508 174 l 1
 508 155 l 2
 508 151 509 148 508 143 c 2
 507 138 l 1
 507 138 508 138 506 130 c 0
 505 125 505 128 505 128 c 2
 505 127 505 127 505 125 c 0x51
 505 122 504 121 504 121 c 1
 504 121 503 120 503 118 c 2
 502 113 l 1
 502 113 503 112 502 108 c 2
 501 103 l 1
 501 103 501 103 500 98 c 0
 499 94 498 92 498 92 c 1
 498 92 500 91 497 84 c 0
 495 80 494 79 494 79 c 2
 494 78 494 78 493 76 c 0
 491 71 489 68 489 68 c 1
 489 68 487 65 484 60 c 0
 482 57 482 56 481 55 c 2
 481 55 480 54 479 53 c 0
 477 51 478 52 478 52 c 2
 477 51 475 48 473 45 c 0
 470 41 468 39 468 39 c 0
 468 39 467 39 465 36 c 0
 462 32 461 30 461 30 c 1
 461 30 460 29 457 26 c 0
 453 22 452 22 452 22 c 1
 452 22 453 21 446 17 c 0
 438 13 435 12 435 12 c 1
 435 12 433 13 428 12 c 0
 427 12 427 11 427 11 c 2
 422 9 419 8 418 8 c 0
 417 8 415 7 411 5 c 0
 407 3 403 3 402 3 c 0
 401 3 399 3 395 2 c 0
 393 2 393 1 393 1 c 2
 392 1 391 1 389 0 c 2
 389 0 386 -1 385 -1 c 0
 384 -1 380 -2 376 -3 c 0
 373 -4 371 -4 370 -4 c 0
 368 -5 365 -6 363 -6 c 0
 357 -7 359 -6 358 -6 c 0
 357 -6 353 -7 349 -8 c 2
 345 -9 l 1
 345 -9 345 -9 340 -11 c 0
 339 -11 338 -11 338 -11 c 1
 338 -12 l 1
 338 -11 l 1
 335 -12 331 -13 328 -14 c 0
 321 -15 323 -15 323 -15 c 1
 323 -15 322 -16 317 -16 c 0
 312 -16 307 -16 302 -16 c 0
 297 -16 296 -15 296 -15 c 1
 296 -15 296 -16 291 -15 c 0
 287 -14 285 -13 285 -13 c 1x52
EndSplineSet
LCarets2: 7 0 0 0 0 0 0 0
MultipleSubs2: "CCMP cartouches" t.yupekosi cart.body
Ligature2: "LIGA basics" y u p e k o s i
EndChar

StartChar: t.te.fw
Encoding: 289 -1 281
Width: 640
Flags: W
HStem: 416 64<224 480>
VStem: 160 64<32 416>
LayerCount: 2
Fore
SplineSet
160 480 m 1
 480 480 l 1
 480 416 l 1
 224 416 l 1
 224 32 l 1
 160 32 l 1
 160 480 l 1
EndSplineSet
EndChar

StartChar: t.to.fw
Encoding: 290 -1 282
Width: 640
Flags: W
HStem: 32 64<160 416>
VStem: 416 64<96 480>
LayerCount: 2
Fore
SplineSet
480 32 m 1
 160 32 l 1
 160 96 l 1
 416 96 l 1
 416 480 l 1
 480 480 l 1
 480 32 l 1
EndSplineSet
EndChar

StartChar: n.lipamanka
Encoding: 291 -1 283
Width: 640
Flags: W
HStem: -32 64<121.823 160 224 272> 240 72<316.438 360.765> 264 72<404.438 448.765> 432 64<401.232 448> 480 64<230.256 317.194>
VStem: 32 64<57.2281 134.854> 96 64<306.937 409.744> 160 64<32 80 112 160> 308 72<259.235 291.766> 396 72<283.235 316.765> 448 64<400 432> 480 64<-32 72 120 208>
LayerCount: 2
Fore
SplineSet
168 306 m 1x8a80
 189 384 246 447 318 477 c 1
 309 479 298 480 288 480 c 0
 217 480 160 423 160 352 c 0
 160 336 162 320 168 306 c 1x8a80
224 80 m 1x8180
 224 32 l 1
 272 32 l 1
 272 56 l 1
 224 80 l 1x8180
433 336 m 2xa0c0
 434 336 l 2
 447 335 458 329 464 317 c 0
 466 312 468 306 468 300 c 0
 468 287 461 275 449 268 c 0
 444 266 438 264 432 264 c 0
 419 264 407 271 400 283 c 0
 398 288 396 294 396 300 c 0
 396 313 404 325 416 332 c 0
 422 336 426 336 433 336 c 2xa0c0
346 312 m 0xc080
 359 311 370 304 376 292 c 0
 378 287 380 282 380 276 c 0
 380 263 373 251 361 244 c 0
 356 242 350 240 344 240 c 0
 331 240 319 247 312 259 c 0
 310 264 308 270 308 276 c 0
 308 289 316 301 328 308 c 0
 334 312 339 312 346 312 c 0xc080
160 160 m 1x8580
 125 160 96 131 96 96 c 0
 96 61 125 32 160 32 c 1
 160 160 l 1x8580
272 224 m 1
 360 180 l 1
 448 224 l 1
 448 136 l 1xd1a0
 480 120 l 1
 480 207 l 1
 480 234 l 1xd090
 523 278 l 1
 448 378 l 1
 448 432 l 1
 416 432 l 2
 310 432 224 346 224 240 c 2xd1a0
 224 112 l 1
 272 136 l 1
 272 224 l 1
360 136 m 1
 323 118 l 1
 323 74 l 1
 360 56 l 1
 397 74 l 1
 397 118 l 1
 360 136 l 1
288 544 m 0x8a80
 336 544 381 526 415 496 c 1
 416 496 l 1
 448 496 l 1
 512 496 l 1
 512 432 l 1
 512 400 l 1x92a0
 569 323 l 1
 608 272 l 1
 544 208 l 1
 544 -32 l 1
 480 -32 l 1
 480 72 l 1x9090
 448 56 l 1
 448 -32 l 1
 360 12 l 1
 272 -32 l 1
 160 -32 l 2
 89 -32 32 25 32 96 c 0x95a0
 32 162 82 215 146 223 c 1
 115 257 96 303 96 352 c 0
 96 458 182 544 288 544 c 0x8a80
EndSplineSet
MultipleSubs2: "CCMP cartouches" n.lipamanka cart.body
Ligature2: "LIGA basics" l i p a m a n k a
EndChar

StartChar: n.ante
Encoding: 292 -1 284
Width: 640
Flags: W
HStem: -8 21G<83 131.259 309.637 330.259 508.637 557>
LayerCount: 2
Fore
SplineSet
257 255 m 1
 320 132 l 1
 383 255 l 1
 320 378 l 1
 257 255 l 1
121 518 m 1
 220 324 l 1
 320 518 l 1
 419 324 l 1
 519 518 l 1
 576 488 l 1
 456 255 l 1
 576 22 l 1
 519 -8 l 1
 419 185 l 1
 320 -8 l 1
 220 185 l 1
 121 -8 l 1
 64 22 l 1
 184 255 l 1
 64 488 l 1
 121 518 l 1
EndSplineSet
MultipleSubs2: "CCMP cartouches" n.ante cart.body
Ligature2: "LIGA alternates" t.ante nine nine
EndChar

StartChar: morae.colon.hw
Encoding: 293 -1 285
Width: 320
Flags: W
HStem: 80 128<121 199> 304 128<121 199>
VStem: 96 128<105 183 329 407>
LayerCount: 2
Fore
SplineSet
96 368 m 0
 96 403 125 432 160 432 c 0
 195 432 224 403 224 368 c 0
 224 333 195 304 160 304 c 0
 125 304 96 333 96 368 c 0
96 144 m 0
 96 179 125 208 160 208 c 0
 195 208 224 179 224 144 c 0
 224 109 195 80 160 80 c 0
 125 80 96 109 96 144 c 0
EndSplineSet
MultipleSubs2: "CCMP cartouches" morae.colon.hw cart.hwbody
EndChar

StartChar: uni300C
Encoding: 98 12300 290
Width: 640
Flags: W
HStem: 512 64<384 640>
VStem: 320 64<128 512>
LayerCount: 2
Fore
SplineSet
320 576 m 1
 640 576 l 1
 640 512 l 1
 384 512 l 1
 384 128 l 1
 320 128 l 1
 320 576 l 1
EndSplineSet
EndChar

StartChar: uni300D
Encoding: 99 12301 291
Width: 640
Flags: W
HStem: -64 64<0 256>
VStem: 256 64<0 384>
LayerCount: 2
Fore
SplineSet
320 -64 m 1
 0 -64 l 1
 0 0 l 1
 256 0 l 1
 256 384 l 1
 320 384 l 1
 320 -64 l 1
EndSplineSet
EndChar

StartChar: uniFF1A
Encoding: 100 65306 292
Width: 320
Flags: W
HStem: 80 128<121 199> 304 128<121 199>
VStem: 96 128<105 183 329 407>
LayerCount: 2
Fore
SplineSet
96 368 m 0
 96 403 125 432 160 432 c 0
 195 432 224 403 224 368 c 0
 224 333 195 304 160 304 c 0
 125 304 96 333 96 368 c 0
96 144 m 0
 96 179 125 208 160 208 c 0
 195 208 224 179 224 144 c 0
 224 109 195 80 160 80 c 0
 125 80 96 109 96 144 c 0
EndSplineSet
EndChar

StartChar: cart.1tick
Encoding: 294 -1 293
Width: 0
Flags: W
HStem: -287 160<-352 -288>
VStem: -352 64<-287 -127>
LayerCount: 2
Fore
SplineSet
-352 -287 m 5
 -352 -127 l 1
 -288 -127 l 1
 -288 -287 l 5
 -352 -287 l 5
EndSplineSet
Substitution2: "SS02 small text tickmarks-1" cart.1tick.small
EndChar

StartChar: cart.1tick.small
Encoding: 295 -1 294
Width: 0
Flags: HW
LayerCount: 2
Fore
SplineSet
0.02734375 672 m 1
 0.02734375 607.999023438 l 1
 -639.987304688 607.999023438 l 1
 -704 639.999023438 l 1
 -639.987304688 672 l 1
 0.02734375 672 l 1
-639.987304688 -95.9990234375 m 1
 0.1103515625 -95.9521484375 l 1
 0.0166015625 -160.000976562 l 1
 -223.889648438 -160.000976562 l 1
 -287.889648438 -95.9736328125 l 1
 -287.889648438 -287.952148438 l 1
 -351.889648438 -287.952148438 l 1
 -351.889648438 -95.978515625 l 1
 -415.889648438 -159.961914062 l 1
 -639.987304688 -160 l 1
 -672 -127.999023438 l 1
 -639.987304688 -95.9990234375 l 1
EndSplineSet
LCarets2: 1 0
Ligature2: "LIGA small text tickmarks-2" cart.body cart.1tick.small
EndChar

StartChar: cart.2ticks.small
Encoding: 296 -1 295
Width: 0
Flags: HW
LayerCount: 2
Fore
SplineSet
0.0107421875 672 m 1
 0.0107421875 607.999023438 l 1
 -639.977539062 607.999023438 l 1
 -703.990234375 639.999023438 l 1
 -639.977539062 672 l 1
 0.0107421875 672 l 1
-639.943359375 -95.970703125 m 1
 0.1552734375 -95.96484375 l 1
 0.060546875 -160.013671875 l 1
 -143.89453125 -159.9609375 l 1
 -207.89453125 -95.9609375 l 1
 -207.89453125 -287.9609375 l 1
 -271.89453125 -287.9609375 l 1
 -271.89453125 -95.9609375 l 1
 -319.89453125 -143.9609375 l 1
 -367.89453125 -95.982421875 l 1
 -367.89453125 -287.9609375 l 1
 -431.89453125 -287.9609375 l 1
 -431.89453125 -95.986328125 l 1
 -495.893554688 -159.970703125 l 1
 -639.987304688 -159.758789062 l 1
 -672 -127.758789062 l 5
 -639.943359375 -95.970703125 l 1
EndSplineSet
LCarets2: 1 -768
Ligature2: "LIGA small text tickmarks-2" cart.body cart.2ticks.small
EndChar

StartChar: cart.3ticks.small
Encoding: 297 -1 296
Width: 0
VWidth: 736
Flags: HW
LayerCount: 2
Fore
SplineSet
-0.01171875 672 m 1
 -0.01171875 607.999023438 l 1
 -640 607.999023438 l 1
 -704 639.999023438 l 1
 -640 672 l 1
 -0.01171875 672 l 1
-639.893554688 -95.9521484375 m 1
 0.193359375 -95.919921875 l 1
 0.0986328125 -159.96875 l 1
 -79.9052734375 -159.96875 l 1
 -143.91796875 -95.9501953125 l 1
 -143.91796875 -287.930664062 l 1
 -207.905273438 -287.96875 l 1
 -207.905273438 -95.96875 l 1
 -247.905273438 -135.96875 l 1
 -287.905273438 -95.9873046875 l 1
 -287.905273438 -287.987304688 l 1
 -351.905273438 -287.987304688 l 1
 -351.905273438 -95.9873046875 l 1
 -391.905273438 -135.96875 l 1
 -431.90625 -95.9638671875 l 1
 -431.90625 -287.942382812 l 1
 -495.905273438 -287.942382812 l 1
 -495.905273438 -95.96875 l 1
 -559.905273438 -159.952148438 l 1
 -639.893554688 -159.952148438 l 1
 -671.905273438 -127.952148438 l 1
 -639.893554688 -95.9521484375 l 1
EndSplineSet
LCarets2: 1 -768
Ligature2: "LIGA small text tickmarks-2" cart.body cart.3ticks.small
EndChar

StartChar: cart.4ticks.small
Encoding: 298 -1 297
Width: 0
VWidth: 736
Flags: HW
LayerCount: 2
Fore
SplineSet
0.013671875 672 m 1
 0.013671875 607.999023438 l 1
 -640 607.999023438 l 1
 -704 639.999023438 l 1
 -640 672 l 1
 0.013671875 672 l 1
-639.881835938 -95.9970703125 m 1
 0.2001953125 -95.9482421875 l 1
 0.1064453125 -159.997070312 l 1
 -7.89453125 -159.951171875 l 1
 -71.8935546875 -95.951171875 l 1
 -71.8935546875 -287.951171875 l 1
 -135.893554688 -287.951171875 l 1
 -135.893554688 -95.951171875 l 1
 -175.89453125 -135.951171875 l 1
 -215.90625 -95.9326171875 l 1
 -215.90625 -287.913085938 l 1
 -279.893554688 -287.951171875 l 1
 -279.893554688 -95.951171875 l 1
 -319.89453125 -135.951171875 l 1
 -359.893554688 -95.951171875 l 1
 -359.893554688 -287.951171875 l 1
 -423.893554688 -287.951171875 l 1
 -423.893554688 -95.951171875 l 1
 -463.89453125 -135.951171875 l 1
 -503.893554688 -95.9462890625 l 1
 -503.893554688 -287.924804688 l 1
 -567.893554688 -287.924804688 l 1
 -567.893554688 -95.951171875 l 1
 -631.89453125 -159.951171875 l 1
 -639.881835938 -159.997070312 l 1
 -671.89453125 -127.997070312 l 1
 -639.881835938 -95.9970703125 l 1
EndSplineSet
LCarets2: 1 -704
Ligature2: "LIGA small text tickmarks-2" cart.body cart.4ticks.small
EndChar
